<?xml version="1.0" encoding="UTF-8"?>
<svg xmlns="http://www.w3.org/2000/svg" xmlns:xlink="http://www.w3.org/1999/xlink" viewBox="0 0 1116.37 1116.37">
  <defs>
    <style>
      .cls-1 {
        clip-path: url(#clippath);
      }

      .cls-2 {
        fill: none;
      }

      .cls-2, .cls-3, .cls-4, .cls-5, .cls-6, .cls-7, .cls-8, .cls-9 {
        stroke-width: 0px;
      }

      .cls-10, .cls-6 {
        fill: #b2645b;
      }

      .cls-11, .cls-5 {
        fill: #e0e9ec;
      }

      .cls-12 {
        clip-path: url(#clippath-1);
      }

      .cls-13 {
        mix-blend-mode: overlay;
      }

      .cls-14 {
        isolation: isolate;
      }

      .cls-4 {
        fill: #5d73c7;
      }

      .cls-7 {
        fill: #fff;
      }

      .cls-8 {
        fill: #f1a841;
      }

      .cls-9 {
        fill-rule: evenodd;
      }
    </style>
    <clipPath id="clippath">
      <circle class="cls-5" cx="558.18" cy="558.18" r="558.18"/>
    </clipPath>
    <clipPath id="clippath-1">
      <ellipse class="cls-6" cx="146.68" cy="543.14" rx="78.78" ry="70.18" transform="translate(-402.98 663.08) rotate(-87.2)"/>
    </clipPath>
  </defs>
  <g class="cls-14">
    <g id="Layer_2" data-name="Layer 2">
      <g id="Layer_4" data-name="Layer 4">
        <g>
          <circle class="cls-11" cx="558.18" cy="558.18" r="558.18"/>
          <g class="cls-1">
            <g>
              <path class="cls-3" d="m692.63,216.25s109.26-62.08,179.53,39.73c70.27,101.82,41.25,156.15,87.21,228.33,45.88,72.05-26.98,163.17-1.16,187.55,25.81,24.38,131.93,101.82,87.48,262.43-44.46,160.62-502.27,322.27-502.27,322.27,0,0-368.21-170.26-419.84-273.51-51.63-103.25-58.04-100.38-9.11-166.35,48.93-65.97,80.81-90.91,40.66-163.48-20.78-37.55-141.94-163.08-16.83-232.32,56.1-31.05,8.39-159.18,79.93-223.71,78.77-71.06,120.34-9.05,182.13-64.53,70.27-63.1,269.07-80.9,292.28,83.59Z"/>
              <g>
                <ellipse class="cls-10" cx="146.68" cy="543.14" rx="78.78" ry="70.18" transform="translate(-402.98 663.08) rotate(-87.2)"/>
                <g class="cls-12">
                  <g class="cls-13">
                    <path class="cls-2" d="m263.99,668.06c-12.02-23.62-23.08-47.49-32.1-71.47-9.01-23.93-15.9-48.07-19.15-71-1.38-11.35-2.01-22.41-1.29-32.46.79-9.99,2.8-18.95,6.05-26.03,3.25-7.11,7.31-12.71,12.67-17.1,2.67-2.19,5.64-4.13,8.83-5.69,1.57-.83,3.22-1.45,4.77-2.02.74-.24,1.56-.54,2.15-.68l.78-.21.14-.04h.05s-.02,0-.02,0c.01.08,0,.03-.13-.58l-.28-1.32c-.74-3.53-1.41-7.07-2.03-10.63l-.45-2.67c-2.66-14.8,3.37,18.53,2.7,15.24l-.16.03-.65.1-12.98-86.89-3.55.64-2.4.53c-1.55.35-2.93.72-4.28,1.09-2.78.74-5.26,1.57-7.82,2.44-5,1.78-9.83,3.74-14.47,6.07-9.32,4.57-18.11,10.25-26.2,16.91-16.26,13.29-28.87,30.89-36.98,49.18-8.22,18.36-11.92,37.13-13.33,54.86-1.29,17.77-.21,34.63,1.81,50.91,4.57,32.29,13.41,61.95,23.95,90.15,10.61,28.18,23.05,54.92,36.31,80.95l78.06-40.29Z"/>
                    <path class="cls-9" d="m238.79,394.11c.02.12-.19.13-.31.18-.1.27-.71.8-1.58.95.74-.31.85-.89,1.88-1.12Z"/>
                    <path class="cls-9" d="m230.69,389.45c-.08.3-.89.31-1.24.51.41-.29.8-.79,1.24-.51Z"/>
                    <path class="cls-9" d="m228.7,390.97c.09.36-.62.42-1.03.6-.13-.48.72-.49,1.03-.6Z"/>
                    <path class="cls-9" d="m227.53,390.73c.41.06-.8.35-.89.56l-.12-.34c-.98.19-.91.74-1.83.95.26-.97,1.87-1.11,2.85-1.17Z"/>
                    <path class="cls-9" d="m227.49,391.5c.15.39-.4.49-.84.67.2-.26.5-.48.84-.67Z"/>
                    <path class="cls-9" d="m226.75,391.62c-.37.47-1.07.9-1.72.78.18-.43.9-.26,1.72-.78Z"/>
                    <path class="cls-9" d="m233.47,410.38c.06.27-.48.25-.27.61-.08.06-.12,0-.15-.07l-.21.08c0-.31.32-.48.63-.62Z"/>
                    <path class="cls-9" d="m231.82,410.23c-.01.27-.19.46-.52.59,0-.27.19-.46.52-.59Z"/>
                    <path class="cls-9" d="m236.47,423.49c-.18.38-.65.41-.92.49.05-.31.65-.3.92-.49Z"/>
                    <path class="cls-9" d="m223.09,392.25c-.37.66-1.25.57-1.66.56.23-.36,1.07-.23,1.66-.56Z"/>
                    <path class="cls-9" d="m228.8,411.71c.33.15.32-.25.74-.33.18.27-.67.56-.24.63.03.28-.57.3-.79.48.05-.28.41-.43.29-.78Z"/>
                    <path class="cls-9" d="m233.67,424.39c.18.05-1.07.86-1.27.43.35-.07.72-.21,1.27-.43Z"/>
                    <path class="cls-9" d="m225.44,413.79c-.06.24-.38.58-.67.47-.08-.26.48-.3.67-.47Z"/>
                    <path class="cls-9" d="m215.54,394.73c.22.53-.72.44-.84.29.05-.46.49.11.84-.29Z"/>
                    <path class="cls-9" d="m207.96,398.88c.48-.08-.64.57-.75.46-.1-.56.34-.08.75-.46Z"/>
                    <path class="cls-9" d="m208.59,399.91c.06.16-.35.25-.25.42-.31-.08-1.44.95-1.34.59.53-.34,1.04-.71,1.59-1.01Z"/>
                    <path class="cls-9" d="m201.21,402.8c.02.35-1.61,1.6-2.02,1.24.66-.33,1.3-.61,2.02-1.24Z"/>
                    <path class="cls-9" d="m210.38,420.85c.07-.63,1.43-.86,0,0h0Z"/>
                    <path class="cls-9" d="m194.49,406.71c.07.78-.71,1.15-1.52,1.66,0-.73,1.16-1,1.52-1.66Z"/>
                    <path class="cls-9" d="m204.41,422.28c.04.2.12.4-.12.59-.39-.01-.29-.37-.57-.62.45-.43.29.28.69.03Z"/>
                    <path class="cls-9" d="m198.7,427.74c.16.22-.38.46-.5.69-.26-.38.28-.41.5-.69Z"/>
                    <path class="cls-9" d="m184.62,415.2c.11.14-.39,1.13-.7.78.42-.26.34-.37.7-.78Z"/>
                    <path class="cls-9" d="m202.83,432.28c.34.22-.48.76-.7.43.2-.37.46-.17.7-.43Z"/>
                    <path class="cls-9" d="m183.63,416.52c-.41,1.24-.52,1.03-1.53,2.41-.06-.69.85-1.57,1.53-2.41Z"/>
                    <path class="cls-9" d="m180.05,417.26c.02.4-.76.23-1.06.91-.01-.48.77-.92,1.06-.91Z"/>
                    <path class="cls-9" d="m178.7,418.33c.17.19-.27.51-.11.7-.16.14-.32-.09-.48-.18.19-.08.39-.22.58-.52Z"/>
                    <path class="cls-9" d="m181.15,420.46c-.74.1-1.1.97-1.7,1.69.06-.63.8-2.05,1.7-1.69Z"/>
                    <path class="cls-9" d="m159.55,404.79c.44.12-.22.6-.38.66-1.08,1.38.16-.68.38-.66Z"/>
                    <path class="cls-9" d="m194.19,432.38c.37-.17.29.41-.02.6-.5-.14.3-.43.02-.6Z"/>
                    <path class="cls-9" d="m181.93,426.33c.41.35-.11,1.08-.52,1.37-.22-.5.61-.77.52-1.37Z"/>
                    <path class="cls-9" d="m179.25,424.93c.04.13-.09.44.11.26.16.3-.45.47-.63.27,0-.16.08-.35.24-.55.1.1.19.1.28.02Z"/>
                    <path class="cls-9" d="m181.5,429.47c.39-.25-.31.76-.48.69-.1-.03-.06-.11-.02-.18.09-.08.04-.13-.02-.18.17-.15.38.11.52-.33Z"/>
                    <path class="cls-9" d="m190.43,437.66c.34-.09-.44.78-.59,1.07-.12-.47.31-.52.59-1.07Z"/>
                    <path class="cls-9" d="m185.13,436.04c-.1.14-.19.29-.27.44-.45-.16-.07-.78.27-.44Z"/>
                    <path class="cls-9" d="m184.03,438.41c.45.55-.58.68-.71,1.24-.09-.3.46-1.12.71-1.24Z"/>
                    <path class="cls-9" d="m165.26,430.86c-.2.42-.48.29-.68.71-.32-.2.36-.96.68-.71Z"/>
                    <path class="cls-9" d="m176.59,442.21c.24.33-.1.96-.3,1.21-.07-.33.24-.82.3-1.21Z"/>
                    <path class="cls-9" d="m175.74,444.06c.31.28-.52,1.07-.52,1.7-.22-.36.38-1.49.52-1.7Z"/>
                    <path class="cls-9" d="m159.35,440.05c.16.31-.4,1.09-.73.72.18-.5.59-.02.73-.72Z"/>
                    <path class="cls-9" d="m173.44,446.76c.34.27-.04.87-.24,1.38-.33-.02.2-.92-.27-.56-.2-.28.42-.48.51-.82Z"/>
                    <path class="cls-9" d="m172.87,449.18c-.32.17-.2-.14-.4-.31.19-.18.3-.67.61-.49-.1.08-.21.15-.28.33.02.16.19.23.07.47Z"/>
                    <path class="cls-9" d="m173.03,449.1c.19.49-.65.65-.46,1.28-.48-.37.07-1.19.46-1.28Z"/>
                    <path class="cls-9" d="m190.61,458.68c.48.13-.02.57-.19.52-.3-.21.24-.21.19-.52Z"/>
                    <path class="cls-9" d="m180.66,457.65c.46.07-.02.83-.32.54.14-.1.26-.26.32-.54Z"/>
                    <path class="cls-9" d="m185.08,461.67c.12.21.12.67-.16.8-.24-.13.15-.55.16-.8Z"/>
                    <path class="cls-9" d="m204.18,469.68c.14.11.17.26.14.44-.2-.07-.27.04-.48-.05l.07-.28c.17.19.24.16.27-.11Z"/>
                    <path class="cls-9" d="m171.66,465.57c-.13,1.78-1,3.38-1.33,5.32-.95-2.09,1.2-3.51,1.33-5.32Z"/>
                    <path class="cls-9" d="m191.57,470.55c.39.07.37.7-.14.52l.14-.52Z"/>
                    <path class="cls-9" d="m196.39,472.51c.23.12-.05.63-.18.69-.31-.23.21-.41.18-.69Z"/>
                    <path class="cls-9" d="m191.16,472.56c.14.19.14.46.04.78-.47-.02-.02-.52-.04-.78Z"/>
                    <path class="cls-9" d="m192.26,474.23c.31-.44.35.82-.09.54-.11-.3.42-.37.09-.54Z"/>
                    <path class="cls-9" d="m192.13,474.98c.3.02.27,1.01-.15.86.22-.29,0-.39.15-.86Z"/>
                    <path class="cls-9" d="m169.95,470.96c.52.06-.03.92.43,1.02-.13.29-.27.57-.59.55-.23-.5.28-1.2.16-1.57Z"/>
                    <path class="cls-9" d="m174.92,473.87c.41-.4.12.62.08.91-.1,0-.1-.07-.09-.14l-.24-.04c0-.28.48-.6.25-.72Z"/>
                    <path class="cls-9" d="m173.93,476c.23.23.5.42.32.94-.05-.35-.32-.55-.32-.94Z"/>
                    <path class="cls-9" d="m185.29,478.59c.14.17.15.42.12.71-.39-.03-.34-.56-.12-.71Z"/>
                    <path class="cls-9" d="m191.77,479.87c.12.05.04.22.2.25-.38.14-.31.22-.45.47-.3-.22.1-.64.25-.72Z"/>
                    <path class="cls-9" d="m201.4,481.94c.47,0,.07.48.11.71-.34-.07-.14-.43-.11-.71Z"/>
                    <path class="cls-9" d="m143.6,478.76c.26.23.44.55.5.98-.18.06-.23-.62-.34-.19-.17-.15-.22-.41-.16-.79Z"/>
                    <path class="cls-9" d="m188.96,484.48c.2.24,0,1.07-.34,1.09.16-.31.28-.67.34-1.09Z"/>
                    <path class="cls-9" d="m140.81,481.27c.09.09.18.18.34.19-.47.74-.28.85-.32,1.99-.51-.45-.3-1.55-.02-2.18Z"/>
                    <path class="cls-9" d="m145.14,482.59c.35.26.09,1.17.06,1.83-.27-.41-.09-.9-.06-1.83Z"/>
                    <path class="cls-9" d="m140.57,483.74c.72-.03-.26,1,.28.8.29.04-.02.51-.16.45-.11,2.15-.35.67-.11-.16.01-.15-.13-.13-.22-.17-.04-.48.25-.44.21-.92Z"/>
                    <path class="cls-9" d="m193.99,488.65c.24.11.42.48.18.66-.16-.15-.19-.39-.18-.66Z"/>
                    <path class="cls-9" d="m188.8,488.75c-.53.31-.16.79,0,1.13-.1-.09-.26-.14-.47-.15.09-.38.01-.63-.03-.91.11-.08.28-.1.49-.07Z"/>
                    <path class="cls-9" d="m190.21,489.09c.08.83.91,1.66.37,2.35-.26-.03,0-.47-.05-.67-.34,0-.26.44-.32.75-.24-.48-.37-1.88,0-2.44Z"/>
                    <path class="cls-9" d="m140.26,486.98c.34.04.16.66.14,1.09-.23-.16-.2-.61-.14-1.09Z"/>
                    <path class="cls-9" d="m140.02,488.36c.38-.05.37.35.34.78-.24-.1-.45-.26-.34-.78Z"/>
                    <path class="cls-9" d="m140.23,489.43c.58.02-.66,2,.31,1.68-.17.21-.54.38-.72.12.17-.89.27-.89.41-1.81Z"/>
                    <path class="cls-9" d="m190.27,493.23l.36.02c-.21.25-.32.6-.26,1.12-.32.02.12-.63-.35-.47.11-.2.34-.27.25-.67Z"/>
                    <path class="cls-9" d="m170.14,492.38c-.03.45.02.99-.38,1.02.02-.46-.06-1.04.38-1.02Z"/>
                    <path class="cls-9" d="m189.77,494.34c.28.18.22.25.6.14-.26.22-.07.54.23.57.05.36-.59.02-.49.44-.1-.39-.34-.66-.34-1.15Z"/>
                    <path class="cls-9" d="m192.28,494.78c.27.1.38.76-.13.66.14-.13.14-.39.13-.66Z"/>
                    <path class="cls-9" d="m189.87,495.59c.25.25.42.55.22.91-.2-.19-.25-.52-.22-.91Z"/>
                    <path class="cls-9" d="m189.39,495.8c.42.15.33.4.11.69-.26-.02-.04-.48-.11-.69Z"/>
                    <path class="cls-9" d="m192.36,497.13c.13-.17.24,1.03.1,1.12-.27-.16-.03-.78-.1-1.12Z"/>
                    <path class="cls-9" d="m140.88,496.42c.26.03.25.38.22.76-.37.11-.43-.16-.72-.16.12-.27.45-.25.5-.6Z"/>
                    <path class="cls-9" d="m188.62,497.84c.42-.15.55,1.31.33,1.37-.09.03-.19-1.2-.33-1.37Z"/>
                    <path class="cls-9" d="m198.32,499.2v.32c-.12.11-.63.09-.6-.22.34.09.31-.15.6-.1Z"/>
                    <path class="cls-9" d="m142.86,498.99c.18.18.53.13.47.6-.28-.05-.56-.1-.47-.6Z"/>
                    <path class="cls-9" d="m142.82,500.93c.36,0,.29.52.34.89-.36.01-.29-.52-.34-.89Z"/>
                    <path class="cls-9" d="m189.98,501.48c.23.19.15-.01.48,0-.15.17-.12.5-.49.45v-.45Z"/>
                    <path class="cls-9" d="m189.15,503.21c-.2.05-.23-.09-.25-.23-.14-.02-.21.03-.23.12-.44-.39.56-.42.49.11Z"/>
                    <path class="cls-9" d="m195.14,503c.36.63-.22.81.2,1.45-.63.04-.46-1.29-.2-1.45Z"/>
                    <path class="cls-9" d="m188.95,503.91c.36.08.45.43.64.68-.12-.07-.46-.26-.35.13-.17.07-.32-.45-.36-.11-.49-.38.52-.27.08-.7Z"/>
                    <path class="cls-9" d="m190.39,503.88c.6.23.09,1.21.08,1.61-.41-.66.26-.97-.08-1.61Z"/>
                    <path class="cls-9" d="m142.09,505.68c.33.39-.2.99-.05,1.62-.34-.39-.02-1.23.05-1.62Z"/>
                    <path class="cls-9" d="m195.14,507.6c.01-.13.21-.1.35-.13-.07.36.43.73.51.54.31.53-.04,1.04.2,1.67-.11-.08-.28-.11-.48-.09.45-.93-.38-1.22-.58-1.99Z"/>
                    <path class="cls-9" d="m190.15,508.74c.26.27.41,1.21-.2.82.44-.17-.09-.51.2-.82Z"/>
                    <path class="cls-9" d="m196.91,509.41c.36-.19.4.7.03.55l-.03-.55Z"/>
                    <path class="cls-9" d="m190.45,510c.19-.19.13.9.29,1.14-.56-.11-.29-.64-.29-1.14Z"/>
                    <path class="cls-9" d="m190.1,510.13c.24.66-.24,1.64-.62,2.13-.31-.5.53-1.32.62-2.13Z"/>
                    <path class="cls-9" d="m195.86,509.92c.69.06-.4.67.27.66-.03.15-.3.11-.47.14.12-.42.14-.51.2-.8Z"/>
                    <path class="cls-9" d="m191.56,510.62c.26-.04.07.4.15.56-.37-.06-.23-.07-.6.04.07-.27.38-.33.45-.6Z"/>
                    <path class="cls-9" d="m192.43,511.26c.31.1.61.42.27.56-.18-.09-.27-.27-.27-.56Z"/>
                    <path class="cls-9" d="m191.65,512.46c.28.3.67,1.06.3,1.36-.25-.19-.05-.42-.49-.19.27-.21.23-.69.19-1.16Z"/>
                    <path class="cls-9" d="m166.01,517.23c0-.15.2-.13.34-.16.15.41-.14.42-.17.68-.42,0,.15-.6-.18-.51Z"/>
                    <path class="cls-9" d="m191.67,515.71c.61-.25.8,2.08-.04,1.77,0-.14.21-.12.34-.15-.3-.44.1-1.16-.31-1.62Z"/>
                    <path class="cls-9" d="m164.98,519.85c.16.2.52.37.31.63l-.36.04c-.07-.3-.04-.51.05-.67Z"/>
                    <path class="cls-9" d="m166.93,521.11c.14-.12.35.92.4,1.41-.31-.23-.34-.84-.4-1.41Z"/>
                    <path class="cls-9" d="m142.04,525.25c.05.43-.26.53-.26.91-.24-.12-.04-.89.26-.91Z"/>
                    <path class="cls-9" d="m165.54,523.78c.32.16.69.26.7.85-.27-.23-.6-.38-.7-.85Z"/>
                    <path class="cls-9" d="m193.34,521.87c.27.02.11.56.21.8-.31-.09-.31-.44-.21-.8Z"/>
                    <path class="cls-9" d="m166.58,525.52c.25,0,.17.47.42.48.03.11-.03.13-.1.15-.1-.01-.11.07-.1.15-.24-.08-.39-.53-.21-.77Z"/>
                    <path class="cls-9" d="m142.35,531.24l.36-.05c-.1.38.39,2.93,0,1.03-.14-.3-.36-.45-.35-.98Z"/>
                    <path class="cls-9" d="m138.13,532.42c.35.14.33.76.25,1.16-.28-.07-.14-.82-.25-1.16Z"/>
                    <path class="cls-9" d="m167.71,530.94c.47-.04.46,1.27.39,1.53-.21-.18-.03-1.18-.39-1.53Z"/>
                    <path class="cls-9" d="m138.51,535.92c.15.39.61.6.27.84-.31-.27-.53-.47-.27-.84Z"/>
                    <path class="cls-9" d="m138.24,537.15l.36-.06c-.1.24,0,.66-.38.65-.06-.25.09-.33.02-.59Z"/>
                    <path class="cls-9" d="m194.97,530.16c.27.06.47.22.48.64-.3-.02-.34-.4-.48-.64Z"/>
                    <path class="cls-9" d="m143.76,538.89c.18-.59.26.5.55.35.01.25-.15.36-.42.36-.21-.32.25-.64-.12-.71Z"/>
                    <path class="cls-9" d="m139.46,540.05c.5-.05.03.52.38.82l-.36.06c-.16-.43.13-.46-.03-.88Z"/>
                    <path class="cls-9" d="m140.88,540.54c.17-.47.1,1.04.6.63-.11.74-.65.04-.6-.63Z"/>
                    <path class="cls-9" d="m139.26,542.45c.12-.02.12.16.17.27.05.16.13.06.12-.02.17.02.16.34.22.55-.41.16-.43-.36-.5-.8Z"/>
                    <path class="cls-9" d="m141.62,544.09l.47-.09c-.13.21,0,.64.06,1.02-.39.06-.36-.6-.53-.93Z"/>
                    <path class="cls-9" d="m139.64,548.16c.24.44.5.86.72,1.34-.42-.12-.63-.62-.72-1.34Z"/>
                    <path class="cls-9" d="m196.57,537.2c.46.07.11,1.01.26,1.51-.31.1,0-.67-.43-.4.38-.38.13-.54.17-1.11Z"/>
                    <path class="cls-9" d="m142.81,562.22l.47-.11c-.32.02-.31.95-.02.45.43.12-.16.4.04.73-.25-.17-.4-.57-.49-1.06Z"/>
                    <path class="cls-9" d="m144.56,569.77c.27.07.4.46.5.89-.26-.32-.56-.42-.5-.89Z"/>
                    <path class="cls-9" d="m205.01,554.77c.24-.03.18.5.39.52.08-.11.11-.26.13-.41.4.11.11.63-.33.58-.02-.42-.36-.43-.2-.69Z"/>
                    <path class="cls-9" d="m147.92,571.5c.13.05.25.11.23-.06.33.24-.18.32.23.81-.3.07-.36-.39-.46-.75Z"/>
                    <path class="cls-9" d="m146.76,572.25c.28.13.47,1.11.38,1.36-.28-.13-.47-1.11-.38-1.36Z"/>
                    <path class="cls-9" d="m148.42,572.39c.24.37.25.86.42,1.49-.32-.18-.32-1.05-.61-1.29.14-.02.2-.09.19-.2Z"/>
                    <path class="cls-9" d="m145.8,580.31c.41.23.05.88.47,1.2-.65.18-.33-.75-.47-1.2Z"/>
                    <path class="cls-9" d="m146.96,579.98c.32-.28.21.42.54.14.12.3-.29.25-.23.51-.42-.01-.13-.24-.31-.65Z"/>
                    <path class="cls-9" d="m145.23,580.93c-.11.22.11.67,0,.89-.37-.21-.48-.74,0-.89Z"/>
                    <path class="cls-9" d="m147.65,582.43c.41.3.92,1.63.7,2.01-.25-.02-.41-.27-.54-.58.46.47.12-1.3-.35-.78-.14-.35.42-.24.19-.65Z"/>
                    <path class="cls-9" d="m149.74,587.12l.34-.11c.27.47-.37.35-.15.79-.28.05-.24-.58-.19-.68Z"/>
                    <path class="cls-9" d="m149.33,589.91c.65-.08.31.73.74,1.09-.41.04-.44-.85-.74-1.09Z"/>
                    <path class="cls-9" d="m146.95,591.11l.34-.11c-.23.18.41.89-.08.91l-.27-.8Z"/>
                    <path class="cls-9" d="m211.17,577.71c.31-.05.42.45.69.92-.21.02-.19.16-.15.31-.29-.21-.16-.87-.54-1.23Z"/>
                    <path class="cls-9" d="m147.33,600.2c.28.11.34.8.59,1-.43.04-.57-.64-.59-1Z"/>
                    <path class="cls-9" d="m215.21,589.59c.25,0,.42.2.56.45-.39.31-.44-.15-.56-.45Z"/>
                    <path class="cls-9" d="m220.39,599.99c.13.02.29.25.27.03.51.38.68,1.2.71,1.83-.38-.63-.54-1.06-.97-1.86Z"/>
                    <path class="cls-9" d="m219.02,600.79c.38.11.65.51,1.02.66-.68.14-.76-.14-1.02-.66Z"/>
                    <path class="cls-9" d="m220.51,602.32c.12-.07.01-.25-.02-.39.37,0,.51.56.87.58,0,.22-.23.17-.27-.03-.37.22-.26.16-.63.38-.2-.4-.47-.64-.73-.9.03-.21.19-.36.47-.45.5.19-.06.68.31.8Z"/>
                    <path class="cls-9" d="m221.74,602.49c.48-.02.34.48.53.71.31.37.59-.37.18.46-.45-.37-.36-.7-.71-1.17Z"/>
                    <path class="cls-9" d="m157.34,629.3c.77-.18.1.64.62.95-.41.26-.41-.66-.62-.95Z"/>
                    <path class="cls-9" d="m223.1,606.04c.1-.16.52.8.71,1.17-.32-.19-.53-.65-.71-1.17Z"/>
                    <path class="cls-9" d="m223.25,608.65c-.11.3.11.29.25.57-.4.29-.74-.5-.25-.57Z"/>
                    <path class="cls-9" d="m221.85,610.57c.27.12.11.31.41.64-.36.27-.46-.52-.41-.64Z"/>
                    <path class="cls-9" d="m159.27,639.65c-.02.54.3.55.55.97-.34.1-1.18-.67-.55-.97Z"/>
                    <path class="cls-9" d="m211.22,618.01l.33-.14c.39.18.3.69.45,1.05-.25-.34-.59-.43-.79-.91Z"/>
                    <path class="cls-9" d="m217.15,620.86c.21-.06.34.09.42.37-.14.04-.19.11-.17.21-.27.08-.28-.48-.25-.58Z"/>
                    <path class="cls-9" d="m217.85,620.97c.26.12.14.44.46.76-.36.24-.48-.2-.63-.55.14-.04.18-.11.17-.21Z"/>
                    <path class="cls-9" d="m221.64,620.97c.37.27.44.46.89.84-.08.09-.15.19-.12.33-.24.16-.16-.55-.48-.2,0-.41-.14-.41-.29-.97Z"/>
                    <path class="cls-9" d="m211.53,630.25c.58-.31.32.79.83,1.03.52-.17.06-.68-.14-.92.9-.23.12,1.39,1.05.93.05.31.07.61.29.99-.35.29-.35-.39-.52-.61-.24.63-.55-.23-.83.51-.05-.72-.25-1.23-.7-1.93Z"/>
                    <path class="cls-9" d="m165.03,653.36c.6-.36.2.7.77.57-.09.34-.78-.13-.82.52-.6-.26.22-.7.05-1.09Z"/>
                    <path class="cls-9" d="m168.27,656.3c.53.53.35-.61,1.01.45l-.55.25c-.24-.42-.44-.17-.46-.7Z"/>
                    <path class="cls-9" d="m167.69,657.32c.55.62,1.31.48,1.8,1.29.19-.05.13-.2.27-.28-.28-.22-.52-.61-.8-.84.28-.22,1.18-.12.86-1,.87.35-.33,1.31.22,2.16-.47.22-.65.56-.75.95-.4-.14-.81-.25-1.17-.52-.25-.44-.13-.72.08-.95-.41-.17-.26-.28-.52-.82Z"/>
                    <path class="cls-9" d="m171.78,657.25c.49.84-.65.36-.25,1.17-.2-.18-.44-.21-.62-.47.55-.12.38-.55.86-.7Z"/>
                    <path class="cls-9" d="m221.55,638.74c.45.19.31-.04.65-.3.08.21.25.18.33.41-.31-.1-.85.52-.98-.11Z"/>
                    <path class="cls-9" d="m228.24,636.88c.32.1.64.53.05.67-.25-.31.19-.36-.05-.67Z"/>
                    <path class="cls-9" d="m232.14,639.23c.36-.24.73.9.65,1.08.19.25.53.06.81.03-.08.4-.47.69-.71,1.03-.28-.12-.69-1.28-.27-1.12-.2-.36-.45-.62-.48-1.02Z"/>
                    <path class="cls-9" d="m221.25,646.5c.38.06.43.79.33.98-.31-.04-.17-.69-.33-.98Z"/>
                    <path class="cls-9" d="m220.03,651.22c.3.32.65.46.93.84-.58.25-.8-.36-.93-.84Z"/>
                    <path class="cls-9" d="m205.35,659.19l.32-.16c.02.2.42.55.17.65-.31.3-.34-.29-.5-.49Z"/>
                    <path class="cls-9" d="m204.82,660.32c.31-.1.51.14.72.39-.34.13-.16.62-.59.43-.23-.35.2-.43-.12-.82Z"/>
                    <path class="cls-9" d="m175.88,676.89c.35.56.65.6.59,1.24-.15.04-.32-.3-.18-.37-.18-.14-.35-.31-.61-.16-.14-.32-.07-.56.2-.71Z"/>
                    <path class="cls-9" d="m175.46,677.4c-.13,1.05.81,2.12.27,3.1,0-.6-.88-2.43-.27-3.1Z"/>
                    <path class="cls-9" d="m216,659.8c.21.21.61.73.17.93-.14-.34-.03-.59-.17-.93Z"/>
                    <path class="cls-9" d="m179.17,680.16c.36-.08.72-.12.95.29-.29.14-.59.35-.81.25.03-.15-.02-.33-.14-.54Z"/>
                    <path class="cls-9" d="m212.69,663.76c1.08.82,1.33,2.92.66,3.91-.34-.98.12-2.46-.66-3.91Z"/>
                    <path class="cls-9" d="m210.95,670.35c.49-.1.23.48.59.88.24-.1.29-.27.14-.51.48.15.09.78,0,1.04-.28.25-.37-.22-.65.04-.24-.56-.03-.96-.07-1.44Z"/>
                    <path class="cls-9" d="m188.99,685.1c.58.42.51,1.42.61,1.97-.56-.42-.16-1.28-.61-1.97Z"/>
                    <path class="cls-9" d="m199.52,700.34c.2,0,.35,0,.55.01-.07.4.02.91-.49.88-.19-.36-.02-.59-.05-.89Z"/>
                    <path class="cls-9" d="m235.98,396.08l.66-.16c.03.17.06.34.22.32-.19.14-.11.42-.44.48,0-.56-1.31-.73-.42-1.13-.08.13-.08.3-.02.5Z"/>
                    <path class="cls-9" d="m209.49,395.37c-.43.58-1.72,1.15-2.2.99.52-.24,1.42-.64,2.2-.99Z"/>
                    <path class="cls-9" d="m204.01,401.16c.29-.11.52.02.87-.29.04.36.22.85.76.36-.25.38-.65.74-.82,1.12-.15-.49-.95-.5-.3-.96-.29-.25-.41.09-.68.31-.49.12.47-.37.16-.54Z"/>
                    <path class="cls-9" d="m194.66,401.45c.52.51-.46,1.47-.88,1.12,1.17-.63.45-.44.88-1.12Z"/>
                    <path class="cls-9" d="m195.88,406.29c-.24-.3.58-.82.85-.83.06.15-.09.3,0,.46-.21-.18-.43-.21-.85.37Z"/>
                    <path class="cls-9" d="m178.58,415.66c-1.05.92-2.38,2.23-2.87,3.11-1.09-.13-1.65,2.73-2.88,2.16-.4.5.43.6-.05,1.11-.43.3-.87.46-1.3.82.07.59-.61,1.25-1.1,1.16.12-.17-.09-.23-.02-.39.66-.28,1.48-1.65,1.62-2.34-.67.93-1.74,1.98-2.07,2.99.12-.14.24-.38.37-.32-.29.36-.05.55-.34.91-.28-.06-.07-.57-.39-.06-.02.24.1.43-.05.71-.88.65-1.8,1.94-2.05,2.97-1.58.73-1.96,3.99-3.5,3.46-.42,1.23-.97,2.39-1.95,3.25-.11.28.31.27.12.58-1.19.82-1.05,3.02-1.98,4.26-.4-.28.76-1.38.02-1.19-.48,2.23-2.24,3.48-2.76,5.14-.24-.15.13-.68-.23-.76-.14.47-.71,1.38-.76,2.06-.17,0-.29.13-.5-.02-.14,1.19-.97,1.95-1.63,3.09.19.29.56-.23.46.16l-.32.89c-.08-.24-.35-.34-.51,0-.24,1.33-1.19,2.79-1,4.12-.3-.58-.21.36-.24.41l-.23-.07c-1.18,2.13-1.29,7.03-2.24,7.91.34-.19.57.83.04,1.28-.35.04-.16-.35-.39-.4-.77,4.11-1.42,7.56-2.22,11.86.05-.11.06-.3.17-.28-.55,1.97-.86,2.75-.81,4.45-.35,1.47-.5,4.28-.63,5.06.08-.13.34-.83.4-.42-.93,1.53-1.05,2.92-1.23,5.17-.58.14-.64,1.74-.05,1.77.08-.48-.01-.74-.21-.9.17-.18.03-.78.5-.57-.03.75.03,3.11-.41,1.9.37,2.31-.53,2.97-.25,5.02-1.17.35-.28,3.14-.91,2.95.28.55.21,1.39-.28,1.93-.28-1.28-.03-2.17-.29-2.98.03.49,0,.92-.26,1.04.38.67.3,1.32-.04,1.94.53-.03.06.6-.02.74.39.18.1-.48.49-.3.15.98.02,2.14-.31,3.1-.03-.27-.1-.49-.27-.58.21.81-.39,1.75.32,1.9.06-.31-.19-.96.08-1.03.25,1.05.14,1.82-.13,2.5,0-.19-.03-1.06-.15-.58-.09.69.19.88.3,1.31-.81,1.51-.45,2.57-.65,4.15.44.18.36,1.06.44,1.74-.17,0-.26.09-.35.17-.31.06-.12-.56-.5-.41,0,.6.25,1.92-.22,2.82.24.36.65,2.09-.06,2.35-.24-.99-.4-1.89-.19-2.48-.41-.13.08-3.05-.61-2.77.17-.14.37-.25.33-.61-.2-.2-.39-.65-.77-.99.86.02-.44-.86.31-1.05.08-.48-.32-.29-.39-.57.1-.4.39-.59.43-1.06-1.07-3.33-.21-7.16-.32-10.57-.13.76-.11,1.72-.53,2.12-.03-.27.35-.76.02-.91-.12.27-.06.75-.26.91-.19-.82.46-1.36.28-1.66-.08.87-.45-.04-.48,0-.21.3.1.76-.39,1.21.23.03.27-.17.48-.15-.04.31-.33.3-.37.61,1.09,2.12.23,5.31.93,7.74-.61.15-.27.66.03.59-.15.68-.4.79-.67,1.07.83.58.03,2.43.63,3.24-.68.96.24,2.98.19,4,.02-.12.09-.18.23-.17.07.52.25.82-.02,1.18-.33-.32.15-.28.04-.74-.74,1.11.1,2.73-.02,4.25.2.21.31.54.45.83-.31.3-.11,1.1-.05,1.77.36.07.62.29.59.96.74-.84.38-2.17.14-3.09.51.46.51-.35.87.2-.62.48.11,2.73,0,3.35.02-.28-.03-.63.29-.62.05.43.46,1.19.18,1.58,0-.73-.48-.51-.11-1.01-.34.32-.61.7-.71,1.25.38.06.09-.51.56-.36.01.15.12.16.15.27-.31.24.04,1.59-.47,1.23.31,1.03.39,2.6-.25,3.11.45,1.73,1,3.04,1.05,4.8-.17.05-.44.02-.45.22.28.07.38.45.59.63-.41.11.08.38-.16.46-.06-.19-.29-.12-.4-.23.09.32.07.55,0,.72.38.05.06-.51.54-.38.04.35.26.41.36.67-.35.62.57,1.35.29,2.42-.17-.02-.26-.16-.5-.06.13.51.61.41.76.89-.18,0-.24-.2-.4-.22.98.55.31,2.39.37,2.84,0-.16.14-.37.21-.18.17,2.32.76,4.23,1.1,6.34-.13.04-.22-.17-.23.05.29.93,2.71,5.41,1.09,4.83,0,.11.06.27-.05.3-.06-.16-.07-.39-.21-.39-.09.47.45,1.18.64,1.74-.12.17-.3.31-.37.52,1.05.84-.07,1.82.52,2.78-.3.11-.21-.51-.56-.3,1.28,1.19,1.01,3.77,1.8,5.68-.3.12-.07-.8-.48-.46.65,1.35.85,4.16,1.71,5.81-.47-.32-.02.54-.31.66-1.09-.99-.81-2.4-1.78-3.89-.15.12-.64,0-.55.29,1.16.18.97,2.03,1.68,3.05-.17.11.02.45-.39.39.97.87,1.39,2.98,1.46,4.69.62.26.3,1.34.81,1.96-.25-.24-.72-.02-.88-.48.26-.24.62.27.42-.27-.9.06-.82-1.85-1.23-2.13.07.36-.25-.13-.46.13.48.49.29,1.11.81,1.52-.27.4-.29,1.62.23.81-.54.65.3,1.59-.11,2.23-.33-1.5-1.01-1.89-1.35-2.98-.22.75.1,1.05.23,1.69-.16.05-.27,0-.38-.04.49,1.98.98,3.26.66,4.96.14-.02.32-.12.38.03-.23,1.01.44,2.58.74,3.46-.03-.17-.06-.33.15-.34.18.59.48,1.27.04,1.46.13.3.54-.03.61.4-.14.5-.52.82-.57,1.35.31-.56,1.28,1.58.29,1.23.2.85.69,1.19.28,1.97.29.18.6.3.84.61,1.06-.44,1.28-.21,2.1-.54-.48-.62-.79-1.1-.14-1.56-.35-.05-.69-1.11-.48-1.45-1.03-.67-.47-2.21-1-3.64.58-.09,0-.49.38-.85.18.47.41.86.61,1.28-.41-.08-.44.16-.61.48.39.08.49.8.32,1.07.53,0,.02-.62.25-.81.3.48.61,1.05.97,1.44-.55.45-.19,1.42.27,1.95-.18.35-.22.36-.57.18.91,1.06,1.25,2.6,1.08,3.59.95.08.21,1.5.62,1.84,0-.21.07-.38.21-.51.05.43.32.32.38.75-.45.12-.25.63-.3.98.25.05.25-.52.45-.15.25,1.15.3,1.61.91,2.33-.33.24-.69.24-.42,1.03.19-.08.36-.09.5-.03.04-.38-.52-.43-.22-.66.48.69-.07,1.5.89,1.89-.03.23.08.54-.32.55-.04-.27.4-.26.16-.64-.47.35-.7-.33-.88-.73.24.87-.81,1.81.12,1.87.17,1.4,0,2.45.07,3.97-.17.03-.26-.15-.43-.14,0,.78.95.91.29,1.23-.23-.64-.4-1.45-.81-1.64.07.25.07.47-.05.61.07-.68-.48.03-.63-1.11-.4.26-.48-.26-.81-.16-.07.38.15.94-.09,1.22-.68-.91-.81-1.58-.53-2.34.13.17.1.73.34.62-.31-.71.56.32.25-.39-.6-.23-.77-.7-1.13-1.09.55.11-.51-.5.07-.92-.19-.19-.47-.14-.63-.37.37-1.28-.39-3.26-.59-4.39-.07.24.1.63-.28.69-.05-.13-.15-.13-.2-.23.37-.58-.49-1.28.08-1.65-.24-.68-.34-.62-.24-1.1-.29-.04-.51.25-.68-.51.24-.04.34.29.59.25-.3-1.06-1.36-2.82-.97-3.66-2.37-1.15-.76-4.68-2.41-5.73.15-.05.04-.27.15-.34.03.37.19.48.46.3-.23-.68-.18-.67-.24-1.7-.58.39-.19,1.43-.57,1.95-.3-.23-.36-.98-.54-1.47-.28.28.06,1.51.16,1.88,0,0,.39-.04.42.17.03.2-.22.45-.19.65.14.96,1.12,2.09.6,2.77-.09-.49-.33-.66-.61-.69,1,2.15,1.12,3.63,2.05,6.13-.11.04-.17-.06-.27-.06.55.78.44,1.88,1.28,2.68-.17.02-.27-.15-.43-.15.28.53.61.92.95,1.31-.37-.19-.23.57-.5.76.24-.11.4-.01.47.28-.06.35-.33-.07-.3.25.37.64.68,1.4,1.13,1.84-.21.08-.61-.55-.66-.07.87.63.8,3.16.96,3.99,0-.44.5.29.29.49.34.08.18-.65.41-.29-.38.34.23,1.1.07,1.32-.33.35-.22-.43-.47-.28-.07.63-.05,1.33.06,2.07-.91-1.08-.85-3.86-2.29-5.31-.23.21.29.55.38.76-.72.35.09.49-.07.92-1.03-.01-.42-1.46-.9-1.93.04.17.07.33-.14.35-.05-.13-.15-.13-.2-.23-.21-.86-.29-2.49-.92-2.37-.17-.67.43-1.45-.02-1.94.03.76,0,1.49-.48,1.96-.16.04-.39-.94-.41-.46.69.85.75,1.24,1.11,2.16.15-.16-.25-.65.16-.65.1.42.48,1,.13,1.15-.31-.33-.53.41-.25.39-.02-.4.45-.03.54.11-.16.08,0,.36.07.58-.2.06-.34.15-.41.29.13.42.35.59.54.86-.03,1.93,1.94,3.94,2.22,5.64-.04-.08-.08-.15-.16-.09.6.1.52,1.05.85.88-.05.19.04.97.24.95.16-.15-.25-.62-.02-.74.14-.02.23.08.32.18-.17.45,0,.46.3.78l-.19.52c.48.75.58,1.12.97,1.87-.15.06-.27.03-.39,0,.25.3.37.62.24.95-.27-.33-.58-.54-.91-.7.4.5.64,1.47,1.21,1.48-.02-.26-.54-.42-.25-.65.26.36.54.66.85.87-.21.06-.21.23-.07.47-.39-.18-.56.39-.63.69.44-.07.32-.45.68-.56.14.64.23.07.37.31.31.65-.12.9.05,1.48-.41-.02-.65-.53-1.02-.65.21.76.74.64,1,1.26-.29.09-.44-.11-.4.3,1.01.56,1.42,2.32,1.91,3.3.21-.28-.35-.31-.09-.56.17-.03.24.24.37.3-.24.18-.04.6-.52.66.68.58.64,1.5,1.17,2.39-.12.19-.71.65-.19.83-.05-.17-.09-.32.12-.35.32.51.47.89.81,1.78-.75.4-.27,1.45-.46,2.15.27.22.21-.28.38,0-.01,1.55.4,2.31.85,4.16-.53-.76.19.86-.33.44.48.46,1.09,1.41,1.04,1.82-.17-.17.43-.43.44-.19-.09.34-.39.21,0,.6-.43.09-.6.31-.5.66.14.15.43-.16.55.07,0,.47.12.54.11.86-.14-.16-.3-.24-.49-.24.26.39-.14.3-.28.27.07.44.13.87,0,1.21.54-.23.68-.67,1.21-.52-.12-.43.35-.57.55-.84.86,1.85,1.5,4.53,1.36,6.51-.46-.09-.78.05-.93.56,2.41-.15,1.06,3.35,2.63,4.61.69-.1.62-.41,1.26-.72.34,1.04,1,1.01,1.59,1.26.52.67.55,1.04,1.04,1.81-.13.08-.24.16-.11.35.25.3.06-.43.49-.38.44.84,1.6.55,1.73,1.47.48-.52.96-.43,1.26-.43-.14.07.02.41.18.37-.06-.21.16-.06.23.2-.3-.18-.53,1,.02.89,0-.54-.18-1.4.57-1.32-.26-.41-.21-.68-.02-.89.23.07.45.17.67.29.18-.22.19-.5.31-.74.6.4,1.57,1.66,1.11,2.64.38.43,1.58.53,1.03,1.33-.11-.15-.49-.47-.89-.49.23.49,1.21.81.81,1.43-1.19-.69-2.37-2.12-2.8-3.67-.18,1.18,1.1,2.65,2.13,3.68,0,.64.66,1.74,1.32,2.24.06.32-.21.5-.14.82.47.92,2.49,2.55,1.18,3.06.04.52.4-.1.5.21,0,.26,0,.53-.37.63-1.54-.74-2.87-2.2-4.37-3.07-.12.47-.01,1.04-.57,1.33,1.27,2.77,4.35,2.53,5.59,5.37.82-.9,1.81.05,2.43-1.03.09.22.21.37.34.44.8-.55,1.3-1.05,2.17-.75.18-.09-.1-.37.04-.47.19.41.59.12.88.18.11-.15-.21-.48-.02-.6,2.15-1.67,3-3,5.07-5.29.07-1.2.87-2.1.97-3.29.58.1.65-1.02,1.3-.91-.16-.26-.19-.47-.01-.59.1.29.24.44.45.38-.37-.55.39-.46.43-.5.68-.74.89-2.05,1.75-2.75,1,1.1.19,3.01,1.27,3.81-.1.57.17,1.29-.4,1.67-.2-.37-.41-.68-.77-.52-.02,1.02.02,2.08.51,3.31-.88.64.16,2.07.29,3.13-.22.1-.29-.26-.55-.03.77,1.22,1.32,2.95,1.58,4.45-1.05,1.12.6,3.65-.63,4.35.16.63.4,1.3.09,1.75-.62.11-1.13-.18-1.85.33-.42.6.13,1.58-.04,2.28.42-.16,1.13.39,1.04.98-.26.03-.43-.24-.67-.26-.4.79-.99.95-1.45,1.64.24.38.69.91.23,1.24-.17-.18.06-.66-.31-.6.18.39-.21.56-.06.94.72-.36.27.46.37.72.42.22.5-.33.98-.2.84,1.46-.66,3.58.89,4.09.07-.23-.16-.58-.32-.89.51-1.25.64-2.64.76-4.03.16-.04.29.07.49-.1-.27-.38-.61-.49-.87-.91.13-.27.24-.54-.11-1,.74.24.28-.6.67-.79.36.31.38.23.76-.09.12.24.37,0,.46.37.29,1.2.57,2.61,1.26,4.03.45-.88-.02-2.11,0-3.16,1.04-.31,1.1-.9,1.43-1.93-.06-.45-.39.09-.46-.37.9-.9,1.15-2.44,2.6-2.82.68,1.51,1.93.85,2.59,2.41.49-.22.81.18,1.26.1.2-.15.16-.38.24-.57.33-.07.57.15.84.32,1.61-.35.48-1.72,1.53-2.27.81.89,1.42,2.48,2.33,2.96-.14-.5.48-1.05.95-.79,0-.82.82-1.34.77-2.17-1.13-.89-2.32-.21-3.51-1.31,1.32-1.63-.68-4.96-.9-6.2.03.17-.01.31-.2.4-.38-.52-.33-.88-.39-1.28-.39.3-.48-.49-.79-.49,0,.22.03.45-.25.57-.87-1.87-1.98-2.59-3.04-4.39-.14.04-.3.17-.38.04-1.1-2.59-2.44-4.03-3.77-6.27-.14.04-.3.17-.38.04-.04-.59-.35-1.22-.46-1.54.02.1-.03.18-.16.22-.7-1.93-2.45-4.11-1.02-5.23-.04.23.02.35.28.31,0-.42.06-1.2.69-1.06-.42-.55.03-1.25.53-1.12.13-.11.13-.27.38-.32-.09-.42-.02-.29-.33-.43.15-.06.21-.17.27-.27.1.18.18.42.39.26-.48-.76.41-.39.54-.83-.27-.43-.81.02-1-.7.37.16.41-.24.76-.35,0,.09-.05.58.23.48-.13-.31.32-.38.38-.61-.09-.21-.2-.36-.33-.43.6.25-.3-.61.38-.61.08.92.59,1.5,1.18,2.2-.59.65.35,1.93-.24,2.58-.12-.12-.24-.22-.39-.25.04.3-.24.48-.32.73.76,1.23-.92,2.22-.38,3.68.6-.25.9.34,1,.99.54-.26.59.19.72.68.89-.75,1.62.49,2.23-.34-.07.22.07.51.33.42.13-.17-.3-.57.1-.63.17-.06.23.24.33.42,1.1-.61.39-1.95.94-2.78,1.5,1.57.34,3.2,1.37,4.58l-.43.21c.29,1.62,2.07.73,2.42,2.03.95.29,1.82.88,2.58,1.8.09-.17.67.58,1.04.51.93,1.96,2.04-.98,2.86-.98.23-.58.28-1.23.79-1.7.22.43.36.24.38-.04l.22.47c.66-.36.89.04,1.02-.65-.86-1-.9-2.28-.2-3.22.1.18.32-.04.38.24.54-.14-.02-.71.37-.9.23.88-.55,1.37-.41,2.22.26-.25.36.03.6-.15-.08-.23-.24-.2-.33-.41.32.13.22-.4.54-.55-.25-.5-.03-.52-.12-1.09-.21.04-.69-.51-.49-.76.31.75.2-.33.6.14-.3-1.08-.14-1.52-.45-2.08.33.32.71.48,1.2.28-.22-.28.12-.33.16-.51-.48-1.59.33-2.71-.3-4.56.81.18.96,1.41,1.7,2.46.42.03.77.25,1.3-.06-.68-1.21-.56-3.19-1.87-4.22.31-1.09-1.58-2.43-1.98-3.89-.15-.57-.79-1.82-1.64-1.78-.71-1.67-1.91-3.23-2.88-5.31.23-.27.63.15.39-.32-.83-.35-1.07-1.89-1.66-2.34.77,2.03,1.27,3.92,2.24,5.88-.14.1-.09.28-.22.38-.36-1.35-2.78-2.29-1.81-2.43-.19-.06.02-.75-.24-1.16-1.1.15-.52-1.23-.97-1.95-.27.16-.28-.42-.59-.16-.32.18-.11.59-.45.77-1.07-.38-.89-1.39-1.45-2.45.14-.12.12-.23.33-.15-.2-.25-.8-.99-.24-1.16.46.49.05.23.14.64.5.06.61-.29.62-.69.37.26.93-.01,1.23.44-.08-.23-.1-.43.02-.57.28-.02.43.34.75.23-.32-.38-.47-.96-.44-1.63-.58.26-.7-.57-.73-.8.37.01.57.32.57.73.4-.44.35.4.7.11-.04-.54-1.96-1.23-1.23-2.25.27,1.13.98,1.06,1.47,1.59,1.62-.27.58-1.49.78-2.43-.58-.94-.59-2.71-1.3-3.32.02.42.56,1.14,0,1.52-.65-.01-.02-.81-.57-.72.08.58.43.69.07,1.08-.07-.15-.24-.02-.32-.14-.07-.53.02-1.2.37-1.27-.33.18.13-.46-.26-.3-.02.21-.28.32-.45.47.28.56.27,1.01-.1,1.29-.95-.61-.62-1.58-1.62-1.95.2-.2.09-1.04-.23-1.15.1.2,0,.32-.23.38-.26-1.91-.75-2.87-1.27-4.46.51.29.45.6.84,1.04.08-.31-.02-.71.25-.94.4.3.74.54,1.08.38.36.61.94.86.98,1.66.38-.45-.12-.89-.39-1.22.11-.05.09-.15.17-.21.84.31,1.21-.14,2.04-.72,1.61,2.16,1.14,4.69,2.8,6.81.26.91.04,2.07.76,3.27-.28.07-.15.32-.5.36.71.91.78,2.02.72,2.88.8-.23.18,1.1.71,1.35-.14.11-.13.22-.33.15,1.08.58-.06,1.81.78,2.72-.14-.54.78.16.34-.72-.32-.05-.28.49-.44.2.68-.27.13-1.18.54-1.78-.89-.38-.58-1.3-.95-2.22.17-.18.76-.69.3-.83.26.45-.43.08-.6.13-.3-.67-.21-1.43-.37-2.06.6-.01.42.04.52.6.41-.19.26-.27.66-.29-.09-.6-.44-.48-.68-.67.8-.16-.29-1.46-.09-2.04-.23.13-.39.06-.48-.21.18-.02.25.06.33-.14-.98-2.22-2.22-4.1-2.82-6.24-.66-.52-1.84-2.38-.66-2.75-.49-2.66-1.93-4.98-2.62-7.79-.89-.67-1.21-1.83-1.31-2.73.01.13-.35-.15-.29-.43.23-1.04,1.04.28,1.28.99-.28-.59.74-.29,1.05-.28.79,1.2,1.17,2.27,1.91,3.29.07.32-.2.49-.06.84.63.32.18,1.12.52,1.68.2.32.76.37.93.71.18.37-.14.9,0,1.23.09.19.42.45.52.6,0,0-.26.01-.27-.02.15.35.53.39.68.67.03.05-.28.22-.28.25,0,.5.8.77,1.04,1.2-.17.47-.67-.18-.5.35.39-.13.54.39.85.46-.47.59.62,1.28-.05,1.39.54.7,1.41,1.97,1.69,2.71-.04-.14.12-.2.28-.26.36.87.5,1.15.92,1.52-.11.05-.17-.04-.27-.02.63,1.28,1.18,2.36,1.4,3.24.19.05.41.05.59.15-.16.42,0,.44.36.53-.1.32-.58.42-.24.66.14-.53.56.29.74.5-.22.1,0,.38-.34.43-.24.15-.27-.28-.48-.2.36.75.68.6,1.23.42.06-.35-.14-.82-.12-1.19-.72.06-.87-1.35-.75-1.73.07.15.24.02.32.14-.12.07-.32.12-.28.26.97.37.9,1.26,1.21,2.21.32-.46.43.07.87-.11-.39-.91-.83-1.81-1.14-2.65-.06.46-.47-.19-.64-.27.07-.29.1-1.08-.12-1.18.04.14-.12.2-.28.26.28-.7-.22-1.31-.35-2.04.25.75.38.3.73.78-.07-.57-.05-.91-.61-1.11l.33-.14c-.83-.93-.83-2.92-1.79-4.15.12-.07.32-.11.28-.26-.93-1.03-.94-3.11-1.65-3.52.4-.22.8.29.68.67.73-.4-.14-.81-.34-1.08l.22-.09c-.32-.41-.9-.41-1.16-.88-.33-.6.15-1.01-.34-1.75-.43.46-.36-.84-.78-1.03.42,1.28-1.06-1.19-.31-1.48.11.4.42.34.6.56-.29-.62-.02-.38.38-.69-.32-.46-.03-.65-.13-1.02-.33.2-.12.65-.29.92-.06-.16-.15-.23-.25-.3.03-.32.52-.73-.05-.79.2-.07.34-.16.4-.29.98,1.76,1.41,2.37,1.65,4.29.78.9.54,2.29,1.61,3.13-.2.1.09.41-.18.48.94,1.29.45,3.31,1.79,4.14-.12-.33-.44-.75-.13-.9.12.37,1.21,1.82.25,1.8.19.25.38.46.51.87.54-.02-.24-.6.08-.72.27.5.99,1.56.56,2.21.92,2.09,1.76,3.61,1.74,5.25.6-.18-.16.34-.02.56.27.23.49-.35.6-.13.05.12.15.1.21.18.29.4-.09.53-.03.84.37,0,.51.62.71,1.05-.79.46.1,1.06.26,1.53.73,1.93,1.56,4.56,2.3,6.02-.24-1.3-.69-1.57-.65-2.76-1.08-1.16-1.27-3.16-1.98-4.62.28-.11.26-.33.45-.48.22.06.36.36.58.43.04-.55-1.16-1.47-.82-2.51-.39.1-.34-.36-.41-.64-.91-.04-1.61-1.79-1.74-2.51.22-.07.46,1.04.52.59-.15-.34-.31-.7.03-.83.15.17.16.73.41.64,0-.44-.52-1.1.26-1.21-.12-.52-.35.34-.59-.15.07-.06.09-.15.01-.28.44-.37.62-.02.92,0,.07-.64-.39-.47-.58-.43.14-.48.55.12.66-.29-.03-.57-.2-1.11-.32-1.35.03.14-.05.23-.12.32-.02-.23-.53-.34-.25-.57.07.13.12.33.26.3.03-.77-.69-1.69-.34-2.3-.27-.22-.24.35-.49.07-.44-.59.13-.76,0-1.22-.19,0-.51.38-.6.12-.12-.43-.66-1.03-.11-1.17.13.09.48.83.47.48-.49-.55-.44-1.1-1.03-1.19-.07-.52.63-.17.52-.62-.14-.13-.43.16-.54-.04.14-.24.08-1.64-.12-.89-.11-.53-.16-.61-.43-1.3-.17.05-.39.21-.49.07-.43-2.08-1.64-3.53-1.95-5.37-.21.03-.22.29-.33.13-.07-.72-.12-1.31-.73-1.57.15-.07.27-.04.38-.02-.39-.39-.37-1.1-.36-1.59.57.14.41.89,1.18.72-.37-.77-1.43-.76-1.58-1.76-.32-.06-.3.46-.45.18,0-.41-.09-.48-.38-.65.38-.14.29-.5.34-.79-.77-.76-.35-1.93-1.36-2.52-.4-1.95-1.54-4.6-2.54-5.91.24-.2-.13-.69.34-.78-.67-.51-.11-1.13-.8-1.42.04.15.07.29-.14.31-.2-.24-.19-.28-.43-.77.17-.08.39-.13.25-.35-.85-.11-.44-1.3-.51-1.89-.23.05-.17.24-.26.35-.21-.43-.57-1.24-.02-1.55.22.25-.35.58.08.62-.02-.17.2-.22.26-.35-1.07-1.03-1.45-2.85-1.63-3.7-.07-.31-.5-.33-.54-.46-.1-.37.31-.83-.09-1.39.07.1-.05-.17-.16-.46-.04-.11-.69-1.25-.32-1.7.27-.14.47.85.54.46-.18-.4-.36-.5-.31-.93-.56.29-.68-.45-.5-.73.29.31.49.82.92.85-.42-.66-1.37-1.84-.32-2.08-.12.04-.21-.16-.08-.23.44.38.63.11,1.03.43-1.49-1.17-.28-2.89-2.17-3.78.21-.1.3.05.5-.03-.11-.36-.47-.22-.5-.74.22-.04.21-.21.42-.26-.14-.29-.28-.61-.5-.74.21.5.05.79-.3.99-.1-.82-.71-1.04-.34-1.92.02.5.44.24.46.74.24-.2.72-.26.56-.68-.18.03-.41.17-.49.03.54-.08.27-1.64.1-2.29-.47,0-.25.39-.62.44.09-.18.01-.45-.08-.73.35.16.29.09.72-.09,0-.4-.42-.04-.48-.36.44-.12.06-.68.38-.86-.53-.39-.25-.63.06-.64-.44-.35-.38-.55-.84-.75.17-.26.15-.03.46-.13-.26-.46-.19-.43-.12-.84-.18-.14-.41-.19-.59-.33.18-.27-.06-.49.31-.22-.13-1.33-1.57-1.39-1.47-2.08-.87.16-.69-.46-.53-.97-.31-.08-.35.42-.46.13.17-.39.05-.65-.18-1.07.34-.2.41.08.64.07-.26-.2-.15-.63-.31-.66-.02.18-.1.33-.25.44-.08-.27-.3-.29-.32-.66l.35-.09c-.92-.81-.73-2.33-1.38-2.62-.21-.34.23-.32.22-.55-.16.04-.24.12-.31.21-.37-.22.21-1.81-.25-.92-.08-.56.34-.84,0-1.1.03.28-.25.35-.35.09.21.12.39,0,.3-.32-.22-.06-.34-.3-.48-.49.39.23.09-.58-.04-.72,0,.1.05.23-.06.26-.1-.22-.49-.79-.24-1.04.18.03.12.44.34.4.12-.44-.28-.48-.45-.87.66-.35-.79-1.02.06-1.35-.23,1.03,1.4,1.27.6,2.05.66-.14.36.34.68.81.34-.22.32.11.52.11-.03-.55-.2-.3-.34-.4.1-.14-.06-.43.27-.43.05.13.06.33.2.32-.2-.45-.12-.73.16-.89-.41-.54-.18-1.04-.65-2.27-.25-.17-.32.24-.52-.12.19-1.62-1.16-2.75-1.17-3.97-.41-.16-.63.36-.78-.19.1-.32.36-.29.68-.27-.71-.96-.16-1.79-.56-2.9-1.12-.27-.52-2.05-1.4-2.59.26.5.37,1.18.05,1.54-.55-.35-.88-1.67-.07-1.65-.53-.55.28-1.26-.47-1.33.72-.27.47-1.56.09-2.26.06.1.1-.19.04-.48-.35-1.5-.5-3.39-1.32-4.73.18-.04.41-.05.32-.29-.31.04-.62.08-.65-.25.25-.11.43.26.34-.17-.22-.08-.41-.31-.22-.55-.22-.23-.26.19-.38-.06-.02-.22,0-.4.16-.5.19-.02.14.28.4.17-.33-.38-.24-.5-.54-.98-.41.04.08.38-.39.53-1.98-2.26-1.74-5.26-2.31-7.82.29-.16.27.69.4.3-.45-1.07-.84-1.27-.37-2.15-.05-.42-.47-.4-.68-.63.25-.43-.72-1.55,0-2.08-.45-.03-.02-.57-.45-.77.44-.05.32-.24.08-.35.68-.11.09-.64.53-.84-.41-.15-.34-.48-.16-.89-.18-.24-.29.16-.36-.09.26-.57-.4-1.35.4-1.72-.57-.28-.46-1.79.02-2.14-.68-.05-.61-1.33-.3-1.34-.34-.4-.65-.83-.91-1.32.18.08.31.13.49.21.03-2.07-.82-3.74-.14-6.24-.21,0-.31-.09-.35-.22.93-.73-.67-2.53.77-2.51.01-.56-.42-.06-.59-.45.15-1.25-.24-2.18.29-2.85-.32-.71-.19-1.02-.45-1.9.27-.02.12.32.35.35,0-1.04-.23-1.59.45-2.33-.57,0-.35-.6-.77-.71-.1.58-.19,1.31-.88,1.55-.18-.48.51-.63.21-.85-.88,1-.12,1.64-.21,2.93-.16,0-.26-.07-.36-.13-.22.42.06.94.22,1.34-.81,2.09.51,4.67-.5,6.66.52.65.43,1.84.63,2.91-.57-.17-.22-1.3-.79-1.46,0,.56.5,2.82-.36,2.51.32,0,.7-.08.73.21.1.31-.23.24-.22.46.68.19.4,2.07.38,2.72.02-.09.09-.14.23-.12-.22.22.49.94.07,1.36.02-.26-.05-.42-.26-.44-.41.49.5.36.4.89-.28.05-.15-.32-.38-.32.21.95.01,2.68.28,3.51.39.11.08-.37.47-.26-.06.17.17.57-.1.57-.17-.01-.21-.17-.37-.2.03,1.75.55,3.48.6,5.64-.52.35.31,1.67.26,2.31-.06.84.38,2.16.61,3.31.32,1.82.27,3.79,1.15,5.27-.18.04-.41.05-.32.29.18,0,.43-.11.49.04.01.55-.15.98-.5,1.28.26.08.47.22.67.37,0-.21-.44-.52-.12-.7.09.21.38.15.34.54-.67.6-.22.25-.31,1.01-.03-.2-.14-.28-.3-.31.47.47-.03,1.39.44,1.84.09-.64-.07-.81.13-1.34.19.59.13.74.46,1.23-.2.15-.46-.28-.47.08.59.46-.55,1.59.15,2.25-.14-.22.07-.67.17-.39.07.29-.12.39-.13.62.88.3.29,1.28.79,1.77-.11.32-.28.34-.41.44.43.12.73,1.17.73,1.42-.36.13-.18-.51-.45-.51.26,1.15.8,1.46,1.14,1.95.1.26-.31.2-.27.42.47-.3.78.56,1,1.13-.42.05-.61.12-.73.03.11-.15-.08-.55-.28-.68-.15.38-.51-.26-.79-.2,0-.26.13-.29.33-.19-.49-.81-.42-1.95-.81-2.75.14-.01.3.15.35-.07-.39.26-.14-.38-.41-.28-.17.38-.55-.17-.67-.35.19.1.31.07.33-.19-.77-.13-.07-.89-.56-1.1.13-.3.41.16.31-.3l-.47.09c-.12-.52-.39-1.63-.46-1.96,0-.31-.53.43-.51-.15.55-.01-.45-1.26.35-1.51-.58-1.02-.09-1.55-.79-2.39.19-.08.27-.75-.03-.84.12.18-.14.54-.19.27.24-1.8-.54-4.06-.42-5.9,0,.13-.11.2-.21.26l-.05-.46c.16-.03.27.02.37.07-.34-.36.33-1.06.1-1.3-.1.35-.16-.17-.03-.23-.34-.04-.27.01-.52-.29,0,.18.09.42-.07.48-.6-.93-.22-2.44-.28-3.49-.26-.34-.36.44-.6.07.4-.41-.68-.84-.12-1.04.31.07.33,1.17.8.62-.37-.52-1.18-.82-.78-1.56-1.17.22-.81-1.41-1.43-1.87.2-.3.47-1.1.06-1.54-.03.85-.22,1.59-.86,1.97-.03-.14-.02-.34-.16-.34-.12.68.58.37.48,1.02.45-.03.1-.7.52-.76.17.93.33,1.77.16,2.47.06-.39-.41-.12-.41-.43.09-.12.27-.69.04-.71-.65-.1-1.24-1.39-.74-2.18-.72-.29-.11-1.03-.14-1.17-.07.33-.46-.06-.49-.19.55-.03.34-1.21-.15-.57-.03-.48.27-.6.45-.62-.28-.35-.52-.73-.89-.99.3,0,.38.2.47-.15-.18-.27-.24-.06-.37-.21.02-.09.09-.14.23-.13-.88-.37.34-1.43-.08-1.63,0,.14-.02.28-.23.25.03-.53.01-1.1.42-1.3-.55-.15.18-.41.08-.82-.8-.13-.98-2.1-.34-1.96-.32-.38-.7-.62-.3-1.16-.64-.13-.11.79-.43.95-.31-.32-.03-1.28-.32-1.63.32-.3.54-.51.94-.49-.1-.31-.46-.34-.63-.57-.01.14.04.33-.1.35-.47-.42-.31-1.32.44-1.28-.12.28.53.37.47.22-.51-.15-.38-.91-.81-1.13-.19.51.34.35.22.8-.38.15-.49-.11-.73.24.09-.7.06-1.02-.08-1.49.24,0,.14.31.47.23.14-.43-.4-.22-.47-.46.15-.21.19-.52.49-.57-.62-.97-.26-1.66-.29-2.99-.53-.18-.02.69-.38.68-.62-1.3-.46-2.64-1-3.97.17.03.2.2.36.25-.53-.73.09-1.2-.46-1.42.59-1.67.63-5.32,1.42-6.75.07-.86-.56-2.09.36-2.58-.43-.51.16-1.54-.14-1.95-.06.16-.2-.01-.22-.14.82-1.66-.15-2.7.59-4.66-.61-.05-.07,1.44-.92,1.09-.28,1.08-.73,1.35-.91,2.37,0-.13.08-.31-.06-.35-.04.08-.04.22-.16.21.16-.5.11-.86-.18-1.06-.05.82-.13,1.88-.7,2.54-.49-.29.37-1.66.09-1.83-.33.66-.76,1.24-.97,2.06-.34-.43-.08.34-.5.17-.27-.57.09-.79.05-1.16.01.14-.41.34-.38.06.23-.34.1-.38.14-.8.16,0,.27.51.45.18-.22-.48-.59-1.4.05-1.63-.22-.06-.28.09-.49.04.06-.28.12-.55,0-.7l.36.06c-.12-.73-.26-1.1-.58-1.52.18-.36.65-1.69.22-1.98-.28.57.16,1.51-.68,1.78-.23,1.57-.8,3.37-.78,4.38-.02.64-.38,1.52-.37,2.1.03.58.25,1.48-.4,1.75.28-.33-.12-.83.23-1.17-.15-.28-.3.11-.35-.16,1.46-5.64.25-12.4,2.49-18.49-1.03-.25-.23-1.94.3-2.36-.53-.49.42-.97-.06-1.25-.35.19-.36,1.05-.86.96-.18-.13-.72-.08-.65-.33.28-1.43,1.5-1.89,1.23-2.72-.24.71-1.3.97-1.64,2.09.04-.16-.88-.47-.57-.19.83.14-.06.57.29.97-.17.38-.51.39-.87.36-.41-.51.07-1.41-.2-1.97-.48-.14-.81.19-.75.66-1.5,1.5-1.15,4.95-1.99,6.85-.06.24-.36.07-.36.42-.18,1.08,0,2.94-1,3.83.06.8-.2,1.4-.39,2.2.3.1.37.37.22.8-.2-.25-.15-.02-.47-.08.01-.33.06-.68-.08-.9-.19.12-.12.65-.56.4.15-.82-.32-1.2-.26-1.96-.09.23-.38.16-.35.57.58.66.28,1.95,1.16,2.38-.15.26-.69.34-.87.1-.79.84-.46,2.37-1.07,3.25-.44-.06-.35-.52-.6-.73-.23.89-.29-.18-.57-.22.3.73-.07,1.87.05,2.82-1.02,3.07-1.35,6.52-1.59,9.91-.02,3.42.11,6.8-.33,9.85.21,1.82.33,3.74.55,4.97.58.73.93,2.23.62,2.91.34.4.42,2.29.5,2.9-.03-.79-.16.05-.35.15-.08-1.07.07-1.82-.57-2.01.05-.15.11-.3.22-.39.03.1.01.25.13.25.13-.85-.77.22-.86-.47.63-.12-.16-.89.68-.8.08.4-.26.53.15.63,0-1.14-.22-2.2-.37-2.79-.41.45.2,1.33.09,1.91-.15.14-.44.14-.59.28-.26.69.17,1.29-.4,1.69-.49-1.74.33-1.41.24-2.58,0,.07-.09.15-.12,0-.14-.81.04-1.19-.21-1.92.16-.3.88-1.19-.05-1.15.13.5.2,1.11-.3,1.29-.18,1.11.78,1.71.36,2.43-.07-.55-.27-.95-.65-1.13-.05.56.51.4.41,1.01-.17-.02-.21-.2-.37-.24.25.59.51,1.69-.03,1.93-.26-1.06-.37-2.02-.61-2.82.17,0,.46-.04.23-.14h-.24c-.47,1.18.56,1.66-.24,2.47.05-.58-.38-1.09-.07-1.55-.66-.2-.84-1.47-.7-2.18-.78,1.82.74,3.17.94,4.76-.43.13-.47-.89-.86-.35.78,1.74-.21,4.23-.09,5.86-.5-1.51-.74-2.86-.55-4.14.02-.41-.33.35-.37-.11.39-1.08-.11-3.19-.47-4.82.17.05.21.15.36-.01-.91-.77-.3-2.28-.63-3.12-.02.1,0,.26-.11.26.23-1.95.37-4.55-.26-6.42h.48c-.38-2.01-.92-5.07-.13-7.34-.26,0-.37-.13-.32-.42.44-2.84.51-5.92.6-8.97.12-3.05.59-6.02,1.24-8.63-.05.2-.06.46-.31.35,1.05-2.32,1.22-4.47,1.83-6.66.25-.23.6-.27.87-.46-.5-.13-.32.12-.88.05.78-.86,1.11-2.25,1.15-3.4l.35.1c-.23-.93-.1-2.04.45-2.63-.06.14-.22.08-.38.02.11-.69.27-1.25.66-1.19.02-.37.24-.79.7-.89.07-.51-.56-.17-.59-.48,2.1-4.63,4.62-11.06,7.1-16.12-1.29,1.91-2.2,4.02-3.24,6.09-1.03,2.08-1.95,4.23-2.49,6.55-.31-.14-.16.87-.56.5-.48,2.57-2.65,5.41-2.62,7.99-.14-.02-.32-.12-.38.03.47.02.37.4.44.68-.58.13-.31,1.2-1.06,1.65.46.31-.48,1.75-.67,2.04.12.17.4.23.36.5-.45-.03-.12.64-.59.82.43.5-.11,1.1-.04,1.76-.73-.04-.51.83-.64,1.5.12.32.32-.11.33.2-.84,3.29-1.34,6.54-2.15,10.16-.02-.11.02-.26-.09-.28-.13.4.3.29.17.69-.32-.05-.26.19-.48-.06.18.66-.18,1.45-.33,2.11.36.19.31-.18.5-.21-.08.31.19.31.05.67-.24-.03-.12-.38-.45-.31-.22.6.35.48.13,1.08-.56-.13-.2.66-.58,1.02.42.3.42.36.69.33-.14.35-.25.61.04.8l-.36-.03c.08.27.44,1.35-.14,1.46.2-.56-.38-1.18.18-1.85-.98-.02-.07,2.63-1.02,3,.14-2.96.56-5.19.93-8.23-.2-.08-.32.16-.36-.04.09-.23-.07-.8.2-.79.28.19-.34.52.19.56.13-.66.14-1.92.12-2.28-.07.26-.43.81-.65.32.95-2.27,1.09-5.17,1.53-7.25.54-3.04,1.68-5.97,2.75-9.17l.23.06c-.21-1.37.86-2.2.52-3.35.2-.33.4-.65.79-.6.01-.24.4-.7.16-.8-.15.57-.45.81-.89.71.19-.73.95-2.59,1.45-3.36,0-1.34,1.04-3.04,1.02-4.24-.6.61-.46,2.59-1.6,2.31.56-.71.02-1.63.72-2.36-.4-.12-.29-.41.06-.86-.73-.98,1.08-2.51.98-3.77.39-.18.73-.52,1.07-.88-.32-.24-.36.38-.5-.07-.17.19-.21.8-.46.7,1.11-2.78,1.57-4.97,2.86-7.26-1-.52.56-1.42.55-1.94-.8.28.49-1.07.74-1.52.61-1.13.99-2.53,1.19-3.24-.82.25-.53,1.35-1.24,1.9-.22-.18-.37-.39-.3-.68.23,0,.49-.82.12-.93-.26.77-.62,1.02-1.14,1.49.11-.9.04-2.25,1.14-2.68-.1-.8.7-1.53,1.24-2.65-.69-.15.25-1.17.77-1.95-.03-.9-.65-.49-.11-1.52-.41.17-.29.63-.6.66-.29-.56-.61-1.12.05-1.96.12.13.02.32.12.45.39-.67.64-1.58.54-1.82.65-.36.3-.45.56-.89.41-.69,1.54-1.36,1.25-2.08-.57.26-.68,1.13-1.34.87.11-.65.89-.57.58-.89-.54.13-1.09,1.59-1.63,1.23l.58-.71c-.28-.24-.77.41-.76-.2-.09.21-.61.53-.39.67.2-.27.39-.32.58-.14-.25.28-.78.89-1.22,1.38.02-1.33,1.73-3.26,2.6-4.19-.1-.24-.25-.46-.17-.74-.47.55-.93,1.09-.21.63-.33.48-.65.38-.97.41.27-1.22.67-.58,1.19-1.43-.42.37-.72.41-.66-.14Zm15.22,74.92c.41.12.1.38-.05.54-.28-.05-.02-.48.05-.54Zm.64,17.39c.06.14.25.6.41.99-.1-.06-.2-.11-.37-.1.01-.32-.06-.57-.27-.66.02-.12.24-.09.23-.23Zm10.41,43.43c-.2.04-.28.16-.3.31-.26.05-.32-.23-.37-.52.28.14.21-.14.49,0,0-.23-.32-.65.1-.63-.12.19,0,.53.07.83Zm8.04,75.03c.3-.1-.06.27.2.47l-.33.14c-.15-.22-.06-.34-.09-.52.13.03.26.06.22-.1Zm-37.22,30.07c.07.67,1.04,1.15.59,1.53-.32-.24-1.12-1.18-.59-1.53Zm-32.11-129.54c.2.7.33,1.38.26,2.3-.37-.71-.36-1.51-.26-2.3Zm34.49-109.55c.18.15-.15.42.18.54-.26.41-.52.29-.78.76-.1-.1.1-.28.2-.43-.1-.1-.19-.1-.29-.03-.14-.23.52-.81.69-.84Zm-.65,7.64c.12.26-.11.62-.39.99-.24-.25.04-.66.11-1,.1.1.19.09.28.01Zm-1.11,8.28c.15.27-.16,1.49-.64,1.11.39-.45.28-.51.64-1.11Zm-18.39,10.01c.38-.49.04,1.37-.38,1.02.11-.22.43-.76.38-1.02Zm-1.95,3.6c.28-.04-.05.83.23.41.11.16-.23,1.53-.59,1.28.36-.72.28-1.16.36-1.7Zm31.69,34.96c.36.06.21.78.04.92-.42-.23-.08-.75-.04-.92Zm-22.05,2.55c.51,0,.05.58.04.8-.33-.03-.22-.65-.04-.8Zm-.41,15.5c-.47.12-.07-.7-.34-.79-.16.09.05.35-.14.66,1.14,1.35.33,3.88.57,5.81.16,1.58.76,2.91.67,4.06-.12.09-.11.31-.35.28.35.44-.03.99.07,1.58-.38.2-.31-.13-.22.54-.24-.23-.3,0-.6.04-.1-.35.24-.27.34-.42-.2-.18-.34-.42-.62-.49.07-.27.35-.32.45-.56-.05-.27-.34-.24-.38-.51-.38.29.02,1.24-.52,1.63-.1-.65.27-.82.17-1.47-.18.33-.19.82-.3,1.21.48,1.12,1.61.89,1.78,2.14.29-.1.24-.52.32-.81.63.93-.03,1.95.6,2.59-.12.18-.08.5-.32.55.12.36.69,1.12.27,1.29.04.25.41.06.4.36-.68.94.61,2.6.16,3.54.61.59.67,2.15.55,2.71.99.59.88,3.02.45,4.04.16,1,.46.85.56,1.77,0-.28.35-.87.13-.94.45-.04.43.59.55,1.5,0,0-.16-.12-.16-.24.02,1.34,1.81,3.75.58,5.46-.07-.54-.2-.99-.46-1.25.24.27-.07,1.82.69,1.87.13.39-.06.55-.24.7-.28,0-.57.01-.56-.44-.29,0,.17.58-.29.45-.16-.83.05-1.38-.15-2.24-.2.33-.2.89-.06,1.74-.95-1.78-1.26-2.99-1.37-5.1-.54.09-.25.84-.67,1.03,0-1.41-.87-2.25-.72-3.23l.24-.03c.25-.1.25.15.28.36.33-.28-.15-.69-.53-.46-.05-.43-.27-.63-.25-1.17.26-.02.29.3.31.62.46-.46-.26-1.3-.58-1.93-.24-.44.4-.13.31-.44-.29-.48-.68-3.31-.32-3.96-.19-.32-.29-.39-.63-.2-.13-.47-.04-.75.27-.83-.65-.45-.26-1.31-.1-1.98-.06-.47-.36.32-.37-.1-.04-.34.07-.17.22-.15-.05-.49-.56-.35-.47-1.02.31.08.66.11,1.09.03-.05-.29-.51,0-.73-.07-.18-.55.28-.54.26-.95-.49.24-1.42-.57-.59-1.01.13.45-.08.57-.16.81.29-.04.34-.28.6-.05-.41-.61-.12-.68.02-1.33-.28-.03-.65-.33-1.08.09.16-.43.23-.95.42-1.36.31,0,.26.43.28.78.04.23.44-.23.59-.31-.08-.29-.18.17-.37-.11.02-.31.17-.51.08-.93.23-.24.15,0,.48-.03-.39-.81-1.2-.37-1.14-1.25-.15.07-.24.19-.22.41-1.08-1.42.25-3.64-.59-4.77.24-.43.37-.19.09-.67.61-.28.83.28,1.12.75-.25.07-.32-.08-.49-.11-.06.64-.54,1.69.12,2.52-.09-1.19.36-1.96.34-2.94.38.13.32.05.59-.16-.14-.45-.67.38-.84-.1.33-.21-.28-1.1.16-1.73-.05-.18-.21,0-.23.14-.31-.21.33-.49.2-.93-.11.1-.17.25-.22.4-.36-.08.1-.29-.02-.53-.12,0-.08.17-.11.27-.32-.04-.14-.67-.4-.79.23-.21.56-.7.08-.93.52-1.75.65-3.65.69-5.46h.36c-.42-1.28-.12-2.44-.15-3.72.87.97.16,2.56.27,3.99.06.79.52,1.43.31,2.25Zm-.46-10.23c.84.94.04,2.67.25,4-.71-.89-.27-2.95-.25-4Zm-19.87,6.89c.5.49.17,1.06.31,1.92-.28-.38-.61-1.32-.31-1.92Zm21.05,14.67c.31-.06.4.16.38.5l-.36.02-.02-.53Zm-24.63,2.56c.35.3.03,1.06.07,1.48-.3-.25-.12-1.15-.07-1.48Zm23.14-1.01c.02.39-.66.36-.83.19.08-.51.48-.13.83-.19Zm-.1.41c.14.01.11.24.14.39-.35-.09-.3.21-.59.18-.02-.35.32-.36.45-.57Zm-20.83,1.63c.27.1.44.95-.08.89-.11-.44.1-.54.08-.89Zm-.97,4.62c-.02.33-.16.76.11,1.01-.1.37-.86-1.05-.11-1.01Zm26.07-2.11c.42.03.25.61.22.9-.47-.08-.15-.51-.22-.9Zm-27.08,2.79c.49-.06.14,1.13.5,1.27.02.51-.56-.21-.46.19-.11-.35-.04-.96-.04-1.46Zm49.82-2.44c.25.01.27.29.52.3-.03.19-.36.14-.19.49-.34.02-.27-.46-.33-.79Zm-.1,1.19c.1.5.39.91.29,1.5-.51-.13-.28-1.1-.29-1.5Zm3.02.03c-.22.32.19.64-.03.82-.43.12-.43-.96.03-.82Zm-2.61.39c.29.03.55.4.32.67-.19-.16-.5-.46-.32-.67Zm.09,1.88c.28.22.49.51.34.9-.26.05-.1-.41-.18-.57-.26.01,0,.42-.05.6-.4-.27-.15-.52-.11-.93Zm1.15,3.75c.6.03.08.94.37,1.13-.49-.2-.13-.65-.37-1.13Zm-.42.53c.25.1.24.88.12,1.05-.28.09,0-.54-.4-.3.15-.21.2-.49.28-.75Zm-22.91,3.56c.6.98.74,1.49,1.13,2.6-.24-.02-.11-.59-.54-.31-.1-.94-.47-1.46-.58-2.28Zm23.47-2.82c.17.21.85,1.14.22,1.52.22-.46-.19-1.04-.22-1.52Zm-.89.72c.3,0,.61.32.45.54-.22-.08-.46-.16-.45-.54Zm.57.52c.26.38.26,1.14.43,1.74-.65-.14-.09-1.2-.8-1.09-.09-.24.03-.32.04-.49.15.18.51.35.34-.17Zm-48.11,10.38c.37-.21.26.41.36.66-.39.17-.51-.42-.36-.66Zm48.51-7.42c.38.87.43,2.11.97,3.46.49-.18-.21-.55.09-.86.4-.03.3.64.42,1.01-.39.31-.61-.07-1.06.19-.19-1.45-.7-2.39-.42-3.8Zm-23.95,6.5c.58-.08.6.7.72,1.34-.61.01-.66-.84-.72-1.34Zm1.23,1.51c.59-.09.37,2.02.21.49-.11-.1-.18-.27-.21-.49Zm24.23-2.83c.43-.18.25.53.38.78-.37-.11-.19-.29-.38-.78Zm-.19,1c.32-.02.45.23.57.5-.12-.07-.29-.08-.49-.03l-.08-.47Zm1.78,2.56c.11.01.47.36.2.44.02.11.16.06.26.07-.04.36-.15.17-.45.21-.15-.34.14-.38,0-.72Zm.08,1.19c.12.05.23.1.24-.05.26-.07.12.4.23.56-.23-.07-.45-.14-.46-.51Zm1.69,2.59c.43.02.08.48.43.77-.42.19-.28-.52-.43-.77Zm4.07-.5c-.03.47-.06.95-.75,1.01.29-.31.25-.83.75-1.01Zm-3.35.96c.22.13.57.7.5.02.54.05.23.73.39,1.14-.49-.3-.51-.53-.88-1.15Zm-51.42,11.91c.29.19.21-.15.5.03-.05.93,0,1.16.21,1.98-.48-.2-.48-1.32-.71-2.01Zm54.19-11.65c.47-.24.72.83.19.81,0-.44-.4-.5-.19-.81Zm-2.76.84c.36-.07.45.7.34.91-.28-.24-.1-.45-.34-.91Zm-50.78,13.12c.4-.23.38.67.31.8-.25-.06-.45-.53-.31-.8Zm52.39-11.52c.34-.1.51.32.37.53-.2-.06-.32-.23-.37-.53Zm1.48,2.1c.1.79.74,1.3.69,1.91-.34.17-.39-.12-.73.05.17-.23-.21-.79.31-.81-.46-.07-.2-.74-.27-1.16Zm-.06.26c-.15.24-.66.25-.66-.21.78.19-.18-.5.45-.72.01.5.07.4.22.93Zm2.51.74c.41.23.2.42.19.8-.41-.23-.21-.42-.19-.8Zm-54.57,22.22c.18-.09.23.07.38.04.15.43-.04.63.19,1.11-.38.04-.68-.81-.57-1.15Zm54.33-13.32c.48.17.15.75.73.8.09.62-.1.91.37,1.27l-.58.16c-.03-.68-.55-1.43-.52-2.24Zm-53.57,15.57c-.05.54.2.65.19,1.11-.39.06-.64-1.07-.19-1.11Zm54.47-13.32c.69.22.91,1.16.61,1.71.67.29,1.19.6.96,1.6-.42-.2-.22-1.13-1.17-1.04-.09-1.02-.5-1.75-.4-2.27Zm-1.44.65c.34-.09.46.58.35.78-.33.02-.54-.19-.66-.57.17-.03.33-.07.31-.21Zm.07,1.11c.44-.04.11.47.38.9-.21.04-.2.21-.43.25-.02-.4-.06-.82.05-1.15Zm-54.49,16.77c.29.23.38.56.38.92-.49,0-.15-.46-.38-.92Zm58.05-16.52c.26-.06.19.48.31.66-.32-.18-.24.1-.13.41-.51,0-.14-.73-.18-1.07Zm-1.57,1.07l.35-.1.17.58c-.34.14-.35-.31-.51-.48Zm-56.37,16.74c.24.07.38.35.46.75-.29,0-.63-.38-.46-.75Zm1.84-.1c.22-.05.05.53.08.71-.5-.01-.23-.51-.08-.71Zm.77.94c.3-.07.36.38.46.74-.36.15-.59-.47-.46-.74Zm.04,1.45c-.02-.16.09-.11.12-.03.31-.05-.06-.55.34-.54.05.34.29.23.31.64-.09.09-.17.18-.15.34-.3.08-.32-.48-.61-.4Zm56.68-16.13c-.13.06-.04.24-.02.38-.18.17-.48-.23-.46.14-.21-.06.24-.58.41-.75.16.4.4.19.31.66-.17.01-.18-.26-.25-.43Zm-58.89,17.98c.37-.15.73.59.19.68-.2-.13-.29-.46-.19-.68Zm2.45-.6c.34-.17.41.27.69.23-.03.2-.18.33-.38.41-.14-.13-.25-.31-.31-.64Zm56.09-15.14c.11.03.22.06.38.01,0,.14-.12.35-.2.19-.1.11-.04.3-.28.34.04-.13.08-.25-.06-.23,0-.13.2-.15.16-.3Zm.69.67c-.42.21-.45.24-.84.13.19-.25.69-.61.84-.13Zm-57.03,18.38c.14-.02.2-.1.19-.21.33.23-.18.33.24.81-.21.01-.18.17-.14.34-.38-.17.18-.6-.29-.94Zm53.7-15.19c.85.71,1.36,2.91,1.87,3.66-.83-.11-1.36-2.49-1.87-3.66Zm1.23,1.03l.34-.11c.11.28.21.55.12.73-.3.08-.36-.32-.46-.62Zm.62.7l.34-.11c.03.24.13.51-.18.57l-.16-.47Zm2.02,0c.14-.02.1.1.04.12.66.23-.27.19-.07.54-.17.01-.19-.26-.27-.43.17-.04.33-.08.3-.23Zm-1.65,2.98c.4-.11.42.57.66.82-.57.02-.31-.52-.66-.82Zm-55.97,24.05c.23.13.55.58.43.89-.27.03-.27-.64-.43-.89Zm59.57-7.43c-.41,1.24-1.15.77-1.53-.63-.13.16-.02.43,0,.66-.33.19-.29-.5-.56-.46-.03-.17.25-.2.4-.28-.54-1.09-.66-1.15-1.15-2.37.38-.31-.2-.6.18-.98-.21-.28-.13.45-.45.16-.18-.86.15-.89-.33-1.72-.33.09.4.72-.14.71,0-.6-.25-.99-.59-1.37.25-.13.44-.13.61-.08-.07-.32-.29-.33-.57-.19-.32-.55-.03-.79.14-1.1,1.05.33.89,2.74,1.75,3.31.15,1.5.75,2.72,1.17,4.2.2-.09-.08-.42.05-.55.36-.11.49.63.16.74.35.24.46.23.88-.06Zm-60.68,13.19c.28,0,.59.49.5.72-.24-.05-.39-.33-.5-.72Zm-.66.68c.4-.26.65.49.18.54l-.18-.54Zm8.37-2.99c.29.17.75,1.35.06,1.31.17-.53.01-.82-.06-1.31Zm-7.17,3.16c.77.56.6,1.98,1.01,2.63-.22-.18-.49-.23-.81-.16-.21-.68.05-1.34-.36-1.82.12-.18.4-.26.16-.66Zm55.42-18.94c.29,0,.27.64.43.9-.62-.02-.3-.4-.43-.9Zm-50.66,18.42c.14.07.3.05.5-.03.22.38-.22.37,0,.74-.29.09-.37-.36-.49-.71Zm1.15.03l.34-.12c.49.55.24,1.02.36,1.79-.48-.42-.26-1.11-.7-1.67Zm.82,1.63c.75.96.42,2.06,1.23,3.22-.32-.03-.26.05-.72.12.13-.73-.12-2.06-.68-2.11-.06-.24.08-.37.35-.42-.24-.34-.22-.08-.5.04-.09-.39.37-.48.32-.85Zm48.51-17.24c.5-.19.07.37.38.66-.34-.06-.36-.33-.38-.66Zm-2.71,2.32c1,1.14,1.47,3.33,1.93,4.67.23.25.46-.28.31-.52.36,0,.16.51.27.71-.2.09-.29-.05-.49.05-.23.15.18.6.2.87-1.71-1.19-1.49-3.14-2.52-5.53.16-.05.32-.1.29-.24Zm6.62-2.16c.23.05.31.45.49.61-.21.06-.18.23-.4.28-.29-.42.2-.47-.09-.89Zm-51.65,20.77c.44-.15.62.41.84.86-.19.09-.3-.07-.5.04.15-.38-.23-.49-.35-.9Zm51.4-17.75c.28-.06.49.03.83-.18.16.67.02,1.04.07,1.84-.64-.2-.44-1.02-.9-1.66Zm3.41,2.84l-.22-.58c1.08,1.75,2.22,4.23,2.59,6.72.08.11.25,0,.31.14.07.28.05.53.04.78-.36.11-.41-.5-.58-.84-.16.05-.32.11-.29.25-.66-1.05-1.15-3.19-2.44-4.66-.02-.42-.02-.83.2-1.14-.23-.3-.33.21-.56.21-.2-.26.23-.7-.16-.74-.03-.38.12-.19.4-.29-.4-.52-.7-.9-.76-1.31-.42.02-.03.43,0,.67-.53-.22-.7-1.09-.58-1.51.4-.25.95.27.74-.41.59.36.33,1.98.92,2.04-.07-.98-1.07-2.4-.56-3.11.97,1.05.71,2.33,1.39,3.59l-.45.17Zm-5.52-1.65c.31-.11.64.07.52.34-.28.15-.38-.14-.52-.34Zm1.13.92c-.1,0-.16-.08-.27-.03.56,1.49.78,1.59,1.46,2.79-.98.91-1.75-1.91-2.14-2.54.11-.6.53-.86.94-.22Zm1.95.06c.29-.02.45.27.74.25-.28.28.38,1-.05,1.22.13-.63-.71-.78-.69-1.47Zm-3.1,6.29c-.11.05-.03.18-.02.28-.17.04-.17-.34-.36-.27-.21.22.24.76.3,1.1-.71-.29-1.02-1.56-1.49-1.86.17-.27.58-.32.67-.26.34-.25-.09-.27.04-.56-.27-.27-.09.46-.47.45-.36-.9-.29-1.16-.81-1.45.02-.44.19-.05-.16-.75.76-.35.45.69.86.89.32-.57-1.01-1.37-.25-1.66.45,1.51,1.98,3.04,1.79,4.98-.32-.16.14-.5-.09-.91Zm3.02-4.52c-.13-.42.53.13.4-.29.39-.02.1.41.07.51-.25.14-.26-.29-.47-.22Zm.63.3c.6.76,1.18,2.78.45,2.5.25-.77-.55-1.38-.45-2.5Zm-8.19,5.45c-.03-.2.24.03.18-.21.6.04.41,1,.55,1.42-.64.08-.28-1.12-.73-1.22Zm.46,1.19l.23.59c-.13-.04-.25-.07-.22.09-.17.04-.17-.34-.36-.27-.05-.22.09-.35.36-.41Zm8.76-3.96c.59.66.94,2.49,1.7,3.75-1.18-.46-1.07-2.05-1.75-3.2.38-.01.1-.34.04-.55Zm-8.17,7.83c-.1.35.56.94.12,1.32.19.22.44.29.54.74-.21.16-.23.48-.51.34-.14-.26.27-.26.2-.49-.14-.26-.41-.16-.33.14-.67-1.13-.92-1.71-1.1-2.86.2.23.69.36.54.74.69-.26.08-.67-.21-.88.12-.08.27-.63.35-.41.35-.16.23.59.59.86.2-.45-.59-1.34-.48-1.59-.24.18-.48.47-.65-.02.8-.24.72-.89.55-1.58.13.05.3.03.49-.06.11,1.44,1.89,3.8,2.3,5.64-.19.1-.29-.05-.49.06.2.36.58.25.76.65l-.44.18c.07.22.23.19.29.43.17.24.12-.21.38-.02l.23.59c-.14.03-.19.11-.18.21-.32-.13-.71-.08-.88-.6-.06.13-.2.23-.4.3.12-.37-.46-.58-.25-1-.13-.13-.32-.12-.54-.06-.24-1.03-.4-1.62-.89-2.66Zm10.99-3.85c-.32.24-.42-.05-.65-.01-.12-.71-.26-.84-.47-1.56-.28.87-.93-1.32-.63-1.63.9.92.89,2.65,1.75,3.19Zm.27-.64c.27-.07.26.48.22.58-.43.06-.29-.35-.22-.58Zm-.73,1.1c.38-.24.56-.01.67.4-.27.21-.31-.14-.54-.05.03,1.06.74,1.87.07,2.53-.14-.88-.53-1.09-1.01-1.61.05-.2.21-.35.16-.6.33.07.28.22.34.54.39-.27.48-.67.31-1.2Zm1.54,3.67c.28-.01.4.67.01.67-.13-.07-.24-.21-.3-.42.16-.05.32-.11.29-.25Zm-56.83,26.69c.59.12.18.69.38,1.19-.28.19-.21-.73-.49-.54-.18-.32.39-.28.11-.65Zm3.07,3.51c.48.66.35,1.55,1.15,2.07.22.44-.41.47-.11.95-.15.21-.53-.22-.44.19-.56-.52-.73-.95-1.1-1.64.07-.23.34-.34.55-.24-.04-.46-.19-.96-.05-1.33Zm54.68-20.77c.25-.09.26.47.41.65-.3.13-.5-.43-.41-.65Zm2.29-.43c.27-.06.29.55.46.76-.65.22-.19-.35-.46-.76Zm.57,4.96c.04-.42.51.09.58.43-.49.35-.4-.5-.58-.43Zm-46.66,25.15c.33.34.56.92.87.51.53.88-.66,1.83-1.42,1.24.08-.63-.18-1.42.55-1.75Zm38.59-12.07c.32-.21.47.09.6.43-.2.07-.16.25-.38.32-.15-.28-.28-.55-.22-.75Zm-31.74,24.35c.47-.34.67.26,1,.43.89-.35.89-.94,1.68-.65.27.44.06.67.08,1.01-.88.56-.91.5-1.85.58-.26-.28-.4-.99-.84-.65.03-.21-.11-.5-.07-.72Zm21.88-9.3c.27-.06.38.59.34.71-.18,0-.32-.16-.44-.37.21-.04.16-.19.1-.34Zm-19.48,11.02c.12.21-.01.32.12.54-.26.25-.36-.04-.6.14.11-.24.09-.55.48-.68Zm35.66-16.38c.37-.27.68.75.22.75-.34-.13-.19-.47-.22-.75Zm.53,5.6l.11.23c-.36.15-.39.53-.65.03.38-.1.23-.38.54-.26Z"/>
                    <path class="cls-9" d="m142.35,530.21c.2-.71-.16-1.53-.38-2.3.57.06-.21-.36.19-.46.49.27.13,2.24.78,2.69.16-.07.06-.38.05-.59.27-.21.18,1.22-.22,1.2-.06-.57-.03-.85-.42-.53Z"/>
                    <path class="cls-9" d="m198.84,525.68c.03.22.34.1.29.42-.14.52-.04,1.15.5,1.45-.02.25-.14.27-.34.17.62,1.28.5,2.33,1.34,3.43-.5-.22-.09,1.17.26.78-.08,1.61.49,4,1.53,5.24-.27-.53-.01-1.62-.59-2,.56.17,0-.51-.22-.55l.35-.06c-.99-4.88-2.13-10.26-2.29-14.45-.47-.42-.06-2.01-1-2.39.19-.65.27-.87-.05-1.47.7.19-.02-.69.53-.62-.32-.5.18-1.14-.28-1.34-.04.7.35,1.12-.2,1.38.06-.67-.34-1.35.15-1.83-.2-.5-.66-1.42-.21-1.86-.55-.02.08-.6-.28-.86-.21-.03-.3.18-.36.02-.27-.42.22-.98-.06-1.32,0,.13-.02.26-.23.23-.1-.33.19-.34.09-.67-.4-.02-.18.49-.33.68.39.21.47,1.47.2,1.65-.22-.36-.52-.47-.16-.88-.33-.06-.23.24-.47.25.02.37.41.35.4.75-.32-.05-.47-.29-.74-.39-.01.4.49.27.51.63-.22.12-.41-.31-.48.03.36.2-.13.59-.2.8.69-.13-.04.56.39.75-.17-.33.31-.66.46-.37-.4.29-.12.47-.29.92-.12,0-.13.1-.23.13-.07-.53-.7-.4-.13-.1-.04.67-.1,1.45-.13,1.96.04-.14.1-.27.2-.36.12.68-.37.61.2.67.08.48-.49.45-.64.75.42-.15.16.5.53.41.03-.22-.24-.67.17-.59,0,.75.02.84.29,1.46-.23,0-.25.16-.46.16.13-.36.08-.84-.34-.88-.08.66.22.96.64,1.31-.36.33-.03.72.2.67-.15.35-.43.19-.71.08.19.65.23.87-.08,1.39-.05-.16-.28-.1-.38-.19.35.42.21.5-.02.93.44.35.94,1.78.53,2.59.53.39.42.83.69,1.87.54.08-.07-.68.28-.73.4.09.84.83.42,1.22-.28.09-.03-.53-.42-.29.61,1.27,1.07-.4,1.2-.98Zm-1.6-11.84l.36-.03c.18.34-.16.29-.18.47-.17-.02-.13-.28-.17-.44Zm-.37.95c.44.35,1.06.79.65,1.43l-.48.04c-.1-.2.29-.5-.07-.57.07-.39.25.11.37.08.26-.31-.61-.4-.48-.99Zm.75,5.43c.35.22.49,1.18.03,1.37,0-.45-.23-1.07-.03-1.37Zm-.76.78c.32.09.3.58.35.99-.45-.12-.41-.55-.35-.99Zm.82.82c.19.12.27.36.32.65-.44.15-.48-.46-.32-.65Zm-.9.57c.31-.07.41.11.41.41-.31.07-.41-.11-.41-.41Zm.99.22c.8.12.07,1.47-.34,1.31.32-.43.41-.81.34-1.31Zm.59.96c.11-.18.1.47.22.89-.52-.07-.4-.6-.22-.89Zm-1.26.62c.29-.16.61.27.71-.09.03.53-.05.66-.07,1.51-.47-.15-.62-.7-.64-1.41Z"/>
                    <path class="cls-9" d="m181.82,418.89c-.06.23-.42,1.33-.85,1.04.5-.4.44-.49.85-1.04Z"/>
                    <path class="cls-9" d="m208.4,442.88c.06.17-.87.72-.76,1.1-.49-.05.51-1.05.76-1.1Z"/>
                    <path class="cls-9" d="m179.47,431.98c0,.29.12.51-.15.89-.27-.17-.44.24-.72.05.44-.2.65-.35.87-.94Z"/>
                    <path class="cls-9" d="m182.15,441.21c.17-.43.53-.07.7-.5.19.22-.29.75-.53.45-.03.16,0,.3.19.4-.38.37-.38-.09-.36-.34Z"/>
                    <path class="cls-9" d="m183.12,456.47c.33.13.33.41.4.66-.92,1.55.11-.1-.4-.66Z"/>
                    <path class="cls-9" d="m186.18,458.23c.11-.14.13.1.34.13-.24.32-.47.68-.73.97-.3-.38.72-.66.39-1.1Z"/>
                    <path class="cls-9" d="m205.26,467.26c.02-.11-.18-.14-.31-.2.15-.57,1.06-.66.85-1.33-.26-.06-.16.45-.41.43-.15-.3.23-.31.13-.73.42.1.29.07.7.17-.12.76-.29.6-.54,1.53-.3-.39-.34.41-.49.31.46.12.26.45-.18.51.03.28.35-.02.42.24-.36.2-.18,1.02-.65.73-.02.1-.08.14-.18.13.04.24.57,0,.36.4-.29-.41-.38.11-.55.22-.58-.71.4-1.62.29-2.3.15-.08.36-.07.55-.1Z"/>
                    <path class="cls-9" d="m193.13,460.91c.31,0-.44.68-.51,1.07-.23-.43.37-.76.51-1.07Z"/>
                    <path class="cls-9" d="m184.69,459.56c.16.21-.43.53-.47.96-.33-.06.31-.57-.03-.63.17-.11.38-.11.5-.33Z"/>
                    <path class="cls-9" d="m176.88,467.89c.02.34-.12.83-.35,1.32,0-.32.06-.94.35-1.32Z"/>
                    <path class="cls-9" d="m191.86,476.59c.25.16.18.74.07,1-.16-.25-.01-.69-.07-1Z"/>
                    <path class="cls-9" d="m194.49,480.31c.2.22-.08.73.35.8-.33.25-.65-.64-.35-.8Z"/>
                    <path class="cls-9" d="m200.74,483.52c.45.2.86-.32.62-.7.46.22.09,1.13.48,1.66-.14-.39-.66-.5-.42-.67.01-.23-.52-.14-.49.03-.18-.05.01-.3-.19-.33Z"/>
                    <path class="cls-9" d="m143.43,480.44c.39,1.33-.61,3.43.14,4.61-.32.1-.28.74-.67.72.46-1.48-.16-2.11.43-3.18-.39-.5.02-1.6.09-2.14Z"/>
                    <path class="cls-9" d="m191.11,485.95c-.35.06-.15.15-.16.43-.23.38.07-.44-.34-.26,0-.32.04-.6.41-.51.01.1-.06.1-.13.1.08.11.2.19.34.26-.03.12-.13.05-.12-.01Z"/>
                    <path class="cls-9" d="m190.9,489.37c-.07.21-.09.47-.4.41.18-.48-.15-.56-.15-.9-.12,0-.11.13-.14.21-.62-.61.03-1.68.47-2.41.24.06.3.25.45.38-.76.04-.44,1.86-.22,2.31Z"/>
                    <path class="cls-9" d="m198.33,491.12c-.03.24.18.32.06.63-.17-.09-.29-.15-.46-.24.37,1.58-.66,4.06.19,5.77-.79.55.53,1.29-.27,1.6.37-.07.23-.07.6,0-.41-.74-.01-1.87.64-1.9-.65.03.71.2.11.53.27.15.46-.26.48.01-.18.19-.39.36-.61.52.04.25.14.44.23.64-.14.01-.34-.02-.36.1.7-.08.16.55.1.75.43-.19.39-.79.86-.94-.4-.1-.06-.2-.11-.53.14-.01.34.03.36-.1-.13-.09.27-.47-.1-.74-.07.22-.19.22-.36.1.2-.51-.15-1.14.39-1.68-.67-.08-.34-.46-.23-.86-.18-.03-.44.02-.48-.13.04-.22.32-.2.48-.29-.03.18.22.64.35.33-.34-.03.12-.72-.23-.75.02.23-.1.33-.36.3.31-.24-.25-.24-.11-.64-.31-.06-.66-.09-.84-.26.62-.22-.24-.61-.22-.97.3-.26.64-.48,1.14-.54-.05-.32.06-.42-.07-.52-.05.21-.34.18-.51.27-.2-.65-.05-.87.15-1.53-.32-.16-.47-.37-.3-.65-.39.29.14,1.52-.53,1.72Zm.06,4.13c.02-.13.22-.08.36-.09.1.13.15.29.11.54-.51.15.04-.59-.47-.44Z"/>
                    <path class="cls-9" d="m143.32,486.41c.32-.22-.3.7-.24,1.21-.31-.21-.23-.84-.23-1.39.15.21.27.77.46.18Z"/>
                    <path class="cls-9" d="m190.04,492.54c0-.23-.33-.16-.23-.47.24-.1.51-.17.62-.41.13.04.06.22.22.23-.61.15-.18.78-.97.85.05-.14.16-.22.36-.21Z"/>
                    <path class="cls-9" d="m190.04,492.88c.4-.06.18.23,0,.23-.01.16-.02.32.11.35-.12.27-.47-.17-.47-.36.24.05.38,0,.36-.21Z"/>
                    <path class="cls-9" d="m141.14,490.99c.02.17.12.09.12,0,.27.36-.05,1.42.19,1.82-.07.01-.91-2.1-.18-2.12.01.17-.03.27-.13.3Z"/>
                    <path class="cls-9" d="m140.85,493.1c-.3-.21-.52.81-.75,1.19.36-.03.15,1.59.17,2.73-.36-.55-.59-3.45.22-3.78.11-.83.04-.91.16-1.66.42,1.06.31,3.37.25,4.39-.37-.26-.01-2.11-.05-2.87Z"/>
                    <path class="cls-9" d="m189.95,497.41c.19-.44.14.02.48.01v.56c-.25-.23-.25.05-.49.1-.03.36.67.06.47.57-.27.06-.17-.22-.36-.23.28.39.27.86-.03,1.24-.34-.18-.14-.42.01-.68-.21-.1-.32-.29-.59-.35.1-.1.13-.26.13-.45.14.02.1.21.11.34.03-.2.66-.99.26-1.13Z"/>
                    <path class="cls-9" d="m140.85,497.63c-.17.15-.25.4-.37.6-.16-.05-.09-.38-.11-.61.17.22.38.12.37-.3.14.37.6.35.58.91-.48.19-.3-.41-.47-.61Z"/>
                    <path class="cls-9" d="m141.77,499.44c.33.35-.14.85.09,1.2-.43-.12-.11-.88-.09-1.2Z"/>
                    <path class="cls-9" d="m190.13,500.13c.03.26-.04.43-.25.45.09.33.18.13.48.11v.45c-.37-.57-.22.2-.62.23.22-.48-.18-1,.39-1.25Z"/>
                    <path class="cls-9" d="m190.1,502.96c.07-.44-.22-.73-.01-.91.16.04.18.2.35.22-.18.28-.22,1.05-.7.7.04-.17.16.04.36,0Z"/>
                    <path class="cls-9" d="m170.61,504.46c-.36.06-.49-1.56-.28-.89,0,.4.4.36.28.89Z"/>
                    <path class="cls-9" d="m170.13,504.47c.35.28.03.92.06,1.29-.3-.23.13-.76-.06-1.29Z"/>
                    <path class="cls-9" d="m188.95,506.35c.18-.1.16-.37.46-.37.09.82.01,1.12.21,1.73-.29-.24-.32-.09-.61-.21l-.02-.35c.14.01.11.21.14.34.42-.12.2-1.12-.18-1.16Z"/>
                    <path class="cls-9" d="m192.52,508.05c.17.37-.14.77.07,1.37-.34-.35-.22-.91-.07-1.37Z"/>
                    <path class="cls-9" d="m197.5,509.05c-.11-.34.41-.16.21-.56.33.09.33.51.75.51-.39.33-.54-.51-.96.05Z"/>
                    <path class="cls-9" d="m191.62,509.36c-.23.24-.17.73-.31,1.05h.24c-.41.52-.48-1.11.07-1.05Z"/>
                    <path class="cls-9" d="m195.9,510.92c.25-.06.32.06.48.08-.05.26-.82.25-.45.7-.1.35-.21-.23-.37-.2.13-.18.38-.26.33-.58Z"/>
                    <path class="cls-9" d="m191.36,511.44c.51.12,0,.75-.07,1.04-.1-.05-.2-.1-.37-.09.31.44-.25.33-.33.72.04.12.24.06.25.21.07.36-.08.52-.46.5.17-.61.13-.53-.05-1.15l.36-.03c-.05-.27,0-.44.09-.58-.3.08-.41.18-.6-.07-.29-.03.09.52-.34.37l.33-.72c.18.5.41.19.84.06-.21.23,0,.29.03.57.48.04.32-.46.32-.83Z"/>
                    <path class="cls-9" d="m196.41,511.56c-.14.3-.25.35-.09.68-.21.01-.31.1-.35.25,0,0,.04-.89.44-.93Z"/>
                    <path class="cls-9" d="m190.98,513.66c.44.31-.21.62-.44.73.09.11.29.1.28.33-.85-.2.08-.66.15-1.06Z"/>
                    <path class="cls-9" d="m137.86,526.78c.17.26.04,1.35.09,1.93-.3-.39-.11-1.42-.09-1.93Z"/>
                    <path class="cls-9" d="m166.56,525.39c.02-.26-.13-.46-.15-.25-.17-.68.14-.84.58-.2.03.13-.48.33-.08.41-.03.2-.16-.03-.36.04Z"/>
                    <path class="cls-9" d="m167.07,529.84c.14,0,.08.12.01.13.16.14.35.19.33.62-.3-.03-.57-.43-.34-.75Z"/>
                    <path class="cls-9" d="m138.91,534.69c.46.34.25.88.24,1.43-.24-.14-.02-.9-.24-1.43Z"/>
                    <path class="cls-9" d="m140.71,550.77l-.05-.29c.1,0,.1-.08.09-.17.22.36.51.57.68,1.05-.38.12-.21-.59-.72-.59Z"/>
                    <path class="cls-9" d="m142.36,556c-.36-.2-.06-1.41-.39-.65.14-1.27,0-2.31-.53-3.4.2.94-.07,1.07-.12,1.64-.55-.88.17-1.59-.48-2.1.02.23-.23.15-.35.07.08.37.25.81-.04.89-.25-.11,0-1.21-.51-1.22.94,3.51,1.47,6.31,2.23,9.82.12-.26,0-.69.16-.92.05.1.07.28.18.25,0-.11-.06-.28.05-.31,0,.54.44,1.28.58.9-.44-.14-.31-.83-.29-1.26-.3-.3-.54.44-.76-.12.21-.98-.89-2.28-.29-2.88.42.43.06,2.09,1.01,2.27-.18-.8-.68-1.71-.31-2.43l-.45-.34c.09-.56.24.07.32-.22Zm-1.01-2.27c.37-.12.57.52.43.79-.23-.08-.36-.38-.43-.79Z"/>
                    <path class="cls-9" d="m145.81,550.6c.26-.04.18.57.31.8-.12-.06-.25-.12-.23.05-.26-.03.05-.56-.07-.85Z"/>
                    <path class="cls-9" d="m145.64,560.08c.28.39.84,1.07.65,1.75-.31-.39-.4-1.23-.65-1.75Z"/>
                    <path class="cls-9" d="m145.16,561.22c0-.2.27-.19.43-.25.04.38.73,1.12.02,1.17-.02-.47.24-1.08-.46-.92Z"/>
                    <path class="cls-9" d="m143.71,567.18c.14-.01.2-.08.2-.2.46.4.36,1.04.24,1.57-.32-.27-.11-.88-.44-1.37Z"/>
                    <path class="cls-9" d="m204.55,553.3c-.13-.28.26-.76.5-.49.18-.04-.35.22-.5.49Z"/>
                    <path class="cls-9" d="m147.36,568.59c-.07-.24.07-.33-.01-.58.5.2.35.47.62,1.01-.06.38-.27-.7-.6-.43Z"/>
                    <path class="cls-9" d="m147.8,572.41c.52.45.46,1.66,1.12,2.17-.76-.22-.8-1.43-1.12-2.17Z"/>
                    <path class="cls-9" d="m147.53,574.09c-.21,0-.19.17-.16.33-.28.04-.37-.29-.27-.51.24-.11.99.35.5.45l-.08-.27Z"/>
                    <path class="cls-9" d="m206.92,559.22c.23-.24-.08.85.3,1.04-.42-.22-.38.36-.45.62-.47-.11-.25-.56-.41-1.01.43.45.48-.34.56-.65Z"/>
                    <path class="cls-9" d="m218.56,557.6c-.24.09-.17-.38-.28-.52.58-.11.85.32,1.1.78-.65-.2-.63-.19-.82-.25Z"/>
                    <path class="cls-9" d="m147.19,580.8c.52.02.18.68.31,1.09-.3-.06-.03-.67-.31-1.09Z"/>
                    <path class="cls-9" d="m212.1,574.46c-.19,0,0-.16-.12-.34.22.11.37.29.19-.19.16-.15.47.58.43.88-.19.04-.41-.81-.5-.35Z"/>
                    <path class="cls-9" d="m215.65,587.61c-.14-.32.58.68.87.72-.17.18-.37.82-.03.92-.52.42-.21-.62-.42-1.15-.22.12-.12.39-.18.58-.34-.11.16-.62-.24-1.08Z"/>
                    <path class="cls-9" d="m215.9,591.7c-.03-.23-.42-.64,0-.66.14.72.82.61.96.17.14.03.22.22.43.11-.21.57-.85.25-1.4.38Z"/>
                    <path class="cls-9" d="m217.89,593.19c-.38.02-.55.61-.74.41-.06-.43.47-.21.65-.64.04.21.17.18.31.15.02.8.53.91.71,1.83-.24-.03-.45-.29-.33-.53-.35.42-.49-.3-.98-.55l.56-.21-.18-.46Z"/>
                    <path class="cls-9" d="m224.74,595.94c-.64.03-.25.51-.34.78-.49-.14-.03-1.58.34-.78Z"/>
                    <path class="cls-9" d="m220.13,603.66c-.14-.24-.59-1.64.09-.43-.07.13-.09.28-.09.43Z"/>
                    <path class="cls-9" d="m221.11,604.86c-.29-.34-.6-.64-.75-1.29.37.17.37-.31.58-.5.19.26.31.82.02,1.05.16.13.15-.1.49-.06-.09.21.06.6.27.69-.06.27-.35-.39-.6.11Z"/>
                    <path class="cls-9" d="m220.17,605.11c.71.24,2.01,1.93,2.5,3.11.08.13.24.01.38-.02-.02.35-.07.45-.46.45.21.5.39.46.23.85.11.12.24.18.43.09.82,2.55,2,4.35,2.94,5.9-.49-.21-.02.47-.56.51.1.07.19.14.26.29.19-.14-.1-.48.29-.53.04.64.26.84-.22,1.31-.4-.05.25-.84-.47-.48-1.4-3.51-2.18-5.46-3.78-9.45-.04-.34-.31-.13-.47-.21.16-.15-.22-.54,0-.66-.16-.13-.31-.3-.58-.16-.19-.28-.21-.97-.51-.99Z"/>
                    <path class="cls-9" d="m214.69,618.19c.33-.14.38.49.63.56.07-.13.08-.28.07-.44,1.04.4.99,1.86,1.63,2.87-.78-.07.13,2.69.88,2.65.26.33-.18.36-.13.61.29.23.66.23.9.57-.14-.05-.3-.02-.49.08.39.42-.22.97-.27,1.5.37,0,.44.42.46.77-.46-.39-.36.27-.08.73-.57-.55-1.04-.59-1.36-1.34.16-.02.26.13.43.09.17-.5-.03-1.21-.32-1.66.08-.21.34-.33.55-.24-.51-.21-.48-1.46-1.25-1.39-.03-.3.03-.55-.13-.91.49-.06.13.36.3.7.13.07.28.09.43.09-.61-1.38-1.4-3.63-2.25-5.23Z"/>
                    <path class="cls-9" d="m211.11,621.09c.21-.35-.19-.97.1-1.29.18.5.15,1.28.38,1.5.06.31-.35-.18-.48-.21Z"/>
                    <path class="cls-9" d="m157.17,645.4c.14.06.31.03.5-.06-.3.3-.32.79.11,1.17-.04.15-.27.21-.22.4-.44.06-.15-.31-.44-.72.37-.09.23-.43.05-.78Z"/>
                    <path class="cls-9" d="m221.7,620.81c-.46-.6-.52-.99-.97-1.63.16,0,.29.05.37.25.06-.1.13-.2.28-.26-.07.8.36,1.21.85,1.68-.17-.12-.88-.78-.54-.04Z"/>
                    <path class="cls-9" d="m222.62,622.32c.19-.34.09.52-.29.54.04-.14,0-.31-.09-.51.13-.13.46.33.38-.03Z"/>
                    <path class="cls-9" d="m225.39,621.79c.08-.06.12,0,.16.07l.22-.1c-.43.38.59,1.37-.23,1.6-.16-.22.06-.29.23-.37-.12-.53-.33-.89-.38-1.19Z"/>
                    <path class="cls-9" d="m235.16,622.62c.17.32-.1.46.07.78-.22-.21-.71-.29-.72-.76-.2.07-.17.24-.39.31-.15-.42-.04-.5-.34-.79-.11.11-.16.24-.07.44-.39-.02-.22-.34-.68-.37-.07-.26.49-.19.6-.13.05-.23.2-.42.09-.71.14.02.22.21.43.08.44.67.45,1.04,1.02,1.16Z"/>
                    <path class="cls-9" d="m211.42,631.83c-.04-.14.08-.11.11-.05.08-.13,0-.32.23-.38.1.39-.11.66-.08,1.02-.18.47-.02-.75-.25-.59Z"/>
                    <path class="cls-9" d="m214.51,631.72c.28.08.6.04.74.51-.75-.2.46.6.34,1.1.08.09.62.09.49-.08.02.6.86,2.37.72,3.32.82-.07.15.94.93.84.08.22-.34.24-.33.43.64.39.33,1.26.66,1.67.04.19-.94.25-.27.55-.36.4-.54-.52-.11-.8-.3-.48-.35-.84-.39-1.37-.12-.19-.31-.18-.55-.03-.24-.7-.04-.84-.61-1.27,1.27-.29-.76-1.6-.14-2.61-.67-.41-.85-1.41-1.5-2.26Z"/>
                    <path class="cls-9" d="m223.44,630.61c.24.02.4.25.52.59.35-.04.21-.29.49-.36.25.64.7.84,1.07,1.17-.79,0,.7,2.53-.12,3.11.13.06.24.2.33.41-.22.35-.25.77-.05,1.28-.51.91-.1,2.28-.6,2.94.03-.41-.58-.96-.49-.75-1.25-1.86-1.4-5.98-3.52-6.91,0,.46.84.47,1.01,1.35-.59-.45-1.15-.31-1.78-1-.32.12.46.7-.08.73-.28-.11-.07-.43-.35-.81.95.18.15-1.42-.1-1.76.22-.1.28.25.54.04.25.4.04.86.45,1.04.53-.84-.28-1.46-.51-2.4.47.82,1.91,1.15,2.68,1.97.09.52.37,1.14.96.95.1.29-.28.39-.05.72.39.26.57-.3.82.6.15.12.33.11.54.03.33-.52-.87-1.42-.16-1.46-.06-.28-.29-.07-.38-.24-.28.07.31.49-.16.49-.32-.12-.33-.52.11-.61-.34-.55-.9-.41-1.16-1.13Z"/>
                    <path class="cls-9" d="m214.24,633.52c.25-.09-.02.36.25.59-.29.29-.26.19-.6.13.17-.22.53-.17.35-.72Z"/>
                    <path class="cls-9" d="m216.7,638.31c.17.46.44.98.5,1.61-.05-.12-.86-1.34-.5-1.61Z"/>
                    <path class="cls-9" d="m222.2,638.15c-.98.34-.59-1.37-.71-2.06.35.73.76,1.48.71,2.06Z"/>
                    <path class="cls-9" d="m197.6,652.07c.27.46-.29.58-.2.97-.05.33-.31-.91.2-.97Z"/>
                    <path class="cls-9" d="m175.99,675.15c.23.5-.31.66-.3,1.06-.14-.07-.04-.87.3-1.06Z"/>
                    <path class="cls-9" d="m190.93,670.24c.31-.05-.05.42.18.66-.25.02-.44-.18-.61-.45.24.01.53.24.43-.21Z"/>
                    <path class="cls-9" d="m176.74,679.53c.06.23.44.89.1,1.34-.1-.68-.23-.75-.1-1.34Z"/>
                    <path class="cls-9" d="m175.84,680.44c.48.08.07.62.14.86.22.96-.33-.62-.14-.86Z"/>
                    <path class="cls-9" d="m190.65,684.4c.1.22.26.19.35.43-.41.2-.86-.71-.88-.92.55.42.46-.33.79-.56.45.13.91.44,1.04-.08.05.53.21,1.11-.02,1.53-.19-.57-.45-1.23-1.29-.4Z"/>
                    <path class="cls-9" d="m198.87,696.71c-.03-.62-.26-.26-.38.05.47-.29.57.73,1.06,1.27-.19.19-.15.46-.51.58-.21-.37-.34-1.51-1.04-.97-.83-.7-1.45-2.29-2.35-2.73-.88.96.03,1.55.9,2.27-.45.12-.2.51-.28.76-1.47-.01-1.34-1.99-1.61-3.13.28.23.27-.46.59-.16.34-1,.04-2.24.69-3.11-.1-.31-.33-.16-.42-.54.27-.09.4-.23.47-.4-.43-.31-.82-.81-.05-.89-.13-.2-.2-.66-.46-.37.03-.28.3-.46.29-.76-.07-.46-.39.09-.46-.37.46-.37-.07-1.12.47-1.45-.65-.35-.23-1.5.16-2.05,1.74,1.08.67,2.88,1.76,4.99-.69.34-.51,1.07.04,1.65.01.26-.19.44-.51.57.26.42.38.79.45,1.13,1.19.84,2.59,1.17,3.73,3.05-.29.36-.04.33-.01.77-.57-.4-1.23-.46-1.84-.69-.05.24-.4.36-.68.51Z"/>
                    <path class="cls-9" d="m215.86,400.61c-.05.14,0,.31.1.48-.58.19-.59.54-1.15.76-.04-.29-.52-.62-.47-.28-.37.03.24-.82-.6-.21-.2-.41.69-.61.38-1.05.68.38.95.37,1.74.29Z"/>
                    <path class="cls-9" d="m200.96,486.32c.31.27.32.73.63.99-.04.22-.32.18-.61.14.12.14.08.22-.14.19.31.34,0,.55.28.95-.29.18-.69.25-.67.75-.18-.74.31-1.41.05-1.84.21-.19.52-.27.65-.54-.13-.29-.5-.42-.4-.87.24.06.37.02.37-.16.09.06.19.13.35.14-.13.12-.33.16-.5.25Z"/>
                    <path class="cls-9" d="m192.36,509.66c.1.17.39.15.38.44-.55-.03-.42.51-.44.94-.48.07-.17-.7-.29-1.01.1-.13.44-.06.34-.36Z"/>
                    <path class="cls-9" d="m229.99,619.11c-.22.17-.24-.35-.7-.1.31-.31-.14-.93.43-1.13-.45-.52-.99-.79-1.82-.29-1.25-.87-1.27-2.71-.81-3.69,1.21-.95,2.4-.88,2.98-.06.87,1.23-.04,3.36,1,4.13,0,.45.45,1.6.33,2.28-.4.02-.25.1-.66.29-.28-.39-.4-1.21-.93-.94,0-.19.05-.35.18-.49Z"/>
                  </g>
                </g>
              </g>
              <ellipse class="cls-6" cx="522.82" cy="509.18" rx="356" ry="333.21"/>
              <path class="cls-7" d="m606.22,532.03s86.14-170.75,219.79-41.92c0,0-75.8,183.23-219.79,41.92Z"/>
              <path class="cls-3" d="m481.12,625.45c-.79,0-1.58-.28-2.21-.84-1.38-1.22-1.5-3.33-.28-4.71l36.97-41.55c.61-.68,1.47-1.08,2.38-1.11.94-.02,1.8.31,2.45.95l37.45,36.83c1.32,1.29,1.33,3.4.04,4.71-1.29,1.32-3.4,1.32-4.71.04l-34.95-34.37-34.64,38.93c-.66.74-1.58,1.12-2.49,1.12Z"/>
              <path class="cls-3" d="m771.71,409.08c-.48,0-.96-.1-1.43-.32-67.82-32.03-119.81-.51-120.33-.19-1.56.97-3.61.49-4.59-1.06-.98-1.56-.5-3.61,1.05-4.59,2.23-1.4,55.46-33.82,126.72-.19,1.66.78,2.38,2.77,1.59,4.44-.57,1.2-1.76,1.91-3.01,1.91Z"/>
              <path class="cls-3" d="m427.44,410.51c-.65,0-1.32-.2-1.89-.6-.5-.35-51.41-34.74-121.89-6.54-1.71.68-3.65-.15-4.33-1.86-.68-1.71.14-3.65,1.86-4.33,73.92-29.58,125.99,5.74,128.18,7.26,1.5,1.05,1.88,3.12.83,4.64-.64.93-1.69,1.43-2.74,1.43Z"/>
              <path class="cls-3" d="m166.82,562.44c-1.57,0-2.97-1.12-3.27-2.72-6.89-36.91-62.64-57.67-63.21-57.88-1.73-.63-2.62-2.55-1.99-4.27.63-1.73,2.55-2.61,4.27-1.99,2.44.89,59.88,22.27,67.47,62.92.34,1.81-.85,3.55-2.66,3.89-.21.04-.41.06-.62.06Z"/>
              <path class="cls-3" d="m114.46,584.44c-1.04,0-2.06-.48-2.71-1.39-1.07-1.49-.73-3.58.76-4.65l47.66-34.24c1.5-1.08,3.57-.74,4.65.76,1.07,1.49.73,3.58-.76,4.65l-47.66,34.24c-.59.42-1.27.62-1.95.62Z"/>
              <rect class="cls-8" x="73.57" y="484.14" width="22.96" height="54.58" rx="1.13" ry="1.13" transform="translate(-400.38 329.37) rotate(-60)"/>
              <rect class="cls-8" x="68.23" y="545.03" width="22.96" height="44.51" rx="1.13" ry="1.13" transform="translate(-465.49 743.14) rotate(-99.88)"/>
              <path class="cls-7" d="m447.74,534.14s-90.83-168.31-220.87-35.83c0,0,80.84,181.06,220.87,35.83Z"/>
              <path class="cls-3" d="m826.01,490.1c-53.55-51.62-99.46-55.12-135.27-40.81-16.09,15.28-26.17,36.83-26.17,60.77,0,33.23,19.38,61.87,47.41,75.45,75.09-1.29,114.04-95.41,114.04-95.41Z"/>
              <path class="cls-3" d="m448.11,534.03s-52.67-97.28-135.04-85.5c-16.57,15.32-27.01,37.18-27.01,61.53,0,38.07,25.38,70.17,60.13,80.41,29.18-1.06,63.31-16.3,101.93-56.45Z"/>
              <path class="cls-4" d="m682.27,671.35s-101.66,21.13-203.32,78.83c0,0,140.07,32.21,203.32-78.83Z"/>
              <path class="cls-3" d="m522.82,175.97c-196.61,0-360.71,130.37-356,333.21.15,6.62,66.89-54.66,101.3-96.64,34.42-42,31.84-140.79,173.81-86.29,141.97,54.49,231.02-78.87,231.02-78.87,14.35,86.27,65.83,84.61,127.5,124.76,61.66,40.15,78.57,114.85,57.06,188.34-8.57,29.27-20.03,119.6-12.73,139.92,26.6-46.68,34.05-134.62,34.05-191.22,0-184.03-159.39-333.21-356-333.21Z"/>
            </g>
          </g>
        </g>
      </g>
    </g>
  </g>
</svg>