<?xml version="1.0" encoding="UTF-8"?>
<svg xmlns="http://www.w3.org/2000/svg" xmlns:xlink="http://www.w3.org/1999/xlink" viewBox="0 0 1116.37 1116.37">
  <defs>
    <style>
      .cls-1 {
        clip-path: url(#clippath);
      }

      .cls-2 {
        fill: none;
      }

      .cls-2, .cls-3, .cls-4, .cls-5, .cls-6, .cls-7, .cls-8, .cls-9 {
        stroke-width: 0px;
      }

      .cls-10, .cls-7 {
        fill: #f1a841;
      }

      .cls-11, .cls-6 {
        fill: #f0c18d;
      }

      .cls-12 {
        mix-blend-mode: overlay;
      }

      .cls-13 {
        isolation: isolate;
      }

      .cls-4 {
        fill: #e0e9ec;
      }

      .cls-5 {
        fill: #fff;
      }

      .cls-8 {
        fill: #ea4d27;
      }

      .cls-9 {
        fill-rule: evenodd;
      }
    </style>
    <clipPath id="clippath">
      <ellipse class="cls-6" cx="890.69" cy="624.9" rx="96.49" ry="86.91"/>
    </clipPath>
  </defs>
  <g class="cls-13">
    <g id="Layer_2" data-name="Layer 2">
      <g id="Layer_4" data-name="Layer 4">
        <g>
          <circle class="cls-4" cx="558.18" cy="558.18" r="558.18"/>
          <g>
            <g>
              <g>
                <ellipse class="cls-11" cx="890.69" cy="624.9" rx="96.49" ry="86.91"/>
                <g class="cls-1">
                  <g class="cls-12">
                    <g>
                      <path class="cls-2" d="m875.81,842.18c20.26-31.63,36.07-66.35,45.62-102.37,5.01-17.96,8.52-36.2,10.8-54.46,2.42-18.26,3.49-36.56,3.5-54.73.18-36.38-3.98-72.21-11.13-107.16-3.6-17.48-7.99-34.74-13.17-51.82-2.61-8.54-5.37-17.04-8.44-25.53-1.52-4.25-3.1-8.49-4.79-12.78l-2.6-6.48-3.11-7.22-79.82,36.7,1.76,4.13,2,4.99c1.33,3.37,2.63,6.86,3.88,10.36,2.54,7,4.87,14.19,7.08,21.41,4.38,14.46,8.13,29.18,11.17,43.98,6.06,29.61,9.49,59.62,9.32,89.18.03,59.17-14.72,116.35-45.67,163.87l73.61,47.95Z"/>
                      <path class="cls-9" d="m848.93,439.65c.11-.05.16.12.23.21.26-.04.95.51,1.29,1.38-.47-.67-1.1-.81-1.52-1.59Z"/>
                      <path class="cls-9" d="m845.73,448.44c.31.04.41.85.63,1.19-.32-.39-.85-.74-.63-1.19Z"/>
                      <path class="cls-9" d="m847.43,450.32c.36-.11.48.61.68,1.02-.47.16-.55-.71-.68-1.02Z"/>
                      <path class="cls-9" d="m847.28,451.52c.03-.42.41.79.62.88l-.33.14c.23,1,.77.92,1.01,1.86-.99-.25-1.15-1.9-1.3-2.88Z"/>
                      <path class="cls-9" d="m848.06,451.52c.37-.17.54.38.73.84-.27-.2-.5-.5-.73-.84Z"/>
                      <path class="cls-9" d="m848.23,452.27c.48.37.95,1.09.85,1.77-.44-.18-.3-.93-.85-1.77Z"/>
                      <path class="cls-9" d="m866.61,444.58c.28-.06.35.67.68.4.07.12.01.16-.05.19l.12.3c-.32-.02-.53-.47-.75-.89Z"/>
                      <path class="cls-9" d="m866.72,446.77c.29.04.51.3.69.75-.29-.04-.51-.29-.69-.75Z"/>
                      <path class="cls-9" d="m879.87,441.85c.46.38.63,1.17.79,1.63-.36-.16-.51-1.15-.79-1.63Z"/>
                      <path class="cls-9" d="m848.98,456.03c.68.38.56,1.31.54,1.73-.36-.25-.18-1.12-.54-1.73Z"/>
                      <path class="cls-9" d="m868.63,450.95c.13-.42-.29-.47-.4-1.03.26-.2.63.98.67.41.29,0,.36.81.57,1.14-.3-.12-.49-.62-.84-.52Z"/>
                      <path class="cls-9" d="m881.51,446.66c.01-.28,1.15,1.99.71,2.17-.14-.57-.36-1.22-.71-2.17Z"/>
                      <path class="cls-9" d="m871.01,455.79c.25.14.6.65.5,1-.28.03-.32-.71-.5-1Z"/>
                      <path class="cls-9" d="m851.12,463.94c.55-.16.36.78.2.89-.45-.11.16-.48-.2-.89Z"/>
                      <path class="cls-9" d="m854.16,472.32c.01-.5.46.77.3.86-.56-.03,0-.36-.3-.86Z"/>
                      <path class="cls-9" d="m855.29,471.91c.17-.03.19.41.38.35-.13.29.6,1.71.28,1.51l-.65-1.86Z"/>
                      <path class="cls-9" d="m856.31,480.06c.33.09,1.02,2.1.54,2.37-.1-.74-.17-1.46-.54-2.37Z"/>
                      <path class="cls-9" d="m876.49,477.61c-.62-.41-.52-2.16,0,0h0Z"/>
                      <path class="cls-9" d="m857.73,487.87c.74.25.77,1.14.9,2.09-.67-.3-.45-1.5-.9-2.09Z"/>
                      <path class="cls-9" d="m876.05,485.35c.21.08.43.11.53.49-.15.43-.46.09-.8.26-.26-.75.38-.16.27-.74Z"/>
                      <path class="cls-9" d="m878.86,495.11c.28-.01.26.73.42,1.02-.47,0-.26-.58-.42-1.02Z"/>
                      <path class="cls-9" d="m860.85,500.66c.2-.03.77.94.3,1.01.03-.51-.12-.49-.3-1.01Z"/>
                      <path class="cls-9" d="m884.94,494.11c.38-.21.49,1.16.08,1.13-.24-.53.08-.66-.08-1.13Z"/>
                      <path class="cls-9" d="m861.43,502.22c.8,1.03.57,1.02,1.15,2.65-.6-.35-.83-1.61-1.15-2.65Z"/>
                      <path class="cls-9" d="m860.04,505.61c.34.21-.24.74.13,1.37-.39-.26-.3-1.14-.13-1.37Z"/>
                      <path class="cls-9" d="m860.13,507.3c.25-.03.25.51.5.48.02.21-.26.2-.42.28.05-.2.05-.43-.08-.76Z"/>
                      <path class="cls-9" d="m863.29,506.56c-.35.67.15,1.47.39,2.4-.48-.44-1.21-1.88-.39-2.4Z"/>
                      <path class="cls-9" d="m837.84,514.53c.37-.24.32.4.27.52.37,1.28-.42-.39-.27-.52Z"/>
                      <path class="cls-9" d="m880.66,503.22c.05-.49.51.05.51.51-.39.37-.21-.64-.51-.51Z"/>
                      <path class="cls-9" d="m868.47,509.68c.53-.1.77.85.74,1.38-.53-.17-.21-1.04-.74-1.38Z"/>
                      <path class="cls-9" d="m865.7,510.91c.13.05.28.36.27.08.33.07.08.67-.19.68-.13-.11-.21-.3-.27-.55.14-.01.2-.09.19-.21Z"/>
                      <path class="cls-9" d="m870.65,512.24c.05-.5.4.81.24.89-.09.05-.12-.03-.15-.12-.01-.13-.08-.13-.16-.12-.01-.25.33-.22.07-.65Z"/>
                      <path class="cls-9" d="m882.8,511.22c.13-.39.38,1.08.51,1.48-.45-.31-.22-.74-.51-1.48Z"/>
                      <path class="cls-9" d="m878.16,514.38l.15.6c-.42.24-.62-.6-.15-.6Z"/>
                      <path class="cls-9" d="m879.13,517.33c.71.12.09,1.07.4,1.65-.28-.19-.49-1.35-.4-1.65Z"/>
                      <path class="cls-9" d="m860.39,525.05c.13.42-.15.51-.02.93-.37.06-.39-.89.02-.93Z"/>
                      <path class="cls-9" d="m876.49,526.25c.39.13.53.93.53,1.29-.26-.25-.33-.91-.53-1.29Z"/>
                      <path class="cls-9" d="m876.99,528.49c.42.05.27,1.33.66,1.89-.4-.18-.64-1.61-.66-1.89Z"/>
                      <path class="cls-9" d="m861.54,535.34c.31.14.33,1.05-.16.95-.15-.48.47-.35.16-.95Z"/>
                      <path class="cls-9" d="m876.87,532.46c.44.03.51.82.68,1.42-.27.18-.42-.98-.57-.34-.34-.13.03-.7-.11-1.07Z"/>
                      <path class="cls-9" d="m877.94,535.05c-.17.35-.24-.01-.5-.04.05-.29-.18-.8.19-.83-.04.13-.07.27-.02.48.11.14.3.1.33.4Z"/>
                      <path class="cls-9" d="m878.02,534.87c.43.35-.18,1.02.33,1.5-.6-.06-.6-1.18-.33-1.5Z"/>
                      <path class="cls-9" d="m898.03,533.65c.47-.18.33.72.17.78-.37-.06.07-.43-.17-.78Z"/>
                      <path class="cls-9" d="m889.18,538.95c.43-.21.45.94.03.79.06-.2.07-.44-.03-.79Z"/>
                      <path class="cls-9" d="m895.18,540.91c.22.18.49.74.33,1.06-.28-.01-.2-.75-.33-1.06Z"/>
                      <path class="cls-9" d="m915.96,539.63c.18.07.29.3.36.6-.21.02-.21.25-.44.25l-.09-.48c.25.19.3.09.17-.37Z"/>
                      <path class="cls-9" d="m885.27,552.41c.68,2,.61,4.13.95,6.42-1.58-1.94-.25-4.38-.95-6.42Z"/>
                      <path class="cls-9" d="m905.45,548.63c.38-.11.68.77.13.79l-.13-.79Z"/>
                      <path class="cls-9" d="m910.71,548.8c.27.05.28.97.19,1.12-.4-.18-.02-.72-.19-1.12Z"/>
                      <path class="cls-9" d="m906.07,551.63c.22.2.35.57.42,1.07-.43.21-.28-.72-.42-1.07Z"/>
                      <path class="cls-9" d="m907.83,553.44c.1-.77.65.99.13.8-.22-.37.24-.72-.13-.8Z"/>
                      <path class="cls-9" d="m908.02,554.55c.29-.12.66,1.31.21,1.27.08-.51-.15-.56-.21-1.27Z"/>
                      <path class="cls-9" d="m885.9,559.05c.5-.14.3,1.04.77.96-.01.37-.04.74-.35.84-.4-.46-.17-1.44-.42-1.81Z"/>
                      <path class="cls-9" d="m891.6,560.44c.24-.63.35.68.42,1.04-.09.04-.12-.04-.14-.13l-.24.04c-.11-.33.23-.89-.04-.94Z"/>
                      <path class="cls-9" d="m891.47,563.3c.3.18.63.32.64,1-.17-.4-.49-.53-.64-1Z"/>
                      <path class="cls-9" d="m903.12,562.37c.2.17.3.51.37.91-.37.11-.53-.62-.37-.91Z"/>
                      <path class="cls-9" d="m909.68,561.64c.13.02.12.31.28.28-.3.35-.21.44-.24.86-.36-.2-.15-.96-.04-1.14Z"/>
                      <path class="cls-9" d="m919.51,560.88c.43-.2.26.75.4,1.11-.34.03-.31-.65-.4-1.11Z"/>
                      <path class="cls-9" d="m863.21,575.15c.31.15.55.4.72.79-.16.1-.37-.53-.38-.09-.19-.1-.31-.33-.34-.69Z"/>
                      <path class="cls-9" d="m908.54,569.16c.26.27.31,1.5-.02,1.63.07-.48.08-1.02.02-1.63Z"/>
                      <path class="cls-9" d="m861.08,578.12c.11.06.21.12.38.1-.28.78-.08.84.14,1.9-.6-.31-.64-1.35-.52-1.99Z"/>
                      <path class="cls-9" d="m865.6,578.38c.4.17.36,1.09.48,1.72-.36-.34-.29-.84-.48-1.72Z"/>
                      <path class="cls-9" d="m861.4,580.43c.69-.17-.02.97.46.68.29-.02.09.48-.06.45.32,2-.2.68-.14-.13-.02-.14-.16-.09-.26-.11-.15-.43.15-.45,0-.88Z"/>
                      <path class="cls-9" d="m914.61,573.69c.27.09.55.6.37.94-.2-.18-.3-.53-.37-.94Z"/>
                      <path class="cls-9" d="m909.61,575.19c-.42.57.08,1.15.32,1.58-.12-.11-.29-.14-.49-.1,0-.56-.16-.89-.28-1.26.09-.14.24-.21.45-.22Z"/>
                      <path class="cls-9" d="m911.08,575.32c.33,1.16,1.33,2.17.98,3.3-.27.01-.12-.68-.22-.95-.34.07-.14.7-.12,1.16-.37-.64-.82-2.62-.64-3.5Z"/>
                      <path class="cls-9" d="m861.77,583.47c.34-.02.28.58.35.99-.26-.11-.32-.53-.35-.99Z"/>
                      <path class="cls-9" d="m861.8,584.79c.36-.11.41.26.44.68-.26-.06-.48-.17-.44-.68Z"/>
                      <path class="cls-9" d="m862.14,585.77c.58-.08-.39,2.01.53,1.55-.14.23-.49.45-.7.23.05-.87.15-.88.17-1.78Z"/>
                      <path class="cls-9" d="m912.11,581.22l.36-.04c-.16.4-.21.91-.07,1.64-.31.09.01-.91-.43-.6.07-.3.29-.45.13-1Z"/>
                      <path class="cls-9" d="m892.11,583.81c.04.54.17,1.18-.22,1.28-.05-.55-.22-1.23.22-1.28Z"/>
                      <path class="cls-9" d="m911.81,582.89c.31.2.26.31.61.09-.22.36.02.77.32.78.12.5-.58.13-.41.7-.17-.54-.45-.87-.53-1.57Z"/>
                      <path class="cls-9" d="m914.36,583.08c.28.1.51,1.04-.02.98.12-.21.07-.59.02-.98Z"/>
                      <path class="cls-9" d="m912.12,584.65c.29.31.51.72.38,1.26-.23-.24-.33-.7-.38-1.26Z"/>
                      <path class="cls-9" d="m911.68,585.02c.44.14.39.51.22.95-.26.01-.12-.68-.22-.95Z"/>
                      <path class="cls-9" d="m914.85,586.46c.1-.26.42,1.45.29,1.6-.3-.19-.17-1.12-.29-1.6Z"/>
                      <path class="cls-9" d="m863.71,592.35c.26,0,.3.34.32.7-.35.14-.45-.1-.73-.07.08-.27.41-.29.41-.63Z"/>
                      <path class="cls-9" d="m911.27,587.99c.39-.27.77,1.77.57,1.89-.08.05-.39-1.67-.57-1.89Z"/>
                      <path class="cls-9" d="m921.13,588.74l.05.49c-.09.18-.6.21-.63-.27.35.1.28-.26.58-.23Z"/>
                      <path class="cls-9" d="m866.01,594.61c.2.15.55.07.54.54-.28-.02-.57-.04-.54-.54Z"/>
                      <path class="cls-9" d="m866.17,596.51c.36-.04.34.48.43.84-.36.04-.34-.48-.43-.84Z"/>
                      <path class="cls-9" d="m913.21,593c.26.24.15-.03.48-.05-.12.25-.05.73-.43.69l-.05-.65Z"/>
                      <path class="cls-9" d="m912.56,595.5c-.2.08-.24-.1-.26-.3-.14-.01-.21.06-.23.18-.46-.51.53-.62.49.12Z"/>
                      <path class="cls-9" d="m918.52,594.78c.39.9-.17,1.2.28,2.11-.63.09-.54-1.85-.28-2.11Z"/>
                      <path class="cls-9" d="m912.39,596.49c.36.09.47.57.67.91-.12-.09-.47-.34-.35.19-.17.1-.34-.6-.37-.13-.51-.51.51-.4.04-.98Z"/>
                      <path class="cls-9" d="m913.82,596.36c.62.29.16,1.7.17,2.27-.45-.9.2-1.37-.17-2.27Z"/>
                      <path class="cls-9" d="m865.69,601.25c.35.37-.16.99,0,1.61-.35-.37-.07-1.22,0-1.61Z"/>
                      <path class="cls-9" d="m918.79,601.5c0-.19.21-.16.35-.19-.05.52.47,1.06.54.78.34.77.02,1.53.3,2.45-.12-.12-.28-.16-.49-.13.39-1.36-.46-1.78-.7-2.91Z"/>
                      <path class="cls-9" d="m913.86,603.2c.27.38.48,1.7-.15,1.15.43-.24-.12-.72.15-1.15Z"/>
                      <path class="cls-9" d="m920.68,604.16c.35-.28.45,1.04.06.82l-.06-.82Z"/>
                      <path class="cls-9" d="m914.24,604.96c.18-.27.19,1.27.36,1.6-.56-.17-.33-.9-.36-1.6Z"/>
                      <path class="cls-9" d="m913.89,605.15c.29.92-.14,2.29-.53,2.96-.3-.7.49-1.82.53-2.96Z"/>
                      <path class="cls-9" d="m919.65,604.89c.7.09-.36.98.31.96-.02.23-.29.16-.47.2.09-.67.1-.8.15-1.16Z"/>
                      <path class="cls-9" d="m915.39,605.86c.26-.05.1.57.18.8-.38-.09-.24-.1-.6.04.05-.38.36-.46.42-.84Z"/>
                      <path class="cls-9" d="m916.3,606.77c.31.15.62.61.28.8-.18-.13-.27-.39-.28-.8Z"/>
                      <path class="cls-9" d="m915.54,608.46c.29.44.69,1.53.32,1.94-.26-.28-.06-.6-.49-.3.27-.29.22-.97.17-1.64Z"/>
                      <path class="cls-9" d="m889.81,613.53c.01-.18.21-.14.35-.17.12.49-.17.49-.21.78-.42-.02.19-.69-.15-.61Z"/>
                      <path class="cls-9" d="m915.49,613.03c.63-.31.68,2.96-.14,2.46.01-.19.21-.15.35-.18-.27-.63.17-1.61-.22-2.27Z"/>
                      <path class="cls-9" d="m888.61,616.52c.15.24.49.46.27.76l-.36.02c-.05-.35,0-.59.09-.77Z"/>
                      <path class="cls-9" d="m890.49,618.12c.14-.14.29,1.11.31,1.69-.3-.29-.29-1.01-.31-1.69Z"/>
                      <path class="cls-9" d="m865.38,620.7c.02.43-.29.51-.32.89-.23-.14.02-.89.32-.89Z"/>
                      <path class="cls-9" d="m888.93,621.11c.31.22.67.36.65,1.05-.26-.29-.58-.5-.65-1.05Z"/>
                      <path class="cls-9" d="m916.82,621.79c.27.06.08.8.17,1.14-.31-.17-.28-.66-.17-1.14Z"/>
                      <path class="cls-9" d="m889.87,623.23c.25.03.12.57.37.6.02.13-.05.15-.12.16-.1-.02-.11.06-.12.16-.23-.12-.32-.66-.13-.92Z"/>
                      <path class="cls-9" d="m865.18,626.66h.36c-.14.36.08,2.94-.11,1.01-.1-.31-.32-.49-.25-1.01Z"/>
                      <path class="cls-9" d="m860.86,627.34c.33.18.25.77.13,1.14-.27-.1-.05-.8-.13-1.14Z"/>
                      <path class="cls-9" d="m890.4,629.69c.47.03.24,1.55.13,1.85-.17-.24.16-1.38-.13-1.85Z"/>
                      <path class="cls-9" d="m860.77,630.78c.09.4.51.67.13.86-.26-.3-.45-.53-.13-.86Z"/>
                      <path class="cls-9" d="m860.3,631.93h.36c-.14.21-.1.64-.48.57-.02-.26.15-.3.12-.57Z"/>
                      <path class="cls-9" d="m917.43,633.57c.26.14.43.4.37.98-.29-.09-.27-.62-.37-.98Z"/>
                      <path class="cls-9" d="m865.48,634.48c.27-.56.18.55.48.43-.03.26-.2.33-.48.29-.16-.36.35-.6,0-.73Z"/>
                      <path class="cls-9" d="m861.05,634.94c.5.03-.05.51.25.86h-.36c-.09-.44.2-.42.11-.86Z"/>
                      <path class="cls-9" d="m862.37,635.65c.25-.43-.06,1.04.49.72-.23.7-.65-.07-.49-.72Z"/>
                      <path class="cls-9" d="m860.47,637.23c.12,0,.09.18.12.29.02.16.12.08.12,0,.16.05.1.36.13.57-.43.08-.37-.42-.37-.86Z"/>
                      <path class="cls-9" d="m862.49,639.25h.48c-.17.19-.14.63-.15,1.01-.39-.02-.24-.65-.33-1.01Z"/>
                      <path class="cls-9" d="m859.74,642.79c.15.47.32.92.44,1.43-.39-.21-.49-.73-.44-1.43Z"/>
                      <path class="cls-9" d="m917.71,643.58c.43.22-.1,1.4-.07,2.14-.32.05.14-.92-.34-.66.45-.41.25-.7.4-1.47Z"/>
                      <path class="cls-9" d="m859.28,657.03l.48.03c-.32-.07-.58.81-.15.42.38.23-.27.33-.17.7-.19-.24-.21-.65-.16-1.15Z"/>
                      <path class="cls-9" d="m858.75,664.69c.23.15.22.57.17,1.01-.14-.4-.38-.58-.17-1.01Z"/>
                      <path class="cls-9" d="m920.78,670.23c.24.06-.02.73.18.85.12-.12.2-.29.28-.48.33.32-.13.88-.53.63.14-.57-.17-.72.07-1Z"/>
                      <path class="cls-9" d="m861.33,667.47c.1.1.2.19.24.02.22.34-.26.25-.07.86-.3-.04-.19-.5-.17-.88Z"/>
                      <path class="cls-9" d="m859.98,667.79c.22.22.01,1.21-.16,1.41-.21-.22,0-1.21.16-1.41Z"/>
                      <path class="cls-9" d="m861.48,668.49c.08.44-.1.91-.18,1.56-.23-.28.11-1.11-.08-1.44.14.03.22-.01.26-.12Z"/>
                      <path class="cls-9" d="m856.04,674.95c.29.37-.28.83-.02,1.27-.67-.09-.02-.82.02-1.27Z"/>
                      <path class="cls-9" d="m857.23,675.08c.41-.13.04.47.45.33,0,.33-.36.12-.4.38-.39-.17-.03-.27-.04-.72Z"/>
                      <path class="cls-9" d="m855.27,675.29c-.19.16-.15.65-.33.81-.26-.33-.17-.86.33-.81Z"/>
                      <path class="cls-9" d="m856.95,677.61c.26.44.23,1.87-.12,2.12-.22-.13-.28-.41-.28-.75.25.62.6-1.15-.03-.86,0-.37.48-.06.42-.52Z"/>
                      <path class="cls-9" d="m857.1,682.77l.36.05c.04.54-.48.16-.47.65-.27-.07.03-.62.11-.7Z"/>
                      <path class="cls-9" d="m855.51,685.12c.62.21-.06.79.16,1.3-.39-.14,0-.96-.16-1.3Z"/>
                      <path class="cls-9" d="m852.82,685.17l.36.05c-.29.06-.04.97-.49.78l.13-.83Z"/>
                      <path class="cls-9" d="m916,702.85c.3.11.13.8.12,1.55-.19-.09-.24.09-.29.29-.14-.43.32-1.18.17-1.84Z"/>
                      <path class="cls-9" d="m848.99,693.32c.2.23-.07.85.07,1.14-.39-.17-.21-.82-.07-1.14Z"/>
                      <path class="cls-9" d="m912.77,719.85c.21.16.22.5.18.9-.51.11-.27-.46-.18-.9Z"/>
                      <path class="cls-9" d="m910.19,735.52c.08.12.06.5.19.22.14.8-.28,1.87-.69,2.62.2-1.16.27-1.55.5-2.84Z"/>
                      <path class="cls-9" d="m908.59,735.48c.22.4.16,1.05.36,1.48-.62-.32-.5-.71-.36-1.48Z"/>
                      <path class="cls-9" d="m908.72,738.3c.14,0,.18-.27.24-.46.28.27.02,1.01.28,1.29-.15.26-.29.03-.19-.22-.45.04-.29-.05-.74-.02.11-.61.06-1.07.04-1.56.16-.22.39-.28.67-.18.26.57-.5.74-.3,1.14Z"/>
                      <path class="cls-9" d="m909.55,739.38c.39.33-.06.8-.07,1.21-.01.66.7,0-.17.66-.1-.75.19-1.07.24-1.86Z"/>
                      <path class="cls-9" d="m841.87,722.66c.72.32-.29.57-.04,1.13-.48-.04.05-.77.04-1.13Z"/>
                      <path class="cls-9" d="m908.22,744.47c.18-.11-.13,1.31-.26,1.86-.09-.46.04-1.14.26-1.86Z"/>
                      <path class="cls-9" d="m906.46,747.49c-.31.25-.14.4-.26.81-.51.02-.16-1.1.26-.81Z"/>
                      <path class="cls-9" d="m903.99,748.55c.11.34-.15.42-.19,1-.47.02.06-.91.19-1Z"/>
                      <path class="cls-9" d="m836.92,731.75c-.37.39-.13.6-.21,1.07-.33-.15-.47-1.25.21-1.07Z"/>
                      <path class="cls-9" d="m890.68,748.42l.35.1c.15.47-.29.91-.44,1.4.07-.53-.11-.87.1-1.5Z"/>
                      <path class="cls-9" d="m892.87,755.79c.19.1.17.35.03.7-.12-.07-.21-.03-.28.08-.26-.13.15-.71.25-.78Z"/>
                      <path class="cls-9" d="m893.29,756.44c.09.33-.22.56-.24,1.14-.44-.04-.2-.58-.04-1.05.12.07.21.03.28-.08Z"/>
                      <path class="cls-9" d="m896,759.42c.06.58-.03.82,0,1.58-.12.04-.25.07-.33.24-.29-.03.3-.7-.19-.59.3-.43.21-.54.52-1.23Z"/>
                      <path class="cls-9" d="m881.81,760.66c.64.16-.39,1-.23,1.62.49.25.57-.59.62-.97.8.49-1.01,1.41,0,1.71-.2.34-.42.63-.57,1.16-.46,0,.07-.65.12-.98-.65.4-.2-.65-.96-.17.52-.72.78-1.35,1.02-2.36Z"/>
                      <path class="cls-9" d="m832.13,745.46c.68.16-.33.63.17.93-.3.18-.47-.63-.95-.21-.25-.59.64-.33.78-.72Z"/>
                      <path class="cls-9" d="m832.43,749.78c-.01.74.68-.17.38,1.02l-.56-.22c.13-.47-.19-.43.18-.81Z"/>
                      <path class="cls-9" d="m831.29,750.08c-.06.82.57,1.27.34,2.18.17.11.24-.05.38,0-.04-.36.08-.8.05-1.15.35.05.91.76,1.31-.08.36.87-1.17.68-1.39,1.66-.48-.19-.86-.08-1.2.12-.18-.38-.38-.76-.45-1.2.14-.48.42-.59.73-.59-.16-.41.02-.38.22-.94Z"/>
                      <path class="cls-9" d="m834.19,752.96c-.26.95-.71-.22-1.01.64,0-.27-.15-.47-.09-.77.47.32.66-.11,1.1.13Z"/>
                      <path class="cls-9" d="m881.75,776.73c.12.54.23.23.67.27-.12.27,0,.37-.15.65-.1-.35-.97-.23-.52-.91Z"/>
                      <path class="cls-9" d="m887.51,780.64c.11.37-.08,1.04-.56.67.13-.5.43-.17.56-.67Z"/>
                      <path class="cls-9" d="m887.8,786.2c.43.09-.36,1.49-.57,1.59-.1.4.27.52.46.74-.41.31-.89.24-1.34.34-.06-.36.72-1.8.83-1.29.2-.51.28-.97.62-1.38Z"/>
                      <path class="cls-9" d="m874.87,783.39c.17.38-.41,1.06-.64,1.14-.16-.3.48-.74.64-1.14Z"/>
                      <path class="cls-9" d="m870.11,786.4c-.09.53,0,.96-.15,1.52-.56-.29-.17-1,.15-1.52Z"/>
                      <path class="cls-9" d="m854.53,780.4l.33.15c-.15.18-.19.78-.42.65-.43-.02.02-.51.09-.8Z"/>
                      <path class="cls-9" d="m853.29,780.83c.27.18.21.53.13.9-.31-.18-.6.34-.71-.16.14-.46.47-.16.58-.73Z"/>
                      <path class="cls-9" d="m822.23,768.91c-.23.6-.07.86-.62,1.2-.13-.09.04-.43.19-.36,0-.22.03-.46-.25-.57.17-.3.4-.39.68-.27Z"/>
                      <path class="cls-9" d="m821.56,768.89c-.91.52-1.17,1.89-2.27,2.04.47-.35,1.37-2.12,2.27-2.04Z"/>
                      <path class="cls-9" d="m860.39,789.94c-.06.34-.3,1.1-.72.87.22-.39.5-.49.72-.87Z"/>
                      <path class="cls-9" d="m821.64,773.44c.29.24.52.49.33.92-.28-.14-.64-.26-.69-.49.14-.07.26-.22.36-.43Z"/>
                      <path class="cls-9" d="m855.04,790.13c-.12,1.54-1.88,3.31-3.12,3.44.68-1.01,2.26-1.69,3.12-3.44Z"/>
                      <path class="cls-9" d="m848.22,793.41c.36.36-.3.54-.45,1.14.22.14.4.06.53-.24.13.53-.64.64-.92.73-.38-.07-.01-.48-.39-.55.36-.61.82-.7,1.23-1.08Z"/>
                      <path class="cls-9" d="m823.33,784.36c-.01.74-.87,1.28-1.27,1.69.02-.72.96-.9,1.27-1.69Z"/>
                      <path class="cls-9" d="m815.87,802.03c.1.18.17.31.27.5-.37.16-.77.52-1,.04.21-.37.49-.34.73-.54Z"/>
                      <path class="cls-9" d="m851.49,442.11l-.31-.7c.16-.06.32-.12.26-.29.18.18.44.05.58.41-.55.09-.45,1.54-1.03.63.15.06.31.04.5-.06Z"/>
                      <path class="cls-9" d="m850.97,470.12c.49.53.82,1.91.57,2.35-.14-.56-.37-1.52-.57-2.35Z"/>
                      <path class="cls-9" d="m855.49,476.83c-.04-.32.14-.51-.07-.94.36.05.88,0,.53-.67.31.35.57.85.91,1.13-.52.02-.72.8-1.01.03-.32.22,0,.43.13.76,0,.51-.24-.57-.49-.31Z"/>
                      <path class="cls-9" d="m852.91,485.82c.65-.31,1.24.9.77,1.17-.2-1.27-.26-.56-.77-1.17Z"/>
                      <path class="cls-9" d="m857.89,486.39c-.35.1-.56-.85-.48-1.11.17,0,.26.19.44.17-.24.13-.32.32.05.94Z"/>
                      <path class="cls-9" d="m857.88,505.92c.16,1.33.41,3.09.83,3.96-.73.74,1.02,2.88-.19,3.47.11.59.73.04.81.71-.05.5-.22.92-.23,1.46.49.31.54,1.22.16,1.51-.05-.19-.24-.08-.31-.23.23-.64-.27-2.08-.7-2.59.27,1.05.35,2.45.89,3.32-.03-.17-.13-.4,0-.46.08.43.38.37.46.8-.23.16-.47-.31-.31.24.16.16.38.2.49.49-.11,1.03.05,2.54.59,3.4-.65,1.56,1.29,4.05-.22,4.67.55,1.11.9,2.28.61,3.53.07.27.41,0,.45.35-.45,1.33.96,2.88.96,4.36-.49.01-.21-1.48-.69-.91.91,1.97.34,3.87.72,5.48-.28,0-.25-.61-.6-.48.13.45.13,1.47.45,2.03-.15.08-.18.26-.44.25.52,1.01.16,2.06.17,3.3.31.14.37-.47.47-.1l.17.87c-.19-.16-.48-.1-.44.24.44,1.2.43,2.8,1.12,3.86-.52-.35-.04.4-.03.46l-.24.05c-.1,2.31,1.86,6.59,1.3,7.74.23-.3.86.51.55,1.11-.3.16-.29-.25-.52-.21.77,3.5,1.25,7.41,1.86,11.54.01-.12-.04-.29.08-.31.11,1.96-.11,2.83.37,4.43,0,1.49.52,4.21.58,4.99.05-.14.13-.87.3-.49-.54,1.67-.35,3.02-.09,5.22-.55.24-.39,1.82.19,1.76.02-.48-.12-.73-.33-.85.15-.21-.08-.77.41-.65.07.75.46,3.07-.15,1.95.68,2.22-.13,3.01.43,5-1.11.49.14,3.13-.51,3.01.36.51.37,1.35-.07,1.93-.39-1.24-.29-2.13-.64-2.89.09.48.12.9-.13,1.05.47.61.46,1.27.17,1.9.53-.07.12.58.06.73.4.14.06-.48.46-.34.27.94.18,2.12-.12,3.1-.04-.27-.12-.48-.29-.56.24.8-.33,1.77.39,1.88.05-.31-.22-.95.04-1.03.29,1.04.2,1.82-.05,2.51,0-.19-.06-1.06-.17-.58-.06.69.22.87.34,1.3-.76,1.54-.37,2.58-.52,4.16.45.17.4,1.06.5,1.73-.17,0-.26.09-.35.17-.31.06-.14-.56-.51-.41.03.59.25,1.91-.22,2.79.26.35.61,2.1-.14,2.34-.15-1.01-.33-1.9-.11-2.47-.41-.13.1-3.01-.62-2.73.17-.14.36-.24.31-.61-.2-.2-.41-.64-.8-.97.86.01-.47-.84.28-1.04.07-.48-.33-.28-.4-.56.09-.4.37-.6.4-1.05-1.19-3.23-.35-7.07-.95-10.31-.02.74.1,1.66-.29,2.08-.05-.25.28-.76-.07-.87-.09.27.01.73-.17.89-.26-.76.33-1.35.1-1.62.03.84-.45,0-.48.05-.17.3.2.71-.25,1.2.23.01.25-.19.47-.19-.01.3-.3.32-.31.62,1.37,1.91.49,5.16,1.3,7.48-.61.17-.24.66.05.58-.13.67-.38.79-.64,1.07.85.54.11,2.37.73,3.16-.64.94.24,2.92.2,3.92.02-.11.09-.17.23-.16.07.51.22.82-.07,1.17-.31-.33.17-.28.09-.73-.81,1.09-.07,2.72-.3,4.24.18.22.28.55.4.85-.32.29-.18,1.09-.16,1.75.35.1.6.33.53,1,.8-.78.52-2.14.34-3.08.48.49.53-.32.85.25-.65.45-.07,2.75-.21,3.37.04-.28.02-.63.33-.6.02.44.38,1.24.07,1.6.05-.73-.45-.55-.05-1.02-.36.29-.66.65-.79,1.2.38.1.12-.51.59-.31,0,.15.11.17.13.29-.32.21-.06,1.6-.55,1.18.22,1.05.12,2.63-.57,3.07.29,1.76.65,3.14.4,4.93-.18.03-.44-.05-.48.15.27.11.3.5.49.72-.42.05.01.39-.24.44-.03-.2-.26-.16-.36-.29.04.34-.02.56-.11.72.37.11.14-.5.6-.3-.01.36.19.45.25.72-.44.56.35,1.44-.1,2.47-.16-.05-.23-.21-.48-.15.04.53.54.51.61,1.02-.17-.04-.21-.24-.36-.29.89.73-.09,2.44-.15,2.9.03-.16.21-.35.24-.14-.3,2.34-.1,4.34-.19,6.52-.13.01-.18-.22-.24,0,.07.98,1.27,6.06-.15,5.07-.03.11-.01.28-.13.28-.01-.17.03-.41-.11-.44-.2.44.14,1.28.19,1.89-.16.14-.37.22-.49.41.76,1.11-.6,1.77-.32,2.87-.32.03-.05-.56-.45-.45.88,1.53-.14,3.97.06,6.06-.32.02.17-.8-.32-.6.23,1.52-.38,4.29-.19,6.2-.33-.47-.2.52-.52.54-.71-1.33.11-2.62-.42-4.36-.18.07-.61-.21-.61.1,1.08.55.29,2.28.6,3.5-.19.05-.13.44-.5.25.63,1.18.16,3.34-.41,5,.48.47-.24,1.39,0,2.16-.14-.33-.66-.3-.64-.79.33-.13.47.49.49-.09-.86-.28-.06-2.06-.32-2.48-.07.36-.18-.22-.48-.05.26.64-.16,1.15.16,1.74-.4.28-.89,1.42-.1.85-.75.41-.33,1.61-.96,2.06.27-1.53-.21-2.16-.11-3.31-.49.63-.3,1.03-.43,1.67-.17-.01-.26-.09-.34-.18-.3,2.04-.33,3.42-1.27,4.86.14.04.34.01.34.18-.59.85-.57,2.56-.63,3.5.03-.17.07-.33.27-.25-.05.62-.08,1.36-.55,1.36,0,.33.5.2.39.62-.33.4-.84.52-1.13.99.53-.38.4,1.99-.32,1.24-.22.86.06,1.39-.67,1.9.18.29.4.54.46.92,1.15.08,1.24.39,2.11.46-.13-.79-.19-1.35.6-1.49-.29-.2-.1-1.33.25-1.55-.6-1.06.64-2.24.72-3.78.57.16.19-.46.67-.64.02.41.04.95.05,1.45-.34-.25-.47-.04-.76.19.32.24.12.95-.18,1.13.47.23.31-.56.59-.64.09.57.06,1.24.21,1.76-.71.18-.83,1.22-.67,1.92-.32.24-.36.23-.59-.08.31,1.38-.11,2.96-.72,3.78.81.51-.51,1.46-.31,1.97.1-.19.24-.31.42-.36-.15.42.14.45-.02.86-.46-.11-.51.45-.72.75.2.17.46-.36.47.08-.32,1.17-.48,1.6-.28,2.56-.41.05-.71-.12-.85.72.21.03.36.1.44.22.23-.32-.24-.64.13-.7.1.86-.82,1.3-.18,2.14-.14.18-.21.52-.56.33.1-.26.48-.03.47-.49-.58.07-.44-.64-.39-1.08-.24.9-1.63,1.2-.85,1.72-.57,1.32-1.25,2.15-1.96,3.51-.16-.07-.15-.27-.3-.34-.4.68.36,1.29-.38,1.22.13-.68.39-1.47.14-1.84-.07.25-.17.45-.35.51.4-.55-.43-.22.02-1.29-.47.02-.28-.47-.62-.55-.26.29-.35.88-.7,1.01-.12-1.13.1-1.77.72-2.29.02.21-.29.68-.03.71.09-.77.32.56.41-.21-.4-.5-.31-.99-.42-1.5.42.37-.19-.68.53-.76-.06-.26-.33-.35-.36-.63.99-.93,1.17-3.07,1.53-4.16-.17.18-.2.61-.56.48.02-.14-.07-.18-.07-.3.6-.34.15-1.37.83-1.43.1-.72-.01-.71.29-1.09-.24-.17-.57-.01-.36-.77.23.08.17.41.41.49.22-1.09.09-3.14.83-3.73-1.57-2.07,1.53-4.54.32-6.22.16.02.14-.23.27-.25-.11.36,0,.51.31.47.04-.72.09-.69.43-1.66-.68.13-.71,1.23-1.26,1.56-.19-.33.03-1.04.05-1.56-.37.14-.52,1.4-.56,1.78,0,0,.38.12.33.33-.05.19-.37.32-.42.52-.26.91.12,2.35-.68,2.74.14-.48.01-.73-.22-.88-.11,2.35-.68,3.73-1.01,6.37-.12-.02-.12-.13-.22-.17.12.94-.48,1.86-.1,2.97-.16-.06-.16-.26-.31-.34,0,.6.12,1.1.23,1.6-.24-.34-.46.4-.8.43.26.02.36.18.29.48-.22.28-.26-.23-.38.08.03.74-.03,1.56.12,2.15-.22-.03-.25-.77-.53-.38.43.97-.9,3.11-1.18,3.89.23-.38.29.5,0,.57.26.24.48-.47.5-.04-.5.09-.35,1.06-.61,1.16-.46.13.02-.48-.27-.48-.38.5-.71,1.1-.98,1.79-.25-1.38,1.2-3.71.69-5.67-.3.06-.03.61-.05.84-.8-.06-.16.46-.52.75-.88-.52.37-1.44.19-2.08-.05.16-.1.32-.29.23.03-.14-.06-.18-.06-.29.27-.83.98-2.26.34-2.47.16-.66,1.05-1.05.87-1.69-.33.68-.69,1.29-1.32,1.47-.16-.04.08-1-.15-.59.22,1.06.13,1.43-.05,2.38.21-.07.11-.67.47-.48-.12.4-.09,1.08-.46,1.04-.11-.43-.66.09-.41.2.18-.35.41.19.41.36-.18,0-.18.31-.23.52-.2-.05-.37-.04-.5.05-.1.42,0,.67.04.99-1.01,1.6-.25,4.29-.97,5.87.01-.08.02-.16-.09-.16.45.4-.12,1.15.25,1.18-.14.13-.49.83-.31.92.22-.04.12-.65.37-.63.13.06.15.19.18.32-.39.29-.24.38-.17.82l-.43.33c0,.88-.11,1.24-.18,2.09-.16-.03-.24-.12-.32-.21.04.39-.02.72-.31.92-.04-.42-.2-.76-.39-1.08.08.64-.28,1.56.18,1.88.13-.22-.2-.63.17-.67,0,.43.06.83.19,1.18-.2-.07-.31.07-.34.34-.22-.36-.68,0-.92.21.4.19.52-.18.89-.08-.26.6.15.18.13.46-.13.7-.62.66-.82,1.22-.33-.25-.23-.79-.46-1.1-.27.73.23.93.08,1.58-.29-.09-.3-.34-.5.02.5,1.02-.18,2.67-.35,3.74.33-.1-.11-.46.25-.5.16.08.06.33.13.46-.3,0-.38.45-.8.22.22.86-.34,1.58-.42,2.59-.2.08-.95.09-.64.54.06-.16.12-.31.3-.2-.03.59-.14.99-.37,1.9-.83-.14-1.05.98-1.6,1.41.09.34.32-.09.31.23-.98,1.18-1.19,2-2.05,3.67.09-.91-.41.77-.54.12.07.65-.09,1.74-.39,2.02-.02-.23.61-.05.46.14-.29.2-.44-.09-.4.45-.39-.2-.66-.15-.81.18.01.2.43.16.38.4-.31.35-.26.47-.48.71,0-.21-.08-.37-.22-.5-.06.46-.3.14-.38.02-.23.37-.47.72-.78.89.56.18.95-.06,1.26.4.19-.39.64-.19.97-.27-.55,1.94-1.79,4.36-3.17,5.71-.29-.38-.62-.49-1.06-.22,1.87,1.5-1.54,3.07-1.25,5.01.56.4.73.14,1.4.36-.48.97.03,1.41.28,1.99-.09.83-.32,1.12-.5,2-.14-.04-.28-.06-.32.17-.03.39.34-.26.61.08-.25.9.73,1.52.17,2.27.71-.02.98.38,1.18.6-.15-.05-.28.3-.14.39.11-.19.16.07.01.3-.08-.35-1.09.32-.63.65.39-.37.89-1.12,1.35-.52.11-.48.35-.63.63-.65.11.22.19.45.25.69.28-.03.5-.22.76-.31.13.72-.11,2.33-1.14,2.7-.05.58.71,1.54-.25,1.7.03-.19,0-.69-.26-1.01-.2.51.26,1.47-.5,1.6-.28-1.35-.1-3.24.74-4.64-.98.7-1.14,2.68-1.18,4.16-.5.43-.9,1.67-.85,2.5-.21.26-.52.19-.72.45-.39.97-.32,3.59-1.57,2.94-.37.38.34.24.16.52-.2.18-.4.35-.72.14-.44-1.66-.2-3.63-.53-5.31-.44.22-.8.68-1.39.46-1.26,2.75.94,4.92-.41,7.75,1.21.04,1.13,1.44,2.35,1.21-.11.22-.15.41-.12.56.93.26,1.64.31,1.96,1.2.18.08.22-.33.39-.29-.19.43.28.54.43.81.19-.01.24-.49.45-.42,2.66.56,4.23.31,7.34.31.99-.81,2.2-.82,3.21-1.61.3.52,1.22-.24,1.55.35.1-.32.25-.49.46-.44-.16.29-.2.51-.02.63.19-.69.62-.03.67-.03,1.02-.01,2.21-.82,3.32-.68-.24,1.62-2.29,2.41-2.24,3.87-.52.35-.93,1.09-1.59.92.17-.43.28-.84-.08-1-.83.74-1.63,1.54-2.3,2.83-1.06-.25-1.53,1.63-2.28,2.5-.22-.1.02-.43-.32-.47-.43,1.53-1.61,3.13-2.69,4.37-1.52-.1-2.75,2.92-4.05,2.36-.44.55-.87,1.18-1.43,1.21-.44-.45-.5-1.05-1.34-1.33-.75.03-1.26,1.12-1.94,1.41.38.24.32,1.19-.23,1.49-.17-.2-.04-.51-.16-.73-.89.16-1.36-.23-2.2-.19-.18.44-.36,1.15-.9.97.05-.26.58-.36.32-.63-.22.4-.58.17-.81.53.71.38-.23.52-.39.75.05.49.55.22.72.71-.7,1.64-3.4,1.59-3.02,3.18.24-.07.42-.47.61-.79,1.39-.28,2.64-1.01,3.85-1.78.12.12.11.29.36.35.17-.47.06-.83.27-1.31.3-.06.59-.13.77-.72.22.78.66-.15,1.05.07-.06.49.02.47.5.59-.13.25.21.31-.05.62-.86,1-1.83,2.16-2.7,3.6,1.05-.12,1.78-1.33,2.68-1.98.85.69,1.37.37,2.43-.02.35-.35-.29-.28.05-.63,1.26.19,2.72-.61,3.85.37-.91,1.58.35,2.22-.62,3.83.46.28.29.83.61,1.17.24.08.42-.11.62-.17.24.24.18.6.19.94,1.18,1.18,1.74-.73,2.8-.19-.31,1.32-1.36,2.94-1.37,4.03.38-.45,1.21-.27,1.21.32.75-.53,1.67-.14,2.37-.77.16-1.62-1.08-2.2-.77-4,2.14.03,3.95-4.04,4.92-5.1-.13.15-.28.21-.46.11.24-.69.59-.9.91-1.24-.48-.12.16-.76-.02-1.02-.2.15-.38.35-.64.19,1.13-2.07,1.09-3.53,1.98-5.72-.12-.08-.32-.12-.27-.29,1.4-2.87,1.72-5.06,2.68-7.83-.12-.08-.32-.11-.27-.28.45-.47.76-1.2.95-1.54-.07.09-.16.12-.28.04,1.12-2.04,1.75-5.07,3.59-4.83-.21.15-.27.29-.07.46.34-.33,1.02-.88,1.31-.28.19-.75,1.01-.97,1.25-.47.17.02.29-.12.5.04.26-.42.21-.26.1-.61.15.07.27.03.39,0-.07.23-.2.49.06.51.26-1,.57,0,.99-.26.15-.57-.56-.62-.13-1.36.12.43.45.12.78.31-.07.07-.48.44-.21.57.15-.36.5-.06.72-.21.1-.25.14-.45.1-.61.21.68.27-.74.72-.21-.65.83-.76,1.71-.91,2.76-.86.08-1.35,1.82-2.25,1.89.02-.19.02-.36-.04-.51-.22.27-.54.19-.8.33-.53,1.57-2.4,1.02-3.24,2.58.58.29.29.99-.17,1.57.55.23.22.62-.1,1.11,1.17.14.61,1.7,1.67,1.56-.22.12-.37.45-.14.6.22-.03.28-.69.58-.41.15.1-.05.38-.14.6,1.18.43,1.84-1.22,2.86-1.43-.35,2.48-2.41,2.81-2.9,4.76l-.44-.2c-1.14,1.51.68,2.31-.17,3.63.35,1.04.4,2.24.01,3.58.2-.06-.12,1.02.15,1.27-1.17,2.29,2.03,1.01,2.49,1.71.64-.24,1.24-.71,1.95-.63-.25.52-.01.5.25.29l-.29.56c.7.29.47.81,1.16.38.41-1.52,1.5-2.57,2.68-2.75-.09.23.23.24.02.53.44.36.58-.6.97-.42-.61.92-1.44.67-2.13,1.45.37.03.18.33.47.4.16-.25.04-.37.18-.61.07.38.48-.13.79.02.26-.63.42-.45.84-1.01-.16-.15.01-1.02.34-1.07-.45.89.4-.1.24.64.73-1.17,1.19-1.39,1.47-2.13-.07.55.02,1.02.49,1.27.1-.43.35-.18.52-.29,1.05-1.76,2.49-2.02,3.69-4.15.34.85-.62,2.03-1.06,3.57.23.39.25.89.83,1.08.61-1.63,2.38-3.25,2.47-5.27,1.13-.7,1.11-3.46,2.12-5.06.4-.63,1.08-2.25.47-2.94.87-2.11,1.37-4.48,2.35-7.2.36-.07.31.64.51.02-.29-.99.74-2.62.69-3.51-1.05,2.51-2.16,4.69-3.13,7.23-.17-.03-.28.17-.45.17.85-1.53,0-4.31.74-3.66-.09-.21.6-.68.74-1.26-.87-.74.6-1.55.85-2.59-.31-.06.13-.61-.28-.61-.36-.08-.54.46-.9.35-.44-1.2.47-1.98.9-3.4.18,0,.26-.11.34.12.05-.39.21-1.54.73-1.27-.06.82-.14.25-.39.71.3.44.65.2.96-.17.05.53.65.71.51,1.36.12-.28.26-.48.45-.52.21.2.03.66.34.8.08-.61.43-1.27.97-1.88-.61-.2-.04-1.07.11-1.32.26.3.15.75-.17,1.13.62-.1-.07.65.4.65.42-.54-.41-2.67.83-3.12-.62,1.31-.06,1.79-.14,2.67,1.34,1,1.57-.98,2.37-1.76.27-1.37,1.55-3.14,1.49-4.29-.29.44-.43,1.56-1.11,1.51-.46-.51.57-.82.11-1.15-.37.63-.19,1-.73,1.12.06-.2-.16-.2-.13-.38.33-.58.89-1.18,1.19-.98-.37-.07.43-.35.03-.5-.17.2-.44.11-.67.13-.21.77-.54,1.2-1.01,1.2-.24-1.32.7-2.02.24-3.13.29-.05.82-.96.67-1.31-.07.28-.23.32-.44.2,1.2-2.08,1.54-3.39,2.33-5.35.16.66-.11.92-.14,1.64.29-.26.5-.72.87-.76.08.59.14,1.08.51,1.16-.18.88.06,1.55-.51,2.38.61-.18.57-.98.6-1.51.12.04.18-.08.28-.09.38.93.99.75,2.02.77-.42,3.39-2.63,5.59-2.98,8.98-.5,1.1-1.44,2.11-1.93,3.83-.25-.15-.35.19-.63-.04-.23,1.44-1.05,2.57-1.77,3.34.72.42-.74,1.2-.58,1.87-.18,0-.26.11-.34-.12.27,1.42-1.46,1.67-1.6,3.22.33-.62.4.79.79-.4-.18-.3-.57.23-.45-.17.67.3,1-1.02,1.76-1.26-.31-1.08.62-1.71,1.1-2.9.26-.04,1.06-.06.85-.56-.18.64-.35-.26-.51-.35.32-.88.98-1.55,1.37-2.28.42.46.26.37-.12.99.43.13.39-.06.68.24.41-.66.07-.81.06-1.19.67.47.98-1.65,1.51-2.08-.26-.05-.32-.25-.19-.58.14.11.13.25.34.11.93-2.99,1.42-5.83,2.56-8.45-.09-1.03.42-3.78,1.55-3.29,1.72-3.06,2.13-6.58,3.38-10.1-.26-1.35.25-2.82.76-3.86-.08.15-.18-.4.05-.66.86-.98.63,1.01.36,1.95.17-.83.77.19,1.01.42-.17,1.86-.58,3.29-.67,4.92-.15.4-.47.39-.6.86.28.79-.59,1.35-.7,2.19-.05.49.34.96.21,1.42-.14.52-.78.84-.91,1.28-.08.26-.02.78-.07,1.01,0,0-.2-.17-.18-.22-.15.47.1.79,0,1.2-.02.07-.37.02-.4.06-.38.51.01,1.39-.14,2.02-.48.35-.36-.69-.62-.01.38.16.1.8.28,1.12-.78.25-.51,1.79-1.07,1.4-.13,1.13-.45,3.1-.79,4.07.08-.18.24-.11.39-.05-.39,1.18-.5,1.57-.47,2.28-.12-.04-.1-.17-.18-.23-.5,1.8-.89,3.35-1.47,4.39.09.21.25.37.28.62-.44.29-.35.43-.18.81-.33.24-.73-.05-.69.46.52-.42.15.74.1,1.09-.23-.08-.3.37-.57.15-.28-.05.04-.49-.16-.59-.35,1.03-.01,1.14.5,1.4.32-.31.56-.93.87-1.28-.54-.52.48-2.04.88-2.33-.08.21.15.21.11.39-.14-.02-.31-.14-.4.04.36,1.15-.4,1.98-.94,3.18.58-.21.23.41.67.59.46-1.23.92-2.45,1.35-3.58-.4.41-.17-.57-.22-.78.28-.24.94-1.01.85-1.29-.08.18-.23.11-.39.04.72-.49.82-1.53,1.26-2.38-.38.97.04.61-.06,1.38.38-.64.65-.99.39-1.62l.34.11c.1-1.61,1.59-3.69,1.82-5.71.14.02.32.13.4-.05.1-1.79,1.65-3.99,1.45-4.95.45.06.37.9,0,1.21.83.13.51-.97.57-1.4l.23.07c.08-.67-.35-1.1-.19-1.79.2-.88.9-.95,1.04-2.13-.63.19.28-1.19.08-1.7-.52,1.71-.04-2.08.74-1.87-.18.52.1.68.09,1.06.19-.9.24-.44.75-.49.06-.75.41-.75.57-1.23-.39-.02-.52.64-.83.81.06-.22.04-.37,0-.51.24-.34.89-.43.49-.91.2.07.37.06.51-.04-.42,2.67-.45,3.68-1.59,5.96-.1,1.54-1.33,2.84-1.18,4.53-.22-.05-.25.5-.5.38-.3,2.08-2.16,3.84-1.82,5.73.16-.44.25-1.12.58-1.04-.19.49-.51,2.85-1.17,2.09-.05.4-.07.78-.29,1.31.4.4.28-.82.6-.69-.18.74-.47,2.42-1.26,2.76-.85,2.93-1.63,5.11-2.94,6.77.55.3-.38.22-.46.55,0,.45.61.05.51.36-.06.16.02.22,0,.35-.13.64-.49.46-.69.82.24.3-.15,1.04-.37,1.65-.89-.19-.78,1.14-1.05,1.75-1.09,2.52-2.75,5.75-3.49,7.79.95-1.45.86-2.1,1.88-3.21.26-2.04,1.81-4.13,2.49-6.21.27.13.44-.12.68-.11.1.25-.05.66.04.91.47-.52.41-2.44,1.47-3.21-.34-.22.06-.65.24-.98-.58-.78.35-3.12.85-3.96.2.11-.52,1.43-.13,1.02.18-.47.35-.96.7-.83-.04.3-.49.87-.24.98.36-.44.53-1.54,1.16-1.03.33-.63-.51.07-.28-.62.1,0,.18-.09.22-.28.59-.03.46.48.63.74.56-.61.08-.81-.07-.91.46-.4.3.56.68.23.41-.62.7-1.33.79-1.69-.08.17-.21.21-.33.25.16-.26-.12-.77.26-.8-.04.19-.17.45-.04.52.6-.79.79-2.34,1.49-2.7-.03-.44-.44.18-.41-.31.13-.97.66-.7.92-1.3-.14-.14-.65,0-.52-.34.23-.55.3-1.6.8-1.34.03.2-.29,1.26-.03.87.07-.97.52-1.52.15-2.07.34-.6.58.31.84-.27,0-.24-.43-.16-.36-.46.28-.15,1.3-1.7.59-1.05.32-.65.35-.79.68-1.73-.16-.08-.44-.07-.41-.3,1.28-2.56,1.51-5.03,2.43-7.35-.18-.12-.36.16-.35-.09.42-.86.78-1.56.48-2.3.16.04.24.14.31.26-.04-.72.45-1.51.79-2.05.34.57-.27,1.3.43,1.68.23-1.15-.6-1.89-.05-3.14-.21-.29-.55.31-.47-.12.28-.46.26-.61.14-1.01.39.11.56-.37.8-.67-.1-1.4,1.02-2.45.63-3.82,1.05-2.5,1.8-6.34,1.75-8.54.32-.09.32-.89.76-.7-.23-1.03.6-1.4.21-2.18-.06.2-.12.38-.3.28-.02-.41.02-.45.12-1.17.19.02.4.1.42-.26-.65-.68.38-1.84.67-2.6-.22-.09-.28.18-.42.26.07-.65.24-1.85.88-1.88.04.44-.63.48-.29.8.08-.22.3-.14.42-.26-.3-1.91.43-4.34.77-5.48.12-.42-.26-.7-.22-.89.11-.51.7-.83.65-1.75,0,.17.05-.23.11-.66.02-.16.05-1.93.61-2.27.31-.02-.04,1.32.22.88.05-.6-.05-.82.21-1.32-.63.03-.36-.94-.05-1.19.09.55,0,1.3.35,1.58-.02-1.06-.23-3.05.81-2.76-.12-.02-.1-.31.05-.33.19.72.49.49.67,1.12-.68-2.29,1.27-3.78.09-5.91.23,0,.23.22.45.23.09-.51-.3-.52-.05-1.19.22.07.29-.15.5-.1.02-.44.08-.92-.05-1.19-.07.74-.36,1.02-.78,1.08.35-1.08-.1-1.69.66-2.62-.22.65.28.54.05,1.19.31-.12.76.04.82-.57-.17-.05-.45,0-.45-.23.55.18.98-1.97,1.09-2.9-.43-.23-.39.37-.75.25.16-.18.2-.57.23-.98.25.38.23.27.7.25.17-.52-.37-.27-.28-.71.45.07.35-.85.71-.93-.32-.78.04-.95.33-.81-.25-.67-.11-.91-.44-1.4.27-.25.15.03.48.05-.04-.73,0-.65.25-1.15-.1-.27-.3-.45-.4-.72.28-.27.16-.67.38-.13.45-1.81-.84-2.56-.46-3.41-.87-.19-.44-.92-.07-1.52-.25-.25-.5.39-.48-.05.32-.43.32-.82.29-1.48.4-.11.34.29.56.39-.16-.39.13-.9,0-1.01-.09.23-.23.39-.42.47.05-.39-.15-.51,0-1.01l.36.03c-.47-1.46.25-3.37-.25-4.03-.07-.54.34-.32.41-.64-.16-.02-.27.06-.37.14-.24-.43.82-2.32.1-1.33.11-.78.59-.98.35-1.48-.06.38-.35.37-.36-.02.16.25.37.15.38-.31-.19-.17-.22-.54-.3-.85.29.47.27-.75.19-.99-.03.13-.03.33-.14.32-.03-.33-.21-1.25.11-1.49.16.11-.03.64.19.68.25-.55-.11-.75-.14-1.34.73-.21-.42-1.68.49-1.8-.55,1.3.92,2.26-.09,3,.67.07.23.61.38,1.36.39-.17.27.28.45.36.15-.76-.1-.48-.19-.68.14-.15.08-.61.4-.48,0,.2-.05.47.09.51-.05-.69.13-1.03.44-1.14-.21-.89.17-1.48.12-3.34-.19-.32-.39.21-.45-.36.69-2.14-.18-4.17.14-5.83-.35-.35-.7.28-.7-.53.18-.4.42-.28.73-.14-.42-1.54.33-2.5.25-4.15-1-.71.06-2.97-.72-4.01.14.77.12,1.76-.31,2.15-.42-.63-.49-2.58.31-2.32-.4-.92.55-1.68-.18-1.99.77-.17.79-2.06.58-3.15.03.16.14-.24.14-.66,0-2.2.09-4.89-.47-6.95.19-.02.42.02.36-.34-.31-.02-.62-.02-.6-.49.26-.11.38.46.36-.17-.2-.16-.36-.51-.13-.83-.18-.36-.29.21-.36-.16.01-.31.08-.55.24-.66.19.01.1.42.36.33-.26-.6-.16-.75-.37-1.48-.41-.02.01.56-.48.67-1.56-3.52-1.07-7.8-1.52-11.49.3-.19.23,1.01.38.48-.39-1.57-.77-1.9-.25-3.11-.03-.6-.45-.61-.64-.96.28-.6-.63-2.26.11-2.96-.44-.07.01-.81-.41-1.13.44-.04.33-.32.1-.5.69-.11.13-.91.55-1.19-.42-.24-.35-.71-.18-1.31-.19-.35-.28.23-.37-.14.24-.82-.41-1.98.36-2.49-.59-.41-.57-2.6-.12-3.12-.69-.07-.69-1.92-.39-1.94-.36-.57-.7-1.2-.99-1.89.18.07.32.22.5.28-.11-3.02-.95-5.35-.72-9.14-.2.03-.32-.09-.39-.29.79-1.2-1.12-3.62.31-3.81-.09-.82-.43-.02-.67-.58-.07-1.87-.62-3.17-.22-4.25-.44-.98-.36-1.46-.77-2.7.27-.08.18.45.41.44-.23-1.55-.63-2.32-.15-3.6-.55.13-.52-.8-.96-.86.09.88.18,2-.42,2.52-.3-.67.33-1.06-.02-1.31-.63,1.68.38,2.48.47,4.37-.16.03-.27-.04-.37-.12-.15.66.22,1.35.45,1.91-.45,3.16,1.36,6.73.66,9.76.61.9.7,2.66.92,4.17-.58-.21-.28-1.86-.88-2.05.05.8.66,4.01-.2,3.62.32-.03.7-.15.74.26.12.44-.21.35-.19.67.69.24.52,2.96.54,3.88.02-.13.09-.2.23-.18-.2.32.55,1.35.15,1.95,0-.37-.08-.61-.29-.63-.38.7.52.52.46,1.28-.27.07-.17-.46-.4-.46.29,1.36.15,3.84.42,5.05.4.18.07-.53.47-.36-.06.24.18.84-.08.83-.17-.03-.21-.26-.37-.3.04,2.51.38,4.95.34,8.01-.54.43.21,2.38.14,3.27-.08,1.17.25,3.09.35,4.74.19,2.63-.21,5.33.41,7.54-.19.02-.42-.02-.36.33.18.03.44-.06.48.16-.08.76-.31,1.32-.71,1.65.24.16.42.41.6.65.03-.29-.34-.82,0-.99.05.31.35.29.25.82-.76.68-.26.3-.47,1.32,0-.28-.09-.42-.24-.49.38.75-.26,1.9.14,2.63.19-.86.07-1.12.35-1.81.09.85,0,1.05.25,1.81-.22.16-.4-.49-.48,0,.5.78-.87,2.05-.32,3.12-.09-.33.22-.9.25-.49,0,.41-.2.51-.26.82.8.64.02,1.83.4,2.64-.18.41-.35.39-.49.49.39.28.47,1.81.41,2.15-.38.07-.07-.76-.34-.83.03,1.65.42,2.22.63,2.98.02.38-.35.17-.38.48.53-.25.61,1,.66,1.83-.42-.07-.62-.03-.71-.19.14-.17.07-.76-.09-.99-.25.46-.42-.5-.7-.51.08-.34.2-.34.37-.16-.24-1.22.12-2.73-.12-3.95.14.03.26.3.36,0-.43.25-.06-.56-.34-.5-.25.47-.5-.39-.58-.67.17.19.29.18.37-.16-.73-.39.12-1.23-.31-1.65.19-.38.37.33.37-.32h-.48c0-.7-.03-2.32-.04-2.79.07-.41-.61.45-.47-.33.56.12-.2-1.81.61-1.97-.4-1.52.16-2.14-.38-3.44.2-.07.39-.97.11-1.15.09.26-.23.71-.24.33.53-2.41.18-5.64.42-8.19-.02.18-.13.26-.24.33v-.65c.16-.01.26.07.36.15-.3-.56.44-1.43.23-1.81-.14.47-.14-.26,0-.33-.33-.1-.27-.02-.48-.47-.02.25.05.6-.11.66-.5-1.38-.07-3.43-.06-4.9-.24-.5-.38.57-.6.03.42-.53-.63-1.23-.06-1.47.31.12.27,1.67.76.94-.34-.76-1.14-1.27-.69-2.26-1.18.2-.73-2.03-1.32-2.7.22-.4.53-1.5.15-2.13-.08,1.18-.31,2.19-.97,2.66-.03-.19,0-.46-.14-.48-.16.92.56.55.42,1.44.45,0,.14-.96.56-1.01.12,1.3.23,2.47.02,3.42.08-.53-.4-.21-.39-.63.1-.15.31-.93.08-.98-.64-.2-1.16-2-.61-3.06-.7-.44-.05-1.43-.07-1.62-.09.45-.45-.11-.49-.29.55-.02.33-1.68-.15-.8-.04-.67.26-.82.44-.84-.28-.5-.53-1.04-.9-1.4.3,0,.39.28.47-.2-.18-.38-.24-.08-.37-.3.02-.13.09-.2.23-.18-.9-.52.26-1.98-.17-2.26,0,.2,0,.38-.22.34,0-.74-.05-1.53.34-1.81-.55-.2.16-.57.03-1.14-.81-.17-1.1-2.89-.45-2.73-.34-.52-.74-.82-.36-1.59-.65-.15-.07,1.1-.38,1.33-.33-.43-.1-1.76-.41-2.23.3-.43.51-.75.91-.73-.11-.42-.48-.44-.66-.75,0,.19.05.46-.08.49-.49-.54-.39-1.81.34-1.82-.09.41.58.48.5.28-.53-.18-.5-1.25-.96-1.53-.12.74.39.46.33,1.1-.36.24-.5-.11-.69.39,0-.98-.07-1.43-.28-2.08.24-.02.18.43.5.28.08-.61-.43-.28-.53-.6.12-.31.11-.75.4-.85-.78-1.28-.55-2.28-.81-4.13-.55-.17.1.96-.25,1-.84-1.71-.91-3.59-1.66-5.32.17.02.23.24.39.28-.64-.9-.11-1.67-.69-1.86.37-2.42-.72-7.5-.35-9.68-.18-1.22-1.13-2.7-.39-3.68-.56-.56-.27-2.18-.73-2.65,0,.25-.19.05-.26-.12.17-2.6-1.14-3.67-1.26-6.62-.59.19.51,1.99-.42,1.86.18,1.58-.14,2.11.06,3.56-.04-.18-.04-.45-.18-.46-.01.13.04.31-.07.34-.03-.74-.21-1.21-.56-1.37.26,1.12.57,2.59.27,3.68-.57-.22-.26-2.36-.59-2.49-.08,1.01-.25,1.93-.18,3.1-.44-.45.02.48-.43.39-.4-.66-.17-1.09-.34-1.56.06.18-.27.6-.33.21.09-.53-.05-.53-.15-1.1.15-.05.45.58.5.08-.39-.57-1.07-1.64-.54-2.17-.23,0-.24.22-.45.24-.04-.39-.11-.76-.27-.92l.36-.06c-.4-.91-.68-1.33-1.14-1.75.02-.54-.05-2.46-.56-2.64-.04.84.74,1.88.06,2.57.42,2.11.53,4.65.9,5.97.25.84.09,2.11.27,2.85.19.75.65,1.86.09,2.39.18-.51-.35-1.04-.1-1.59-.22-.32-.26.24-.38-.1-.25-7.89-4.11-15.95-5.23-24.48-1.05.27-1.09-2.2-.95-3.03-.73-.26-.21-1.41-.77-1.45-.19.43.3,1.47-.17,1.65-.22-.05-.65.33-.74-.01-.58-1.83.19-3.11-.51-3.91.2.97-.54,1.93-.19,3.41-.06-.22-1.01-.02-.59.12.78-.33.28.69.8.96.08.54-.22.74-.56.91-.6-.36-.73-1.66-1.27-2.14-.49.13-.58.68-.26,1.17-.49,2.53,1.44,6.29,1.57,8.95.05.31-.29.26-.13.66.35,1.35,1.36,3.48.71,4.96.36.93.34,1.75.46,2.78.32,0,.49.3.51.87-.28-.22-.15.04-.47.08-.11-.4-.2-.84-.42-1.04-.13.22.13.82-.37.7-.17-1.04-.75-1.3-.98-2.21,0,.3-.29.34-.11.81.79.54.99,2.18,1.97,2.36-.04.37-.52.67-.78.45-.41,1.28.44,2.98.16,4.25-.44.07-.51-.51-.82-.66.09,1.13-.34-.12-.61-.06.51.76.63,2.22.95,3.32-.26,7.92,2.13,16.72,2.18,24.24.47,2.19.68,4.53.94,6.02.61.86,1.03,2.69.75,3.54.35.48.52,2.8.63,3.56-.07-.97-.16.06-.35.18-.13-1.31-.01-2.23-.67-2.46.04-.19.1-.36.2-.49.04.12.03.31.14.3.09-1.04-.76.28-.89-.56.63-.16-.2-1.08.65-.99.1.48-.23.66.18.77-.05-1.4-.32-2.69-.5-3.41-.39.57.26,1.61.18,2.34-.15.17-.43.19-.58.36-.23.84.22,1.57-.32,2.06-.57-2.1.27-1.72.12-3.14,0,.09-.08.18-.12.01-.18-.98-.02-1.45-.3-2.32.15-.37.83-1.5-.11-1.4.15.6.25,1.34-.24,1.58-.12,1.35.86,2.04.47,2.93-.09-.66-.31-1.14-.71-1.35-.03.68.53.46.45,1.21-.17-.02-.22-.24-.38-.28.28.71.58,2.03.06,2.34-.31-1.28-.46-2.43-.74-3.37.17,0,.46-.07.23-.17l-.24.02c-.41,1.43.63,1.97-.13,2.97.02-.7-.43-1.3-.14-1.86-.67-.21-.9-1.73-.8-2.58-.69,2.2.88,3.76,1.16,5.67-.42.17-.51-1.05-.87-.4.88,2.08-.03,5.04.07,6.98-.5-1.82-.75-3.41-.64-4.92,0-.48-.32.42-.37-.13.34-1.28-.25-3.78-.68-5.68.18.05.22.17.36-.03-.94-.86-.4-2.68-.76-3.66-.02.12.02.3-.1.32.13-2.31-.15-5.4-1.06-7.5l.48-.05c-.71-2.32-1.61-5.77-1.29-8.56-.26.06-.39-.08-.41-.41-.56-6.7-2.72-14.18-3.39-20.37.03.24.1.52-.16.5.19-2.95-.5-5.37-.97-7.96.12-.36.43-.56.58-.89-.51.09-.23.27-.77.46.34-1.27-.05-2.9-.54-4.13l.35-.07c-.64-.86-1.04-2.08-.82-2.98.02.18-.15.2-.32.22-.25-.76-.43-1.41-.06-1.56-.19-.39-.22-.93.12-1.28-.22-.56-.57.14-.76-.16-.56-5.85-2.46-13.66-4.24-19.87,1.15,5.15,1.9,10.38,3.52,15.62-.33.04.34.96-.2.83.97,2.84.73,6.85,1.85,9.52-.13.05-.34.04-.32.22.43-.21.52.23.71.49-.46.41.28,1.41-.18,2.23.56.11.33,2.06.29,2.45.18.12.46.06.55.37-.42.17.17.74-.18,1.13.6.35.41,1.21.68,1.91-.69.25-.17,1.11-.05,1.88.23.31.26-.24.38.09.37,3.92,1.24,7.62,1.34,11.94-.04-.12-.04-.3-.16-.29-.03.48.36.24.34.73-.33.03-.2.29-.47.07.34.69.2,1.68.22,2.45.4.12.26-.28.43-.37,0,.37.26.3.22.74-.24.03-.21-.39-.52-.24-.06.73.46.46.41,1.18-.58-.01-.02.79-.31,1.28.48.24.5.31.76.21-.05.43-.09.74.24.9l-.36.05c.15.28.77,1.44.22,1.68.08-.69-.66-1.25-.28-2.14-.94.19.59,2.98-.28,3.6-.5-3.37-.74-5.95-1.13-9.45-.21-.03-.27.27-.36.05.03-.28-.27-.87,0-.93.32.13-.2.68.32.57-.05-.77-.33-2.19-.48-2.57.03.3-.19,1.03-.53.55.22-2.78-.69-5.98-1.04-8.38-.39-3.38-.81-7.04-1.25-10.85l.24-.04c-.82-1.3-.25-2.69-1.09-3.7.03-.44.05-.87.41-1.02-.12-.25-.03-.91-.29-.88.17.65.05,1.05-.38,1.18-.21-.83-.58-3.07-.56-4.12-.7-1.32-.75-3.57-1.46-4.71-.15.94,1.07,2.77-.07,3.15.1-1.01-.87-1.56-.69-2.67-.4.12-.47-.21-.43-.85-1.09-.49-.63-2.97-1.51-4.05.2-.41.25-.94.29-1.48-.4,0-.04.58-.43.26-.01.28.33.84.08.92-.95-3.12-1.73-5.69-2.5-8.2-1.09.29-.6-1.55-.97-1.96-.37.8-.4-1.2-.55-1.75-.37-1.34-1.07-2.72-1.45-3.4-.39.82.58,1.43.46,2.4-.28.02-.54-.02-.69-.29.17-.17-.23-.99-.57-.8.35.78.27,1.24.24,1.98-.55-.78-1.54-1.72-1.07-2.86-.66-.51-.7-1.62-1.23-2.82-.56.42-.74-1-1.01-1.93-.72-.58-.8.18-1.24-.92-.13.44.3.64.12.91-.62-.14-1.25-.25-1.47-1.32.17-.01.26.19.42.19-.27-.74-.8-1.52-1.05-1.59.11-.75-.19-.52-.39-.99-.32-.74-.22-2.05-.97-2.23-.12.61.52,1.21-.07,1.59-.46-.47.06-1.05-.39-.99-.21.51.65,1.8.05,2.02l-.23-.87c-.35.08-.12.85-.62.49.12.19.07.79.31.69-.11-.31-.03-.49.23-.53.11.37.25,1.18.35,1.77-.98-.83-1.58-3.25-1.83-4.48-.25-.05-.52-.05-.7-.27.18.67.37,1.34.4.51.21.53-.06.73-.22,1-.83-.89-.09-.85-.49-1.73.07.54-.07.8-.49.46Zm57.11,70.68c.43.07.2.55.09.81-.28,0-.15-.7-.09-.81Zm3.12,25.45c.07.2.29.88.47,1.44-.1-.08-.21-.16-.37-.14,0-.47-.09-.83-.31-.96.02-.18.23-.13.21-.34Zm3.61,63.55c-.21-.02-.32.1-.38.31-.26-.04-.23-.43-.18-.85.22.3.24-.11.47.2.08-.31-.09-1.01.3-.82-.18.21-.17.72-.2,1.16Zm-36,92.47c.28.14-.24.22-.21.61l-.34-.11c.07-.33.23-.37.33-.57.07.13.14.26.23.08Zm-48.3-2.81c-.44.53-.11,1.59-.7,1.53-.05-.41.08-1.67.7-1.53Zm29.36-132.73c.16.72.24,1.41.06,2.33-.28-.75-.21-1.54-.06-2.33Zm-7.76-115.23c.23-.06.25.35.54.16.18.44-.07.57.16,1.05-.14.02-.17-.24-.23-.4-.14.02-.2.09-.19.21-.27-.02-.35-.86-.27-1.01Zm5.61,5.16c.27.08.4.49.51.96-.35.02-.48-.46-.7-.75.14-.01.2-.09.19-.21Zm5.44,6.72c.3.09.93,1.27.33,1.33-.03-.63-.16-.6-.33-1.33Zm-7.8,19.5c.06-.6.76,1.07.22,1.02-.02-.24-.05-.84-.22-1.02Zm.23,3.9c.22-.18.38.69.41.22.18.08.57,1.36.14,1.34-.05-.77-.34-1.08-.55-1.55Zm44.03,23.46c.36-.04.42,1,.3,1.25-.47-.18-.29-1.01-.3-1.25Zm-20.61,9.53c.5-.13.2.65.24.9-.33.04-.38-.68-.24-.9Zm2.4,17.84c-.45.19-.17-.8-.45-.88-.15.12.1.4-.04.78,1.34,1.45.72,4.47,1,6.7.23,1.84.89,3.38.84,4.72-.11.11-.1.36-.33.34.37.51.01,1.16.14,1.84-.37.24-.32-.16-.19.63-.25-.27-.3,0-.6.04-.11-.41.22-.31.32-.48-.2-.21-.36-.49-.65-.57.06-.31.34-.38.43-.65-.06-.31-.35-.28-.41-.59-.37.34.07,1.44-.46,1.88-.13-.75.24-.95.11-1.7-.17.38-.16.94-.25,1.4.53,1.29,1.67,1.04,1.84,2.49.29-.11.24-.6.32-.95.64,1.11-.03,2.28.61,3.05-.11.21-.09.58-.33.64.1.43.62,1.35.19,1.53.03.29.4.09.38.44-.73,1.06.45,3.1-.06,4.17.57.74.54,2.58.38,3.23.98.79.65,3.66.1,4.78.06,1.19.37,1.06.38,2.15.03-.33.44-.97.23-1.09.44.01.38.75.38,1.85,0,0-.14-.16-.12-.31-.19,1.56,1.18,4.72-.31,6.5.01-.64-.04-1.19-.25-1.54.2.36-.36,2.11.38,2.32.06.49-.14.63-.35.77-.28-.05-.56-.1-.49-.62-.29-.06.07.7-.35.46-.03-1,.27-1.59.22-2.62-.25.35-.34,1-.35,2.01-.65-2.24-.76-3.68-.53-6.16-.55.02-.39.94-.83,1.09.24-1.63-.5-2.73-.27-3.83h.24c.26-.08.23.21.24.45.36-.28-.07-.82-.48-.6,0-.51-.21-.76-.13-1.38.26.01.26.38.24.76.51-.47-.13-1.54-.38-2.29-.19-.54.41-.11.36-.47-.24-.59-.47-3.89-.07-4.61-.17-.39-.27-.47-.61-.28-.1-.55,0-.87.32-.94-.63-.57-.18-1.53.02-2.31-.04-.54-.38.35-.37-.14-.02-.39.08-.19.23-.16-.02-.57-.54-.44-.41-1.21.3.11.65.17,1.08.09-.03-.34-.51-.04-.73-.11-.14-.65.31-.61.31-1.09-.51.25-1.38-.71-.53-1.2.12.52-.11.66-.2.93.3-.03.36-.31.6-.04-.36-.72-.08-.79.05-1.54-.28-.04-.66-.4-1.08.07.16-.49.23-1.09.41-1.56.31,0,.26.5.28.9.04.27.44-.26.59-.34-.08-.34-.18.2-.37-.13.02-.36.16-.59.07-1.08.23-.27.15,0,.48-.03-.4-.95-1.19-.44-1.17-1.46-.14.08-.23.21-.2.48-1.14-1.62.1-4.2-.78-5.48.23-.5.36-.23.06-.77.6-.35.84.29,1.15.83-.25.08-.32-.08-.49-.11-.03.75-.47,1.96.22,2.91-.14-1.37.28-2.27.22-3.41.39.14.32.04.59-.2-.16-.52-.66.47-.85-.08.32-.26-.32-1.26.09-2.01-.06-.21-.21,0-.23.17-.32-.22.31-.59.16-1.09-.1.12-.16.3-.2.48-.36-.07.09-.34-.05-.61-.11.02-.08.2-.1.32-.32-.03-.17-.77-.43-.89.22-.26.53-.84.04-1.08.4-2.05.26-4.26.03-6.33l.36-.04c-.61-1.43-.49-2.79-.7-4.25,1,.99.54,2.92.86,4.55.17.9.74,1.59.64,2.56Zm-1.99-11.69c1.01.92.44,3.05.86,4.54-.84-.9-.69-3.34-.86-4.54Zm-18.67,10.35c.56.42.31,1.03.57,1.87-.33-.35-.78-1.23-.57-1.87Zm22.03,14.52c.31-.07.41.18.41.59l-.36.03-.05-.61Zm-24.57,2.76c.35.3.03,1.04.06,1.45-.3-.24-.12-1.13-.06-1.45Zm23.14-.96c.02.45-.66.41-.83.21.08-.59.48-.14.83-.21Zm-.1.47c.14.02.11.27.14.45-.35-.1-.3.24-.59.19-.02-.41.32-.41.45-.65Zm-20.84,1.52c.27.1.44.95-.08.88-.11-.44.1-.54.08-.88Zm-1.12,4.6c-.04.34-.2.76.04,1.02-.12.36-.79-1.09-.04-1.02Zm26.14-1.12c.41.06.22.74.17,1.08-.46-.12-.11-.62-.17-1.08Zm-27.19,1.76c.49-.04.07,1.14.42,1.29-.01.51-.54-.24-.47.17-.09-.35.03-.96.06-1.46Zm49.86.22c.25.04.25.43.5.46-.04.26-.37.16-.21.66-.34,0-.25-.67-.29-1.13Zm-.17,1.64c.07.71.34,1.3.21,2.11-.5-.23-.22-1.55-.21-2.11Zm3.02.35c-.24.43.15.92-.07,1.15-.44.12-.38-1.39.07-1.15Zm-2.63.28c.29.08.52.61.28.97-.18-.24-.47-.68-.28-.97Zm0,2.61c.27.33.47.76.29,1.29-.26.04-.08-.58-.15-.81-.26-.02-.03.58-.09.82-.38-.43-.12-.73-.05-1.3Zm.84,5.36c.59.14-.02,1.32.25,1.63-.47-.36-.06-.93-.25-1.63Zm-.48.67c.24.18.15,1.26.01,1.47-.29.07.06-.74-.36-.48.17-.26.25-.64.35-.99Zm-23.16,1.06c.52,1.24.53,1.87.75,3.24-.23-.06-.02-.71-.48-.46.06-1.13-.22-1.79-.26-2.78Zm23.64.07c.17.33.72,1.73.02,2.12.3-.58-.01-1.45-.02-2.12Zm-.95.84c.3.06.56.55.37.81-.21-.15-.42-.3-.37-.81Zm.49.81c.19.56.07,1.6.14,2.45-.62-.32.11-1.64-.61-1.62-.05-.34.08-.43.12-.65.12.27.45.56.36-.17Zm-49.17,4.09c.4-.15.19.45.25.72-.41.11-.43-.51-.25-.72Zm49.08-.01c.23,1.26.07,2.94.39,4.9.51-.13-.11-.79.23-1.14.4.06.19.94.25,1.47-.44.33-.59-.24-1.08,0,.05-2-.29-3.37.21-5.22Zm-24.69,3.34c.58.02.48.94.49,1.7-.61-.11-.51-1.11-.49-1.7Zm.97,2.01c.6.02-.06,2.43.1.62-.09-.14-.12-.35-.1-.62Zm24.32,2c.46-.13.13.77.21,1.15-.34-.24-.12-.43-.21-1.15Zm-.4,1.31c.32.06.39.43.45.82-.1-.13-.27-.18-.47-.17l.02-.66Zm1.2,3.95c.11.05.38.62.1.66,0,.16.14.13.23.17-.12.48-.19.18-.49.16-.07-.5.22-.48.15-.98Zm-.17,1.64c.1.1.21.2.24,0,.26-.02.04.58.1.82-.21-.16-.41-.32-.33-.83Zm.96,3.97c.41.16-.05.66.2,1.16-.46.12-.13-.78-.2-1.16Zm4.06.62c-.15.64-.31,1.28-1,1.13.37-.32.47-1.04,1-1.13Zm-3.49.22c.18.25.35,1.12.47.18.51.24.02,1.05.07,1.65-.39-.57-.35-.88-.54-1.83Zm-52.78-1.08c.24.26.24-.1.47.16-.29.92-.27,1.16-.32,2.02-.38-.32-.12-1.44-.16-2.18Zm55.38,2.32c.52-.18.47,1.37-.04,1.16.12-.59-.25-.81.04-1.16Zm-2.89.23c.36.02.25,1.09.08,1.32-.21-.42.03-.63-.08-1.32Zm-52.47-.09c.45-.11.16.77.06.87-.22-.13-.28-.65-.06-.87Zm53.58,2.77c.36-.02.38.61.18.84-.17-.15-.23-.43-.18-.84Zm.73,3.35c-.16,1.1.28,2.02.04,2.83-.38.1-.33-.3-.71-.21.24-.24.06-1.14.55-.97-.41-.26.05-1.07.12-1.66Zm-.14.33c-.22.27-.71.1-.56-.52.68.53-.01-.74.66-.8-.15.67-.06.57-.09,1.33Zm2.15,1.95c.32.47.06.65-.08,1.17-.32-.47-.06-.65.08-1.17Zm-58.85,5.6c.2-.02.19.15.35.17-.02.46-.28.59-.25,1.13-.37-.1-.31-1.02-.1-1.31Zm55.59,6.19c.37.43-.18,1.04.33,1.36-.18.84-.48,1.14-.21,1.82l-.6-.05c.26-.89.1-2.1.48-3.13Zm-55.74-3.75c-.25.5-.06.69-.25,1.13-.39-.09-.18-1.25.25-1.13Zm55.6,7.09c.54.6.34,1.92-.16,2.49.49.69.83,1.35.19,2.53-.29-.46.28-1.58-.63-1.91.35-1.36.28-2.5.6-3.12Zm-1.59.19c.35.03.18.96-.01,1.17-.31-.13-.42-.5-.37-1.04.17.03.34.06.38-.13Zm-.41,1.46c.42.15-.1.66-.03,1.33-.21-.04-.28.18-.5.12.16-.52.29-1.08.53-1.45Zm-56.88-4.32c.18.33.14.67,0,1-.45-.19.04-.49,0-1Zm60.04,6.3c.26.05-.03.71,0,1.01-.22-.39-.26.02-.29.47-.46-.25.19-1.01.29-1.48Zm-1.89.65l.36.04-.09.83c-.37.02-.19-.56-.26-.86Zm-58.53-5.7c.19.15.21.47.14.88-.27-.11-.43-.6-.14-.88Zm1.74.62c.22.04-.16.52-.2.7-.46-.21-.02-.57.2-.7Zm.35,1.19c.3.05.18.5.14.88-.39,0-.36-.67-.14-.88Zm-.52,1.38c.04-.16.13-.06.12.01.31.08.16-.54.52-.37-.09.34.18.33.04.73-.11.05-.23.1-.27.26-.31-.05-.11-.58-.41-.63Zm58.42,7.7c-.14.01-.14.29-.18.49-.24.13-.34-.54-.48-.05-.17-.18.46-.63.69-.76-.03.6.28.45,0,1.01-.16-.07-.05-.43-.04-.68Zm-61.16-6.88c.4.01.45.84-.08.71-.13-.2-.09-.54.08-.71Zm2.49.45c.38-.02.27.42.55.5-.1.18-.29.23-.51.23-.08-.18-.11-.4-.04-.73Zm57.4,9.14c.09.1.17.2.34.21-.06.18-.26.39-.26.14-.13.09-.17.36-.4.29.09-.14.18-.28.04-.33.05-.18.25-.08.28-.3Zm.34,1.22c-.47.05-.51.08-.82-.27.27-.22.88-.42.82.27Zm-59.52-6.85c.13.04.22,0,.26-.11.2.35-.29.23-.14.84-.19-.08-.24.08-.28.25-.25-.32.44-.47.16-.98Zm55.05,9.14c.37,1.32-.33,4.29-.27,5.5-.67-.59.11-3.79.27-5.5Zm.55,1.92l.36.05c-.05.41-.11.8-.28.97-.3-.06-.15-.58-.08-1.02Zm.17,1.2l.36.05c-.1.31-.16.7-.46.61l.1-.66Zm1.77,1.09c.13.05.04.18-.03.17.45.65-.34.08-.34.63-.15-.07-.03-.43-.01-.68.17.04.33.08.38-.12Zm-2.99,2.77c.41.09.07.94.15,1.37-.51-.3,0-.81-.15-1.37Zm-60.85-3.93c.15.22.22.78-.03.99-.26-.11.06-.69.03-.99Zm54.59,25.94c-1.09,1.16-1.41.14-.87-1.71-.2.1-.28.48-.4.76-.39,0,.07-.76-.18-.88.08-.21.32-.07.5-.06.21-1.6.18-1.73.48-3.45.49-.13.17-.82.71-1.04-.01-.46-.37.44-.47-.09.33-1.12.63-.94.71-2.22-.33-.09-.08,1.09-.52.74.34-.71.36-1.32.29-1.96.29,0,.45.11.56.27.12-.42-.05-.56-.37-.57.04-.84.42-.95.74-1.21.7,1.02-.81,3.77-.42,4.97-.7,1.87-.98,3.63-1.54,5.6.22.02.19-.53.37-.6.36.1.02,1.04-.32.95.14.51.23.56.75.5Zm-58.4-21.54c.24.15.26.71.07.86-.18-.16-.17-.48-.07-.86Zm-.91.25c.48-.02.32.74-.11.54l.11-.54Zm8.72,1.67c.16.3-.04,1.58-.61,1.18.41-.38.43-.72.61-1.18Zm-7.78-.92c.39.87-.47,1.97-.44,2.74-.1-.26-.31-.45-.62-.55.16-.68.71-1.1.6-1.71.2-.08.48-.02.47-.48Zm57.34,11.9c.24.17-.14.91-.15,1.31-.52-.4-.03-.66.15-1.31Zm-52.98-9.91c.08.13.24.2.44.23,0,.44-.38.2-.38.64-.3-.08-.14-.51-.06-.87Zm.97.62l.35.07c.13.73-.3,1.01-.61,1.75-.17-.62.35-1.1.25-1.82Zm-.14,1.85c.11,1.24-.77,2.01-.71,3.46-.26-.2-.24-.1-.67-.29.51-.56,1.02-1.84.57-2.19.08-.24.27-.27.53-.18-.02-.42-.14-.19-.44-.24.14-.39.57-.22.73-.57Zm50.38,10.62c.53.09-.15.48-.08.99-.24-.28-.09-.6.08-.99Zm-3.63.94c.14,1.89-.8,4.63-1.22,6.4.03.43.55-.01.57-.37.3.23-.17.67-.2.96-.21-.03-.21-.25-.44-.26-.27.01-.25.77-.4,1.08-.59-2.41.68-4.41,1.3-7.71.16.05.33.09.38-.09Zm6.75,1.72c.16.2-.02.72.03,1.02-.21-.07-.29.15-.5.06.02-.67.45-.42.47-1.09Zm-54.85-9.66c.45.11.3.69.24,1.21-.21-.03-.21-.22-.44-.24.33-.25.07-.55.2-.97Zm52.82,12.95c.26.11.39.35.79.34-.28.88-.62,1.21-1.06,2.14-.4-.65.26-1.45.28-2.48Zm.97,5.48l.21-.81c-.32,2.71-1.08,6.31-2.44,9.36-.02.18.2.17.15.38-.14.37-.32.63-.49.91-.35-.13.02-.85.11-1.35-.16-.06-.32-.11-.39.07.18-1.64,1.22-4.37,1.18-6.9.26-.49.54-.95.92-1.15.02-.49-.4,0-.58-.14.02-.43.65-.63.37-.94.22-.45.22-.14.51-.05.04-.85.05-1.48.24-1.99-.36-.25-.28.47-.41.76-.29-.6.1-1.71.45-2.11.47-.02.61.93.85.02.26.81-.93,2.49-.54,2.95.62-1.15.62-3.45,1.48-3.93.14,1.85-.8,3.16-1.15,5.04l-.47-.11Zm-3.41-5.5c.31.08.49.49.22.72-.32-.02-.23-.4-.22-.72Zm.36,1.76c-.09-.05-.08-.19-.2-.21-.43,2.05-.4,2.29-.63,4.08-1.4.35-.08-3.26-.08-4.23.45-.61.96-.63.9.37Zm1.55,1.36c.25.17.18.6.43.77-.41.14-.37,1.38-.85,1.34.52-.62-.04-1.35.42-2.11Zm-6.6,4.88c-.12-.02-.14.17-.2.29-.16-.08.08-.48-.11-.53-.31.1-.3.98-.49,1.39-.37-.8.22-2.37.04-3.01.31-.18.66.04.7.17.43-.05.11-.35.4-.58-.04-.48-.37.44-.67.18.31-1.22.53-1.45.3-2.1.3-.46.19.07.36-.92.83.11-.09,1.05.1,1.53.63-.41.1-2.15.89-1.97-.64,1.94-.42,4.63-1.84,6.61-.15-.39.44-.44.52-1.05Zm5.36-2.96c.18-.55.33.5.51-.05.32.24-.19.53-.28.61-.28-.01-.01-.49-.23-.56Zm.3.75c-.03,1.25-.92,3.9-1.3,3.09.7-.68.48-1.9,1.3-3.09Zm-10.05.48c.11-.24.17.19.28-.1.45.44-.32,1.33-.49,1.87-.56-.34.5-1.37.21-1.77Zm-.41,1.56l-.2.78c-.08-.12-.16-.24-.23-.06-.16-.08.08-.47-.11-.53.1-.27.29-.31.55-.2Zm9.49,1.65c.02,1.13-.91,3.41-1.15,5.35-.61-1.35.52-3.01.75-4.77.31.25.3-.31.4-.58Zm-11.53,2.82c-.31.3-.16,1.37-.75,1.47,0,.36.16.61-.05,1.15-.26.02-.49.34-.62,0,.06-.37.38-.08.47-.37.06-.37-.22-.45-.35-.09.2-1.64.37-2.41.98-3.73.01.37.31.85-.05,1.15.72.2.5-.64.4-1.06.15,0,.62-.47.55-.19.37.07-.19.78-.09,1.31.45-.34.4-1.8.65-2-.31.03-.68.16-.5-.46.78.3,1.14-.45,1.46-1.3.07.15.22.23.43.27-.85,1.59-.98,5.3-1.85,7.53-.21-.04-.19-.26-.42-.28-.08.51.3.67.18,1.22l-.46-.13c-.09.28.06.37-.05.65-.03.37.23-.14.31.25l-.21.78c-.13-.06-.22-.02-.28.09-.15-.36-.49-.59-.28-1.25-.13.09-.3.1-.5.03.33-.3.01-.94.44-1.22-.02-.23-.17-.36-.38-.44.47-1.24.73-1.97,1.01-3.39Zm11.1,3.57c-.41.04-.29-.35-.5-.47.38-.87.35-1.11.66-2.06-.8.76.15-2.11.59-2.25.09,1.65-1.06,3.56-.75,4.78Zm.63-.52c.26.11-.12.73-.21.8-.37-.23.01-.6.21-.8Zm-1.3.69c.46,0,.45.39.25.93-.35.03-.15-.38-.38-.44-.67,1.19-.67,2.6-1.61,2.83.48-1.07.31-1.58.28-2.5.17-.18.4-.23.52-.55.21.31.07.44-.09.83.48-.02.82-.39,1.03-1.1Zm-1.24,5.17c.23.2-.2,1.01-.48.73-.05-.17-.01-.39.08-.67.16.06.32.12.4-.06Zm-61.35-14.19c.37.46-.31.64-.49,1.14-.34-.04.31-.68-.02-.72.07-.35.48.03.51-.42Zm.05,4.6c-.07.81-.74,1.39-.47,2.3-.12.47-.62.09-.7.64-.25.06-.26-.52-.46-.15-.09-.76.06-1.19.23-1.94.2-.12.47-.03.57.18.27-.37.48-.84.83-1.03Zm54.92,20.14c.25.1-.16.68-.19.98-.31-.1-.03-.83.19-.98Zm1.97,1.32c.23.15-.2.8-.24,1.15-.63-.28.13-.51.24-1.15Zm-3.3,5.55c.37-.39.28.49.05.89-.61-.04.12-.82-.05-.89Zm-51.54-12.99c0,.48-.24,1.07.27.99-.24,1.04-1.75.88-1.89-.09.5-.41.87-1.17,1.62-.9Zm35.76,19.11c.38.06.24.45.05.88-.19-.1-.31.09-.5-.02.12-.37.25-.73.45-.85Zm-40.06-5.26c.58.12.24.69.32,1.05.85.43,1.31.03,1.6.83-.17.51-.49.52-.73.77-1-.28-.98-.35-1.65-1.01.04-.39.5-.98-.04-1.09.19-.12.32-.43.51-.55Zm21.5,10.13c.22.16-.24.78-.37.84-.11-.15-.08-.38.02-.65.17.13.26-.02.34-.19Zm-21.26-7.12c-.09.24-.25.21-.34.47-.36-.03-.2-.3-.49-.37.26-.08.48-.31.83-.1Zm35.83,16c.46.07-.23,1.23-.5.83-.1-.4.29-.57.5-.83Zm-4.43,5.23l-.13.29c-.35-.19-.68.1-.42-.54.31.24.46-.12.55.25Z"/>
                      <path class="cls-9" d="m865.29,625.64c.26-.68.01-1.53-.15-2.32.56.11-.18-.37.22-.44.5.32-.07,2.23.53,2.74.16-.05.1-.37.12-.58.29-.18.05,1.24-.35,1.17,0-.57.06-.84-.37-.57Z"/>
                      <path class="cls-9" d="m921.96,628.05c0,.33.33.2.24.66-.21.72-.23,1.63.26,2.15-.06.35-.18.35-.36.17.39,1.94.1,3.38.75,5.13-.45-.42-.28,1.64.13,1.16-.29,2.25-.31,5.77.45,7.82-.15-.82.33-2.31-.15-3,.51.39.1-.73-.1-.83h.36c-.1-7.16-.22-15.05-.31-21.25-.45-.66.05-2.95-.87-3.6.22-.92.31-1.24.03-2.15.69.34.02-1.02.56-.86-.29-.75.25-1.66-.2-1.98-.08,1.03.29,1.67-.28,2,.1-.97-.27-1.99.25-2.66-.19-.75-.68-2.16-.24-2.8-.56-.05.07-.9-.3-1.31-.21-.05-.29.27-.36.03-.29-.63.16-1.46-.15-1.97,0,.2,0,.39-.21.35-.12-.5.17-.5.05-.99-.41-.03-.15.73-.28,1.01.41.32.57,2.2.28,2.46-.24-.55-.51-.72-.19-1.31-.34-.09-.22.34-.45.36.03.55.41.54.41,1.13-.33-.09-.48-.44-.75-.61,0,.59.49.41.52.95-.22.17-.42-.47-.48.03.37.31-.12.87-.19,1.17.69-.16-.03.82.41,1.13-.18-.5.3-.96.46-.52-.39.4-.1.7-.3,1.34-.12,0-.14.14-.23.18-.04-.77-.68-.61-.13-.16-.08.97-.18,2.1-.24,2.82.05-.2.11-.38.22-.51.08,1-.41.84.16.98.06.69-.51.61-.68,1.02.43-.18.13.73.51.63.04-.31-.21-.98.2-.83-.03,1.08-.03,1.21.21,2.13-.23-.03-.26.2-.47.19.15-.5.12-1.2-.3-1.3-.12.93.16,1.39.56,1.95-.38.43-.07,1.03.16.98-.17.48-.44.22-.72.03.15.95.18,1.28-.16,1.98-.04-.23-.27-.18-.37-.32.33.65.19.74-.07,1.32.45.56.77,2.69.29,3.78.48.64.34,1.26.5,2.79.53.22,0-.99.35-1,.39.2.75,1.34.25,1.81-.29.07.06-.75-.36-.49.37,1.88,1.16-.35,1.31-1.19Zm-.8-17.32l.36-.02c.16.51-.17.41-.21.68-.17-.04-.12-.41-.15-.65Zm-.42,1.35c.42.53,1.02,1.23.57,2.12l-.48.03c-.08-.29.32-.7-.04-.82.09-.55.24.17.37.14.28-.43-.59-.62-.42-1.46Zm.45,7.9c.33.36.43,1.77-.04,1.98.02-.65-.17-1.57.04-1.98Zm-.8,1.02c.31.17.27.87.3,1.47-.44-.23-.38-.84-.3-1.47Zm.77,1.29c.18.2.26.56.27.98-.45.16-.44-.72-.27-.98Zm-.93.69c.32-.06.4.21.37.65-.32.06-.4-.22-.37-.65Zm.97.46c.79.3-.08,2.14-.47,1.83.36-.57.49-1.1.47-1.83Zm.49,1.47c.12-.25.05.7.13,1.32-.51-.19-.33-.93-.13-1.32Zm-1.32.7c.31-.19.58.49.72-.02-.03.77-.11.95-.22,2.16-.45-.31-.55-1.11-.5-2.14Z"/>
                      <path class="cls-9" d="m862.39,505.09c.17.18.86,1.13.36,1.31-.04-.64-.14-.65-.36-1.31Z"/>
                      <path class="cls-9" d="m897.42,497.62c.19.12.28,1.85.7,2.15-.28.54-.76-1.78-.7-2.15Z"/>
                      <path class="cls-9" d="m871.32,515.7c.21.22.49.28.57.8-.31.08-.14.53-.47.6.16-.49.23-.79-.09-1.4Z"/>
                      <path class="cls-9" d="m879.85,521.3c-.19-.52.32-.47.13-.99.3.05.34.9-.05.81.1.17.22.27.42.21,0,.63-.33.21-.5-.03Z"/>
                      <path class="cls-9" d="m890.57,536.09c.35-.07.51.25.71.49.11,2.35.04-.19-.71-.49Z"/>
                      <path class="cls-9" d="m894.13,536.12c0-.24.16.03.35-.08-.02.55-.03,1.01-.05,1.63-.47-.26.22-1.25-.3-1.55Z"/>
                      <path class="cls-9" d="m915.29,534.91c-.06-.18-.24-.09-.38-.09-.25-1.03.43-1.9-.18-2.81-.25.12.16.86-.05,1.02-.31-.36-.01-.68-.37-1.26.39-.23.28-.08.67-.31.4,1.32.16,1.2.57,2.9-.5-.39,0,.93-.2.88.45-.16.51.52.19.97.2.43.27-.3.5.06-.16.61.54,1.81-.04,1.69.06.18.03.29-.06.35.19.37.46-.42.56.39-.5-.47-.24.45-.35.74-.86-.71-.74-2.92-1.25-3.93.07-.24.25-.39.38-.58Z"/>
                      <path class="cls-9" d="m901.44,534.71c.25-.21.04,1.19.22,1.75-.45-.41-.15-1.25-.22-1.75Z"/>
                      <path class="cls-9" d="m893.64,538.65c.25.15-.06.88.15,1.42-.31.14-.07-.86-.39-.72.08-.23.26-.37.23-.69Z"/>
                      <path class="cls-9" d="m891.03,552.61c.17.39.27,1.02.28,1.7-.15-.37-.37-1.11-.28-1.7Z"/>
                      <path class="cls-9" d="m908.42,556.94c.3.11.47.98.47,1.39-.25-.28-.29-.97-.47-1.39Z"/>
                      <path class="cls-9" d="m912.4,561.2c.27.24.2,1.11.63,1.05-.21.5-.85-.7-.63-1.05Z"/>
                      <path class="cls-9" d="m919.54,563.71c.51.16.68-.85.29-1.38.51.18.57,1.82,1.07,2.5-.25-.56-.78-.55-.61-.91-.09-.38-.54-.02-.45.24-.18-.01-.11-.48-.31-.45Z"/>
                      <path class="cls-9" d="m863.43,576.75c.69,1.15.2,3.33,1.2,4.28-.28.15-.11.75-.51.81.14-1.48-.63-1.94-.29-3.07-.49-.39-.34-1.5-.4-2.02Z"/>
                      <path class="cls-9" d="m911.04,570.59c-.33.19-.1.26-.03.66-.11.62-.06-.65-.4-.27-.09-.46-.14-.87.25-.85.04.13-.03.16-.1.18.11.14.25.21.4.27,0,.19-.11.1-.12.02Z"/>
                      <path class="cls-9" d="m911.84,575.54c0,.31.05.7-.27.69.04-.73-.31-.77-.41-1.25-.12.02-.07.21-.07.34-.78-.71-.46-2.4-.25-3.56.25.01.36.28.54.41-.72.28.12,2.78.46,3.37Z"/>
                      <path class="cls-9" d="m919.55,576.33c.04.39.26.46.23.97-.18-.06-.33-.2-.51-.26.82,2.41.12,6.31,1.31,8.78-.69.95.76,1.89.02,2.48.35-.15.22-.14.6-.06-.55-1.08-.36-2.86.28-3.01-.64.15.74.2.21.81.3.19.4-.47.48-.05-.14.32-.31.62-.51.89.08.38.22.66.35.96-.14.04-.34,0-.34.2.67-.22.26.83.24,1.14.39-.34.24-1.27.68-1.57-.42-.11-.09-.3-.21-.81.14-.04.34,0,.34-.2-.14-.11.18-.77-.24-1.14-.03.35-.15.37-.34.2.1-.83-.36-1.74.07-2.67-.68,0-.42-.64-.38-1.28-.18,0-.43.11-.49-.11,0-.34.28-.37.42-.55,0,.29.33.94.41.45-.34.02-.02-1.14-.36-1.12.06.36-.04.53-.3.54.26-.44-.29-.32-.23-.97-.32-.02-.66,0-.87-.22.56-.47-.33-.88-.4-1.44.22-.48.49-.91.96-1.12-.14-.5-.06-.67-.21-.8,0,.34-.28.37-.42.55-.38-.98-.27-1.36-.29-2.45-.36-.17-.57-.46-.49-.93-.28.55.6,2.34-.01,2.82Zm.93,6.35c0-.19.2-.16.34-.21.12.18.21.42.21.8-.48.31-.07-.91-.55-.6Z"/>
                      <path class="cls-9" d="m864.67,582.36c.28-.27-.16.72,0,1.18-.35-.14-.39-.75-.5-1.27.18.16.41.67.49.09Z"/>
                      <path class="cls-9" d="m911.77,580.29c-.04-.32-.35-.16-.31-.61.22-.19.48-.34.53-.72.13.02.12.31.27.29-.58.34-.05,1.15-.81,1.41.03-.2.12-.35.32-.37Z"/>
                      <path class="cls-9" d="m911.82,580.77c.38-.17.22.3.03.32.01.23.03.46.17.47-.07.41-.49-.15-.53-.42.25.03.37-.08.32-.37Z"/>
                      <path class="cls-9" d="m863.25,587.11c.04.16.13.07.12-.01.32.3.14,1.37.43,1.72-.06.02-1.18-1.88-.46-2.01.04.16,0,.26-.09.3Z"/>
                      <path class="cls-9" d="m863.24,589.17c-.33-.16-.41.85-.59,1.24.35-.08.35,1.49.53,2.58-.43-.49-1.03-3.2-.28-3.64,0-.8-.08-.87-.06-1.61.56.95.75,3.18.82,4.17-.4-.21-.28-2.02-.42-2.74Z"/>
                      <path class="cls-9" d="m912.51,587.21c.11-.65.14.01.48-.05l.09.81c-.28-.3-.23.1-.46.21.04.51.67,0,.56.76-.25.12-.2-.29-.39-.28.34.52.41,1.19.19,1.77-.37-.22-.21-.59-.11-.97-.23-.11-.37-.38-.65-.42.08-.15.09-.38.05-.66.14.01.13.28.17.47,0-.29.48-1.5.07-1.64Z"/>
                      <path class="cls-9" d="m863.84,593.51c-.15.16-.2.41-.29.62-.17-.03-.14-.35-.18-.57.2.19.39.07.33-.33.19.33.64.27.69.81-.45.23-.35-.37-.54-.53Z"/>
                      <path class="cls-9" d="m864.98,595.16c.37.31-.06.84.21,1.15-.44-.08-.19-.84-.21-1.15Z"/>
                      <path class="cls-9" d="m913.17,591.05c.08.36.02.61-.18.67.14.46.19.16.49.11l.05.65c-.44-.79-.18.31-.57.38.15-.7-.3-1.4.21-1.82Z"/>
                      <path class="cls-9" d="m913.49,595.09c.06-.63-.27-1.01-.1-1.29.16.04.21.27.38.29-.13.42-.15,1.49-.64,1.04.03-.24.16.05.36-.03Z"/>
                      <path class="cls-9" d="m894.11,598.31c-.36.1-.56-1.86-.32-1.06.02.48.41.41.32,1.06Z"/>
                      <path class="cls-9" d="m893.64,598.35c.36.31.07,1.11.12,1.55-.31-.26.09-.93-.12-1.55Z"/>
                      <path class="cls-9" d="m912.53,599.9c.18-.14.14-.53.44-.53.14,1.15.07,1.56.3,2.41-.31-.34-.33-.12-.62-.28l-.04-.48c.14.01.12.29.15.47.41-.17.13-1.57-.24-1.6Z"/>
                      <path class="cls-9" d="m916.2,602.2c.2.53-.1,1.1.15,1.95-.36-.5-.27-1.3-.15-1.95Z"/>
                      <path class="cls-9" d="m921.24,603.62c-.13-.5.4-.23.18-.84.34.13.36.76.78.77-.37.49-.58-.76-.96.07Z"/>
                      <path class="cls-9" d="m915.37,604.06c-.22.34-.13,1.03-.25,1.49l.24-.02c-.38.75-.55-1.55.01-1.47Z"/>
                      <path class="cls-9" d="m919.76,606.37c.25-.09.33.09.49.13-.04.38-.81.35-.43,1.02-.1.52-.21-.34-.37-.3.12-.26.38-.37.31-.85Z"/>
                      <path class="cls-9" d="m915.23,607.01c.51.19.02,1.06-.06,1.47-.1-.08-.2-.16-.37-.14.31.63-.25.46-.32,1,.04.17.24.09.25.31.08.51-.07.73-.45.68.17-.84.13-.74-.07-1.62l.36-.02c-.05-.38,0-.63.08-.82-.3.11-.41.24-.6-.12-.29-.05.1.73-.34.51.1-.32.22-.68.32-1,.19.71.42.28.85.1-.21.33,0,.41.04.81.48.08.32-.64.31-1.16Z"/>
                      <path class="cls-9" d="m920.29,607.32c-.13.44-.24.51-.08.99-.21,0-.31.14-.35.35-.02-.04.02-1.31.42-1.35Z"/>
                      <path class="cls-9" d="m914.89,610.13c.45.46-.2.87-.44,1.01.08.16.28.15.26.47-.83-.32.12-.91.18-1.48Z"/>
                      <path class="cls-9" d="m861.11,621.87c.15.26-.05,1.31-.04,1.87-.28-.4-.02-1.38.04-1.87Z"/>
                      <path class="cls-9" d="m889.86,623.08c.04-.3-.11-.55-.13-.3-.13-.8.19-.96.59-.18.02.16-.5.33-.1.47-.04.23-.15-.06-.36.01Z"/>
                      <path class="cls-9" d="m889.91,628.31c.14.03.07.15,0,.15.14.18.34.27.25.76-.29-.08-.5-.58-.25-.92Z"/>
                      <path class="cls-9" d="m861.36,629.62c.4.4.11.89.01,1.44-.22-.17.13-.88-.01-1.44Z"/>
                      <path class="cls-9" d="m860.26,645.51v-.29c.11.03.12-.05.13-.14.14.39.4.66.45,1.16-.39.03-.07-.61-.58-.73Z"/>
                      <path class="cls-9" d="m860.58,650.96c-.3-.28.3-1.38-.22-.72.45-1.19.58-2.23.34-3.42-.04.96-.34,1.02-.52,1.56-.31-.98.57-1.5.06-2.14-.04.22-.27.09-.36,0-.01.38.04.84-.26.85-.22-.17.32-1.17-.2-1.29.02,3.59-.05,6.43-.4,9.96.19-.21.21-.65.42-.83.02.11-.02.28.1.29.04-.11.02-.28.14-.28-.15.52.05,1.34.29,1.01-.38-.26-.06-.88.09-1.28-.2-.37-.64.27-.7-.32.51-.88-.22-2.41.5-2.83.31.52-.47,2.02.37,2.44.08-.81-.18-1.81.35-2.41l-.35-.44c.22-.52.22.13.36-.13Zm-.41-2.45c.39-.03.42.64.22.86-.21-.14-.25-.46-.22-.86Z"/>
                      <path class="cls-9" d="m865.27,646.5c.26.03.03.62.09.87-.1-.09-.21-.18-.24,0-.25-.09.19-.54.14-.87Z"/>
                      <path class="cls-9" d="m862.62,655.77c.16.46.49,1.27.11,1.87-.18-.47-.02-1.3-.11-1.87Z"/>
                      <path class="cls-9" d="m861.83,656.74c.05-.19.31-.1.49-.12-.07.38.37,1.29-.32,1.13.12-.45.54-.98-.17-1.01Z"/>
                      <path class="cls-9" d="m858.7,661.97c.14.03.21-.02.25-.13.32.52.04,1.09-.23,1.55-.23-.36.15-.87-.02-1.43Z"/>
                      <path class="cls-9" d="m920.82,668.06c-.03-.43.49-.92.63-.46.19.01-.4.15-.63.46Z"/>
                      <path class="cls-9" d="m861.77,664.48c0-.26.17-.29.16-.56.41.36.21.56.28,1.17-.18.35-.02-.76-.44-.61Z"/>
                      <path class="cls-9" d="m860.9,668.29c.31.61-.21,1.73.2,2.46-.62-.48-.2-1.64-.2-2.46Z"/>
                      <path class="cls-9" d="m860,669.79c-.2-.07-.24.09-.27.26-.27-.06-.23-.4-.05-.57.26-.02.79.68.29.6l.03-.28Z"/>
                      <path class="cls-9" d="m920.79,676.93c.32-.21-.43,1.08-.17,1.5-.29-.48-.5.3-.67.61-.38-.37,0-.84.05-1.51.2.79.58-.22.79-.6Z"/>
                      <path class="cls-9" d="m932.14,680.18c-.26,0,.02-.61-.02-.87.58.12.63.85.66,1.62-.51-.6-.49-.58-.64-.75Z"/>
                      <path class="cls-9" d="m857.14,675.92c.48.22-.09.7-.13,1.13-.25-.17.23-.63.13-1.13Z"/>
                      <path class="cls-9" d="m918.51,699.32c-.17-.1.08-.21.08-.5.14.26.17.57.26-.13.22-.1.11.99-.09,1.35-.19-.06.07-1.26-.25-.72Z"/>
                      <path class="cls-9" d="m914.31,717.75c.07-.48.09,1.19.31,1.44-.24.11-.81.75-.59,1.09-.69.17.23-.86.35-1.65-.25,0-.33.4-.49.59-.22-.35.49-.65.43-1.46Z"/>
                      <path class="cls-9" d="m912.03,722.79c.12-.3.05-1.02.41-.77-.33.94.29,1.25.68.83.1.13.04.41.28.41-.52.53-.85-.27-1.37-.46Z"/>
                      <path class="cls-9" d="m912.73,725.87c-.32-.22-.82.36-.86-.01.22-.54.51.07.92-.32-.1.27.03.33.16.38-.5.96-.1,1.43-.59,2.64-.17-.2-.15-.64.09-.85-.54.25-.21-.68-.46-1.31l.59.13.14-.66Z"/>
                      <path class="cls-9" d="m916.33,733.85c-.52-.42-.55.43-.8.69-.29-.51,1.06-1.9.8-.69Z"/>
                      <path class="cls-9" d="m907.52,739.56c.05-.37.64-2.29.36-.43-.14.09-.25.25-.36.43Z"/>
                      <path class="cls-9" d="m907.47,741.64c0-.6-.03-1.16.28-2.02.17.46.5-.09.78-.15-.03.44-.31,1.16-.69,1.22.04.27.18,0,.42.28-.21.17-.36.73-.26.98-.23.27-.01-.7-.54-.32Z"/>
                      <path class="cls-9" d="m906.59,741.23c.36.79.32,3.69-.22,5.36-.04.19.17.19.3.26-.28.38-.4.44-.68.16-.23.7-.06.79-.47,1.1-.01.21.04.37.25.42-1.34,3.4-1.86,6.25-2.38,8.67-.19-.61-.37.49-.79.11.02.15.04.3-.04.52.24,0,.29-.6.61-.34-.46.72-.45,1.11-1.15,1.23-.25-.36.81-.7.03-.88,1.63-4.89,2.53-7.6,4.38-13.16.2-.42-.16-.38-.22-.58.23-.04.19-.78.45-.75-.04-.27-.04-.56-.33-.61.04-.46.49-1.25.27-1.5Z"/>
                      <path class="cls-9" d="m893.07,751.2c.34.11-.09.78.05,1.04.14-.08.26-.23.38-.4.46,1.2-.66,2.66-.95,4.18-.51-.67-1.89,2.82-1.33,3.38-.06.54-.4.23-.54.51.04.46.28.74.17,1.27-.06-.15-.19-.25-.4-.31-.07.73-.93.78-1.38,1.26.26.28-.03.75-.29,1.12,0-.75-.46-.02-.63.65.04-.99-.25-1.4.13-2.38.13.1.08.33.23.42.51-.36.94-1.21,1.09-1.88.22-.15.49-.06.57.19-.18-.6.74-1.84.14-2.37.2-.32.43-.53.58-1.02.4.32-.18.47-.3.94.04.17.13.31.24.43.59-1.87,1.68-4.76,2.24-7.04Z"/>
                      <path class="cls-9" d="m888.34,751.44c.41-.2.57-1.11,1.01-1.21-.23.64-.83,1.39-.82,1.78-.18.35-.12-.45-.2-.57Z"/>
                      <path class="cls-9" d="m831.62,734.6c.07.13.21.22.42.28-.42.02-.75.36-.66.91-.13.08-.34-.03-.42.14-.37-.24.08-.32.13-.8.34.17.45-.15.54-.53Z"/>
                      <path class="cls-9" d="m896.16,759.29c.12-.99.38-1.44.53-2.46.12.11.17.28.08.55.12-.05.24-.11.39-.05-.65.78-.65,1.55-.65,2.42-.03-.25-.04-1.51-.35-.47Z"/>
                      <path class="cls-9" d="m895.68,761.59c.39-.2-.33.61-.61.32.14-.11.24-.32.32-.6.19-.03.08.71.29.27Z"/>
                      <path class="cls-9" d="m898.02,763.26c.11,0,.08.1.05.2l.23.08c-.6.05-.71,1.89-1.45,1.46.07-.35.28-.24.46-.2.38-.83.47-1.02.71-1.54Z"/>
                      <path class="cls-9" d="m903.9,772.16c-.15.48-.44.4-.59.89.03-.41-.22-.91.15-1.41-.2-.09-.31.11-.51,0,.25-.58.39-.56.43-1.13-.17.02-.31.12-.41.4-.24-.35.13-.54-.15-.96.17-.33.49.2.51.36.22-.19.48-.28.64-.68.08.15-.02.41.22.44-.26,1.08-.56,1.49-.28,2.1Z"/>
                      <path class="cls-9" d="m880.51,762.07c.09-.16.15-.04.11.04.15-.06.25-.3.45-.18-.24.44-.59.53-.85.89-.49.3.57-.72.28-.75Z"/>
                      <path class="cls-9" d="m882.71,764.4c.13.3.37.52.11,1.07-.35-.79-.15.94-.63,1.32-.02.15.35.59.39.32-.43.59-1.29,2.94-2.17,3.69.6.6-.66.99-.07,1.54-.12.27-.41-.05-.56.13.11.88-.8,1.43-.91,2.07-.13.21-.82-.55-.62.28-.56.06.07-.92.57-.82.18-.69.45-1.05.85-1.58.07-.28-.06-.42-.33-.48.41-.84.65-.81.63-1.66,1.07.76.81-2.08,1.99-2.54-.14-.93.53-2.01.75-3.34Z"/>
                      <path class="cls-9" d="m889.61,770.57c.14.21.06.58-.13,1.02.27.25.37-.11.62.05-.34.85-.23,1.4-.26,2.04-.52-.65-1.64,3.03-2.64,2.9.03.17-.01.4-.13.66-.43.14-.8.52-1.09,1.18-1.1.42-2.06,2.02-2.93,2.2.38-.35.49-1.37.36-1.1.89-2.73,4.06-6.82,3.44-9.44-.36.44.19,1.15-.42,2.13-.02-.92-.48-1.23-.36-2.42-.31-.15-.25,1.05-.63.64-.1-.33.29-.48.41-1.07.49.95,1.23-1.26,1.32-1.79.22.08-.02.47.33.47-.15.6-.66.87-.52,1.39,1.02-.39.96-1.65,1.56-2.76-.33,1.18.37,2.68.23,4.13-.34.59-.67,1.41-.14,1.72-.17.35-.5.14-.63.65.03.57.62.18.04,1.26,0,.24.13.38.33.48.65-.23.61-2.09,1.1-1.54.19-.32-.13-.3-.05-.55-.24-.16-.21.73-.51.34-.11-.38.22-.77.57-.5.24-.82-.26-1.14.14-2.07Z"/>
                      <path class="cls-9" d="m881.12,765.88c.24.12-.29.33-.29.75-.42.04-.32-.04-.51-.36.29-.07.49.27.79-.4Z"/>
                      <path class="cls-9" d="m878.94,772.31c-.26.56-.5,1.25-.97,1.87.06-.15.52-1.92.97-1.87Z"/>
                      <path class="cls-9" d="m882.65,776.74c-.92-.51.73-1.78,1.21-2.52-.37.97-.72,2.03-1.21,2.52Z"/>
                      <path class="cls-9" d="m855.43,768.6c-.2.58-.66.23-.92.59-.3.21.54-.94.92-.59Z"/>
                      <path class="cls-9" d="m823.6,767.91c-.22.5-.69.17-.98.44-.04-.16.62-.58.98-.44Z"/>
                      <path class="cls-9" d="m836.78,776.57c.23.22-.38.24-.44.59-.17-.19-.11-.48,0-.79.13.2.12.58.43.21Z"/>
                      <path class="cls-9" d="m820.66,771.16c-.14.18-.43.87-.99.87.47-.48.45-.62.99-.87Z"/>
                      <path class="cls-9" d="m819.4,770.99c.23.42-.44.42-.59.61-.63.74.3-.62.59-.61Z"/>
                      <path class="cls-9" d="m824.85,785.33c-.13.22,0,.33-.15.56-.4-.22.1-1.16.26-1.29-.03.72.54.18.91.32.15.46.15,1.03.65.83-.41.37-.79.86-1.28.92.36-.51.76-1.13-.4-1.33Z"/>
                      <path class="cls-9" d="m818.65,799.44c.52-.37.09-.37-.24-.31.49.25-.33.91-.55,1.64-.26-.06-.47.12-.76-.13.21-.39,1.12-1.14.3-1.46.17-1.12,1.23-2.55,1.13-3.57-1.28-.23-1.32.88-1.49,2.05-.33-.32-.53.11-.8.17-.75-1.3,1.01-2.27,1.85-3.13-.05.37.54-.02.45.42,1.03-.27,1.95-1.22,3.05-1.15.22-.27-.03-.37.26-.67.22.18.41.21.59.18.05-.54.27-1.17.75-.55.1-.23.47-.55.08-.6.26-.13.56,0,.81-.19.36-.32-.28-.28.08-.6.57.18.94-.71,1.52-.45-.04-.76,1.21-1.07,1.89-1.07-.02,2.12-2.19,2.27-3.46,4.42-.66-.4-1.2.18-1.42.99-.22.16-.48.08-.77-.12-.23.46-.49.78-.75,1.03-.11,1.51.32,2.94-.73,5.02-.46-.05-.31.15-.67.43.06-.73-.22-1.35-.34-2.03-.23.09-.52-.15-.79-.31Z"/>
                      <path class="cls-9" d="m857.06,464.45c.14.07.31.06.5-.02.15.66.49.73.64,1.39-.3-.02-.69.44-.34.45-.02.41-.79-.42-.29.6-.44.13-.52-.85-.99-.61.47-.65.5-.95.48-1.81Z"/>
                      <path class="cls-9" d="m920.62,568.04c.38.32.53,1.06.91,1.37.03.36-.25.39-.55.41.16.18.15.32-.07.34.41.44.17.87.56,1.42-.22.38-.59.6-.42,1.39-.41-1.12-.14-2.32-.52-2.92.14-.37.42-.59.46-1.07-.21-.42-.61-.5-.65-1.24.25.02.37-.09.31-.38.11.07.22.14.38.11-.09.24-.27.37-.41.56Z"/>
                      <path class="cls-9" d="m916.13,604.5c.11.25.4.21.41.62-.55-.05-.39.73-.38,1.33-.48.1-.21-1-.35-1.44.1-.18.44-.08.32-.51Z"/>
                      <path class="cls-9" d="m903.3,764.14c-.28,0,.1-.57-.41-.67.45-.08.61-1.11,1.16-.87.09-.93-.1-1.65-1.07-1.78-.22-1.94,1.16-3.93,2.24-4.65,1.59-.09,2.39.91,2.17,2.29-.33,2.05-2.61,3.65-2.46,5.33-.33.49-.92,2.1-1.59,2.72-.29-.3-.25-.1-.68-.23.13-.64.73-1.61.15-1.75.14-.21.3-.34.5-.37Z"/>
                    </g>
                  </g>
                </g>
              </g>
              <path class="cls-3" d="m898.16,642.7c-.27,0-.56-.03-.84-.1-1.78-.46-2.85-2.29-2.39-4.07,10.87-41.87,63.18-55.74,65.41-56.32,1.76-.47,3.59.61,4.06,2.4.46,1.78-.62,3.6-2.4,4.06-.51.13-50.74,13.5-60.61,51.54-.39,1.5-1.74,2.49-3.23,2.49Z"/>
              <path class="cls-3" d="m935.14,670.49c-1.23,0-2.42-.69-2.99-1.87l-23.76-48.7c-.81-1.66-.12-3.65,1.53-4.46,1.65-.79,3.65-.12,4.46,1.53l23.76,48.7c.81,1.66.12,3.65-1.53,4.46-.48.23-.97.34-1.46.34Z"/>
            </g>
            <path class="cls-10" d="m896.63,884.48c-38.46,0-69.75-47.73-69.75-106.4,0-41.45,15.14-78.2,39.52-95.92,2.98-2.17,7.15-1.51,9.31,1.47,2.17,2.98,1.51,7.15-1.47,9.31-20.67,15.03-34.03,48.45-34.03,85.14,0,51.32,25.31,93.07,56.41,93.07s56.41-41.75,56.41-93.07c0-41.13-16.88-77.91-41.04-89.44-3.32-1.58-4.73-5.57-3.14-8.89,1.58-3.33,5.57-4.73,8.89-3.14,29.08,13.88,48.63,54.66,48.63,101.47,0,58.67-31.29,106.4-69.75,106.4Z"/>
            <ellipse class="cls-6" cx="566.98" cy="622.89" rx="330.85" ry="303.08"/>
            <path class="cls-3" d="m617.77,708.35c-1.02,0-2.02-.47-2.68-1.35l-31.1-42.02-35.23,42.17c-1.18,1.42-3.27,1.61-4.69.42-1.41-1.18-1.6-3.28-.42-4.69l37.94-45.42c.65-.79,1.54-1.28,2.66-1.2,1.02.03,1.97.53,2.58,1.35l33.63,45.42c1.09,1.48.78,3.57-.7,4.67-.6.44-1.3.65-1.99.65Z"/>
            <path class="cls-3" d="m670.89,543.82c-.77,0-1.54-.27-2.17-.81-1.39-1.2-1.56-3.3-.35-4.7.51-.6,52.75-59.78,130.68-10.87,1.56.98,2.03,3.04,1.05,4.6-.98,1.56-3.05,2.03-4.6,1.05-30.75-19.29-60.64-23.53-88.87-12.59-21.02,8.15-33.1,22.01-33.22,22.15-.66.77-1.59,1.16-2.53,1.16Z"/>
            <path d="m530.3,332.87s45.99-121.41-32.06-179.76c-78.05-58.35-206.05,59.29-232.41,128.94-26.35,69.65,28.24,110.12,147.76,91.29,119.53-18.82,116.71-40.47,116.71-40.47Z"/>
            <path class="cls-3" d="m478.54,793.11s62.09-63.98,194.39-9.41c0,0-83.33,127.06-194.39,9.41Z"/>
            <g>
              <path class="cls-6" d="m245.14,503.03c-53.23-.79-96.12,37.53-95.8,85.59.32,48.06,43.74,87.66,96.97,88.45,53.23.79,96.12-37.53,95.8-85.59-.32-48.06-43.74-87.66-96.97-88.45Z"/>
              <path class="cls-3" d="m236.73,606.97c-1.63,0-3.05-1.19-3.29-2.85-5.72-38.96-54.19-57.61-54.68-57.79-1.73-.64-2.6-2.57-1.95-4.29.64-1.73,2.57-2.62,4.29-1.95,2.15.81,52.66,20.26,58.94,63.07.27,1.82-1,3.52-2.82,3.78-.16.02-.33.03-.49.03Z"/>
              <path class="cls-3" d="m196.96,630.6c-.61,0-1.22-.16-1.78-.51-1.56-.98-2.02-3.04-1.04-4.6l28.89-45.85c.98-1.55,3.05-2.02,4.6-1.04,1.56.98,2.02,3.04,1.04,4.6l-28.89,45.85c-.63,1-1.71,1.56-2.82,1.56Z"/>
            </g>
            <g>
              <path class="cls-5" d="m649.19,659.41s60.17-165.9,203.38-68.55c0,0-48.77,175.69-203.38,68.55Z"/>
              <path class="cls-3" d="m670.31,619.71c8.33,36.84,41.21,64.38,80.57,64.38,45.66,0,82.67-37.01,82.67-82.67,0-8.4-1.27-16.49-3.6-24.12-81.99-42.75-133.47,3.95-159.64,42.41Z"/>
            </g>
            <g>
              <path class="cls-5" d="m503.23,642.32s-60.17-165.9-203.38-68.55c0,0,48.77,175.69,203.38,68.55Z"/>
              <path class="cls-3" d="m482.11,602.62c-8.33,36.84-41.21,64.38-80.57,64.38-45.66,0-82.67-37.01-82.67-82.67,0-8.4,1.27-16.49,3.6-24.12,81.99-42.75,133.47,3.95,159.64,42.41Z"/>
            </g>
            <path class="cls-3" d="m497.65,530.47c-1.01,0-2.01-.46-2.66-1.33-1.48-1.97-37.17-47.95-107.02-28.34-1.75.51-3.61-.53-4.11-2.31-.49-1.77.53-3.61,2.31-4.11,74.34-20.87,113.76,30.23,114.15,30.76,1.11,1.46.81,3.55-.66,4.66-.6.45-1.3.67-2.01.67Z"/>
            <path class="cls-3" d="m874.27,510.58c-48.72-111.76-167.9-190.77-307.29-190.77s-254.45,76.22-304.74,184.87c.11-.02,173.98-25.02,271.83-156.75,0,0,123.04,165.64,340.2,162.64Z"/>
            <path class="cls-7" d="m214.4,850.32c-8.46,0-18.46-2.47-29.89-9.41-24.72-15.01-40.63-42.28-44.79-76.78-5.05-41.82,8.14-85.31,33.6-110.77,2.6-2.6,6.82-2.6,9.43,0s2.6,6.82,0,9.43c-22.32,22.33-34.29,62.42-29.79,99.75,3.66,30.36,17.32,54.15,38.48,66.99,14.33,8.7,26.56,9.86,37.39,3.55,25.86-15.07,38.72-70.51,37.72-103.07-1.02-33.33-18.81-80.36-55.17-80.51-3.68-.01-6.65-3.01-6.64-6.69.02-3.68,2.78-6.6,6.7-6.64,47.78.21,67.33,57.42,68.44,93.44,1.08,35.32-12.27,96.3-44.33,115-5.32,3.1-12.41,5.74-21.14,5.74Z"/>
            <path class="cls-8" d="m652.66,807.23h0s-10.23-27.09-65.82-45.08c-73.34-5.07-108.3,30.95-108.3,30.95,78.39,83.04,142.91,44.18,174.12,14.12Z"/>
          </g>
        </g>
      </g>
    </g>
  </g>
</svg>