<?xml version="1.0" encoding="UTF-8"?>
<svg id="Layer_2" data-name="Layer 2" xmlns="http://www.w3.org/2000/svg" xmlns:xlink="http://www.w3.org/1999/xlink" viewBox="0 0 1522.72 990.67">
  <defs>
    <style>
      .cls-1 {
        mask: url(#mask-31);
      }

      .cls-2 {
        mask: url(#mask-30);
      }

      .cls-3 {
        mask: url(#mask-32);
      }

      .cls-4 {
        mask: url(#mask-33);
      }

      .cls-5 {
        mask: url(#mask-22);
      }

      .cls-6 {
        mask: url(#mask-23);
      }

      .cls-7 {
        mask: url(#mask-24);
      }

      .cls-8 {
        mask: url(#mask-25);
      }

      .cls-9 {
        mask: url(#mask-15);
      }

      .cls-10 {
        mask: url(#mask-17);
      }

      .cls-11 {
        mask: url(#mask-18);
      }

      .cls-12 {
        mask: url(#mask-14);
      }

      .cls-13 {
        mask: url(#mask-13);
      }

      .cls-14 {
        mask: url(#mask-19);
      }

      .cls-15 {
        mask: url(#mask-12);
      }

      .cls-16 {
        mask: url(#mask-20);
      }

      .cls-17 {
        mask: url(#mask-21);
      }

      .cls-18 {
        mask: url(#mask-11);
      }

      .cls-19 {
        mask: url(#mask-16);
      }

      .cls-20 {
        mask: url(#mask-10);
      }

      .cls-21 {
        mask: url(#mask-27);
      }

      .cls-22 {
        mask: url(#mask-28);
      }

      .cls-23 {
        mask: url(#mask-29);
      }

      .cls-24 {
        mask: url(#mask-26);
      }

      .cls-25 {
        fill: url(#linear-gradient-6);
      }

      .cls-25, .cls-26, .cls-27, .cls-28, .cls-29, .cls-30, .cls-31, .cls-32, .cls-33, .cls-34, .cls-35, .cls-36, .cls-37, .cls-38, .cls-39, .cls-40, .cls-41, .cls-42, .cls-43, .cls-44, .cls-45, .cls-46, .cls-47, .cls-48, .cls-49, .cls-50, .cls-51, .cls-52, .cls-53, .cls-54, .cls-55, .cls-56, .cls-57, .cls-58, .cls-59, .cls-60, .cls-61, .cls-62, .cls-63, .cls-64, .cls-65, .cls-66, .cls-67, .cls-68, .cls-69, .cls-70 {
        stroke-width: 0px;
      }

      .cls-25, .cls-26, .cls-50, .cls-51, .cls-52, .cls-53, .cls-60, .cls-61, .cls-62, .cls-63, .cls-64, .cls-65, .cls-66, .cls-67, .cls-68, .cls-69, .cls-70 {
        mix-blend-mode: multiply;
      }

      .cls-26 {
        fill: url(#linear-gradient-4);
      }

      .cls-71 {
        clip-path: url(#clippath);
      }

      .cls-27 {
        fill: none;
      }

      .cls-72 {
        mask: url(#mask);
      }

      .cls-28 {
        fill: url(#linear-gradient);
      }

      .cls-29 {
        fill: url(#radial-gradient);
      }

      .cls-30 {
        fill: url(#radial-gradient-34);
      }

      .cls-31 {
        fill: url(#radial-gradient-24);
      }

      .cls-32 {
        fill: url(#radial-gradient-29);
      }

      .cls-33 {
        fill: url(#radial-gradient-36);
      }

      .cls-34 {
        fill: url(#radial-gradient-27);
      }

      .cls-35 {
        fill: url(#radial-gradient-22);
      }

      .cls-36 {
        fill: url(#radial-gradient-32);
      }

      .cls-37 {
        fill: url(#radial-gradient-31);
      }

      .cls-38 {
        fill: url(#radial-gradient-25);
      }

      .cls-39 {
        fill: url(#radial-gradient-20);
      }

      .cls-40 {
        fill: url(#radial-gradient-13);
      }

      .cls-41 {
        fill: url(#radial-gradient-15);
      }

      .cls-42 {
        fill: url(#radial-gradient-11);
      }

      .cls-43 {
        fill: url(#radial-gradient-18);
      }

      .cls-44 {
        fill: url(#radial-gradient-17);
      }

      .cls-45 {
        fill: url(#radial-gradient-10);
      }

      .cls-46 {
        fill: url(#radial-gradient-3);
      }

      .cls-47 {
        fill: url(#radial-gradient-4);
      }

      .cls-48 {
        fill: url(#radial-gradient-6);
      }

      .cls-49 {
        fill: url(#radial-gradient-8);
      }

      .cls-50 {
        fill: url(#radial-gradient-5);
      }

      .cls-51 {
        fill: url(#radial-gradient-7);
      }

      .cls-52 {
        fill: url(#radial-gradient-9);
      }

      .cls-53 {
        fill: url(#radial-gradient-2);
      }

      .cls-54 {
        fill: url(#linear-gradient-2);
      }

      .cls-55 {
        fill: url(#linear-gradient-3);
      }

      .cls-56 {
        fill: url(#linear-gradient-8);
      }

      .cls-57 {
        fill: url(#linear-gradient-9);
      }

      .cls-58 {
        fill: url(#linear-gradient-7);
      }

      .cls-59 {
        fill: url(#linear-gradient-5);
      }

      .cls-60 {
        fill: url(#radial-gradient-26);
      }

      .cls-61 {
        fill: url(#radial-gradient-30);
      }

      .cls-62 {
        fill: url(#radial-gradient-33);
      }

      .cls-63 {
        fill: url(#radial-gradient-21);
      }

      .cls-64 {
        fill: url(#radial-gradient-14);
      }

      .cls-65 {
        fill: url(#radial-gradient-12);
      }

      .cls-66 {
        fill: url(#radial-gradient-16);
      }

      .cls-67 {
        fill: url(#radial-gradient-19);
      }

      .cls-68 {
        fill: url(#radial-gradient-35);
      }

      .cls-69 {
        fill: url(#radial-gradient-23);
      }

      .cls-70 {
        fill: url(#radial-gradient-28);
      }

      .cls-73 {
        mask: url(#mask-3);
      }

      .cls-74 {
        mask: url(#mask-2);
      }

      .cls-75 {
        mask: url(#mask-5);
      }

      .cls-76 {
        mask: url(#mask-4);
      }

      .cls-77 {
        mask: url(#mask-1);
      }

      .cls-78 {
        mask: url(#mask-7);
      }

      .cls-79 {
        mask: url(#mask-6);
      }

      .cls-80 {
        mask: url(#mask-8);
      }

      .cls-81 {
        mask: url(#mask-9);
      }
    </style>
    <linearGradient id="linear-gradient" x1="395.02" y1="196.55" x2="1789.1" y2="367.19" gradientTransform="translate(-268.83 144.11) rotate(3.63) scale(.98 .88) skewX(18.22)" gradientUnits="userSpaceOnUse">
      <stop offset="0" stop-color="#c9b3f8"/>
      <stop offset=".18" stop-color="#6945a9"/>
      <stop offset=".26" stop-color="#6945a9"/>
      <stop offset=".83" stop-color="#6945a9"/>
      <stop offset=".85" stop-color="#6b46ac"/>
      <stop offset=".87" stop-color="#714cb5"/>
      <stop offset=".88" stop-color="#7d55c6"/>
      <stop offset=".89" stop-color="#8d61dd"/>
      <stop offset=".9" stop-color="#9a6cf0"/>
      <stop offset="1" stop-color="#cf8aff"/>
    </linearGradient>
    <linearGradient id="linear-gradient-2" x1="-9.28" y1="274.88" x2="1391.45" y2="446.33" gradientTransform="translate(70.28 144.11) rotate(3.71) scale(.96 .9)" gradientUnits="userSpaceOnUse">
      <stop offset="0" stop-color="#c9b3f8"/>
      <stop offset=".18" stop-color="#a389f0"/>
      <stop offset=".25" stop-color="#9073d9"/>
      <stop offset=".34" stop-color="#7f5fc4"/>
      <stop offset=".44" stop-color="#7250b4"/>
      <stop offset=".56" stop-color="#6b47ab"/>
      <stop offset=".74" stop-color="#6945a9"/>
      <stop offset=".78" stop-color="#6b46ac"/>
      <stop offset=".82" stop-color="#714cb5"/>
      <stop offset=".85" stop-color="#7d55c6"/>
      <stop offset=".88" stop-color="#8d61dd"/>
      <stop offset=".9" stop-color="#9a6cf0"/>
      <stop offset="1" stop-color="#cf8aff"/>
    </linearGradient>
    <linearGradient id="linear-gradient-3" x1="45.93" y1="241.11" x2="1316.43" y2="396.63" gradientTransform="translate(70.28 144.11) rotate(3.71) scale(.96 .9)" gradientUnits="userSpaceOnUse">
      <stop offset="0" stop-color="#a6bbbe"/>
      <stop offset=".06" stop-color="#ecfcff"/>
      <stop offset=".09" stop-color="#deeef1"/>
      <stop offset=".17" stop-color="#bccccf"/>
      <stop offset=".25" stop-color="#a1b0b3"/>
      <stop offset=".35" stop-color="#8b9a9d"/>
      <stop offset=".45" stop-color="#7c8a8d"/>
      <stop offset=".57" stop-color="#738184"/>
      <stop offset=".74" stop-color="#717f82"/>
      <stop offset=".78" stop-color="#738285"/>
      <stop offset=".81" stop-color="#7c8b8e"/>
      <stop offset=".84" stop-color="#8a9c9e"/>
      <stop offset=".87" stop-color="#9eb3b5"/>
      <stop offset=".9" stop-color="#b8d1d2"/>
      <stop offset=".9" stop-color="#bed8d9"/>
      <stop offset="1" stop-color="#a6bbbe"/>
    </linearGradient>
    <filter id="luminosity-noclip" x="64.33" y="-8587.95" width="1233.35" height="32766" color-interpolation-filters="sRGB" filterUnits="userSpaceOnUse">
      <feFlood flood-color="#fff" result="bg"/>
      <feBlend in="SourceGraphic" in2="bg"/>
    </filter>
    <mask id="mask-1" x="64.33" y="-8587.95" width="1233.35" height="32766" maskUnits="userSpaceOnUse"/>
    <linearGradient id="linear-gradient-4" x1="655.59" y1="-120.51" x2="655.59" y2="760.67" gradientTransform="translate(70.28 144.11) rotate(3.71) scale(.96 .9)" gradientUnits="userSpaceOnUse">
      <stop offset="0" stop-color="#fff"/>
      <stop offset=".03" stop-color="#fff"/>
      <stop offset=".06" stop-color="#ccc"/>
      <stop offset=".84" stop-color="#000"/>
      <stop offset=".87" stop-color="#2a2a2a"/>
      <stop offset=".92" stop-color="#686868"/>
      <stop offset=".95" stop-color="gray"/>
      <stop offset="1" stop-color="#fff"/>
    </linearGradient>
    <mask id="mask" x="64.33" y="107.48" width="1233.35" height="782.23" maskUnits="userSpaceOnUse">
      <g class="cls-77">
        <path class="cls-26" d="m1094.8,889.64l-1003-62.15c-19.11-1.08-30.99-16.69-26.52-34.88L224.53,141.12c4.46-18.33,23.58-33.29,42.69-33.4l1003-.24c19.11.1,30.99,16.43,26.52,36.46l-159.26,712.03c-4.46,19.89-23.58,34.96-42.69,33.67Z"/>
      </g>
    </mask>
    <linearGradient id="linear-gradient-5" x1="655.59" y1="-120.51" x2="655.59" y2="760.67" gradientTransform="translate(70.28 144.11) rotate(3.71) scale(.96 .9)" gradientUnits="userSpaceOnUse">
      <stop offset="0" stop-color="#f3f8fb"/>
      <stop offset=".03" stop-color="#dceaed"/>
      <stop offset=".06" stop-color="#c4dfe0"/>
      <stop offset=".84" stop-color="#c1dadb"/>
      <stop offset=".9" stop-color="#e7f0f1"/>
      <stop offset=".95" stop-color="#fff"/>
      <stop offset="1" stop-color="#a6bbbe"/>
    </linearGradient>
    <clipPath id="clippath">
      <path class="cls-27" d="m1050.08,806.32L31.63,758.94c-24.22-1.69-38.9-27.52-27.95-49.19.86-1.71,1.49-2.95,1.81-3.52,52.6-95.02,96.32-196.63,129.41-299.92,32.44-101.28,62.64-206.74,63.49-314.04.15-18.89,15.72-34.01,34.6-33.65l985.55,13.46c19.7.38,34.97,17.37,33.19,37-9.3,102.39-25.24,208.2-48.88,308.3-22.55,95.5-55.14,188.27-86.13,281.25-9.71,29.15-21.06,58.13-32.86,86.71-5.59,13.53-19.18,22-33.79,20.98Z"/>
    </clipPath>
    <radialGradient id="radial-gradient" cx="-549.75" cy="47.27" fx="-549.75" fy="47.27" r="1806.72" gradientUnits="userSpaceOnUse">
      <stop offset=".41" stop-color="#f3f8fb"/>
      <stop offset=".47" stop-color="#dceaed"/>
      <stop offset=".97" stop-color="#ecfcff"/>
      <stop offset=".98" stop-color="#bed8d9"/>
      <stop offset="1" stop-color="#a6bbbe"/>
    </radialGradient>
    <filter id="luminosity-noclip-2" x="0" y="-8587.95" width="1251.88" height="32766" color-interpolation-filters="sRGB" filterUnits="userSpaceOnUse">
      <feFlood flood-color="#fff" result="bg"/>
      <feBlend in="SourceGraphic" in2="bg"/>
    </filter>
    <mask id="mask-3" x="0" y="-8587.95" width="1251.88" height="32766" maskUnits="userSpaceOnUse"/>
    <linearGradient id="linear-gradient-6" x1="638.36" y1="58.59" x2="613.18" y2="782.06" gradientUnits="userSpaceOnUse">
      <stop offset="0" stop-color="#fff"/>
      <stop offset=".03" stop-color="#fff"/>
      <stop offset=".06" stop-color="#ccc"/>
      <stop offset=".5" stop-color="#000"/>
      <stop offset=".64" stop-color="#2a2a2a"/>
      <stop offset=".84" stop-color="#686868"/>
      <stop offset=".94" stop-color="gray"/>
      <stop offset="1" stop-color="#fff"/>
    </linearGradient>
    <mask id="mask-2" x="0" y="58.61" width="1251.88" height="747.79" maskUnits="userSpaceOnUse">
      <g class="cls-73">
        <path class="cls-25" d="m1050.08,806.32L31.63,758.94c-24.22-1.69-38.9-27.52-27.95-49.19.86-1.71,1.49-2.95,1.81-3.52,52.6-95.02,96.32-196.63,129.41-299.92,32.44-101.28,62.64-206.74,63.49-314.04.15-18.89,15.72-34.01,34.6-33.65l985.55,13.46c19.7.38,34.97,17.37,33.19,37-9.3,102.39-25.24,208.2-48.88,308.3-22.55,95.5-55.14,188.27-86.13,281.25-9.71,29.15-21.06,58.13-32.86,86.71-5.59,13.53-19.18,22-33.79,20.98Z"/>
      </g>
    </mask>
    <linearGradient id="linear-gradient-7" x1="638.36" y1="58.59" x2="613.18" y2="782.06" gradientUnits="userSpaceOnUse">
      <stop offset="0" stop-color="#f3f8fb"/>
      <stop offset=".03" stop-color="#dceaed"/>
      <stop offset=".06" stop-color="#c4dfe0"/>
      <stop offset=".5" stop-color="#c1dadb"/>
      <stop offset=".75" stop-color="#e7f0f1"/>
      <stop offset=".94" stop-color="#fff"/>
      <stop offset="1" stop-color="#a6bbbe"/>
    </linearGradient>
    <linearGradient id="linear-gradient-8" x1="708.06" y1="188.66" x2="694.61" y2="678.73" gradientTransform="translate(-87.13) skewX(4.2)" gradientUnits="userSpaceOnUse">
      <stop offset=".05" stop-color="#bed8d9"/>
      <stop offset=".09" stop-color="#b0c7ca"/>
      <stop offset=".13" stop-color="#a8bec0"/>
      <stop offset=".18" stop-color="#a6bbbe"/>
      <stop offset=".21" stop-color="#a2b7ba"/>
      <stop offset=".25" stop-color="#99acaf"/>
      <stop offset=".28" stop-color="#88999c"/>
      <stop offset=".3" stop-color="#728083"/>
      <stop offset=".31" stop-color="#717f82"/>
      <stop offset=".39" stop-color="#bed8d9"/>
      <stop offset=".42" stop-color="#b2cacc"/>
      <stop offset=".46" stop-color="#a9bec1"/>
      <stop offset=".51" stop-color="#a6bbbe"/>
      <stop offset=".55" stop-color="#a3b8bb"/>
      <stop offset=".58" stop-color="#9cb0b3"/>
      <stop offset=".6" stop-color="#8fa1a4"/>
      <stop offset=".62" stop-color="#7d8d90"/>
      <stop offset=".63" stop-color="#717f82"/>
      <stop offset=".72" stop-color="#bed8d9"/>
      <stop offset=".74" stop-color="#b6cfd0"/>
      <stop offset=".8" stop-color="#aac0c2"/>
      <stop offset=".84" stop-color="#a6bbbe"/>
      <stop offset=".89" stop-color="#a4b8bb"/>
      <stop offset=".91" stop-color="#9db1b4"/>
      <stop offset=".93" stop-color="#91a3a6"/>
      <stop offset=".94" stop-color="#819194"/>
      <stop offset=".95" stop-color="#717f82"/>
    </linearGradient>
    <filter id="luminosity-noclip-3" x="295.91" y="-8587.95" width="84.7" height="32766" color-interpolation-filters="sRGB" filterUnits="userSpaceOnUse">
      <feFlood flood-color="#fff" result="bg"/>
      <feBlend in="SourceGraphic" in2="bg"/>
    </filter>
    <mask id="mask-5" x="295.91" y="-8587.95" width="84.7" height="32766" maskUnits="userSpaceOnUse"/>
    <radialGradient id="radial-gradient-2" cx="108.52" cy="50.42" fx="108.52" fy="50.42" r="109.18" gradientTransform="translate(169.11 -22.85) rotate(8.68) scale(1.03)" gradientUnits="userSpaceOnUse">
      <stop offset=".74" stop-color="#000"/>
      <stop offset=".78" stop-color="#5b5b5b"/>
      <stop offset=".81" stop-color="#b2b2b2"/>
      <stop offset=".84" stop-color="#e9e9e9"/>
      <stop offset=".85" stop-color="#fff"/>
      <stop offset=".87" stop-color="#ededed"/>
      <stop offset=".89" stop-color="#bebebe"/>
      <stop offset=".93" stop-color="#737373"/>
      <stop offset=".97" stop-color="#0d0d0d"/>
      <stop offset=".98" stop-color="#000"/>
    </radialGradient>
    <mask id="mask-4" x="295.91" y="49.94" width="84.7" height="92.76" maskUnits="userSpaceOnUse">
      <g class="cls-75">
        <path class="cls-53" d="m344.36,73.94c2.84-4.11,5.27-8.55,8.01-13.02,1.02-1.67,2.05-3.35,2.69-5.2.38-1.11.63-2.29,1.29-3.27,1.75-2.62,5.52-2.71,8.65-2.37,12.49,1.34,16.08,8.34,15.58,20.25-.86,20.65-8.95,40.5-23.69,54.9-11.77,11.49-26.32,17.65-42.81,17.47-3.11-.03-6.3-.29-9.13-1.56-5.69-2.55-9.02-8.99-9.02-15.22,0-22.46,24.51-30.62,39.01-41.73,3.87-2.97,6.83-6.46,9.45-10.24Z"/>
      </g>
    </mask>
    <radialGradient id="radial-gradient-3" cx="108.52" cy="50.42" fx="108.52" fy="50.42" r="109.18" gradientTransform="translate(169.11 -22.85) rotate(8.68) scale(1.03)" gradientUnits="userSpaceOnUse">
      <stop offset=".74" stop-color="#a6bbbe"/>
      <stop offset=".85" stop-color="#a6bbbe"/>
      <stop offset=".98" stop-color="#a6bbbe"/>
    </radialGradient>
    <radialGradient id="radial-gradient-4" cx="472.36" cy="81.17" fx="472.36" fy="81.17" r="204.82" gradientUnits="userSpaceOnUse">
      <stop offset=".88" stop-color="#6945a9"/>
      <stop offset=".94" stop-color="#cf8aff"/>
      <stop offset=".97" stop-color="#e8c7fc"/>
    </radialGradient>
    <filter id="luminosity-noclip-4" x="285.74" y="-8587.95" width="95.06" height="32766" color-interpolation-filters="sRGB" filterUnits="userSpaceOnUse">
      <feFlood flood-color="#fff" result="bg"/>
      <feBlend in="SourceGraphic" in2="bg"/>
    </filter>
    <mask id="mask-7" x="285.74" y="-8587.95" width="95.06" height="32766" maskUnits="userSpaceOnUse"/>
    <radialGradient id="radial-gradient-5" cx="360.51" cy="60.88" fx="360.51" fy="60.88" r="64.05" gradientUnits="userSpaceOnUse">
      <stop offset="0" stop-color="#fff"/>
      <stop offset=".92" stop-color="#000"/>
    </radialGradient>
    <mask id="mask-6" x="285.74" y="0" width="95.06" height="144.41" maskUnits="userSpaceOnUse">
      <g class="cls-78">
        <path class="cls-50" d="m378.91,53.06c-.7-3.19-1.49-6.36-2.42-9.49-1.7-5.78-3.81-11.46-6.49-16.88-4.47-8.95-10.75-17.53-19.62-22.5-5.61-3.13-12-4.5-18.4-4.14-24.57,1.41-39.96,26.04-44.67,59.3-1.35,9.47-1.84,19.66-1.41,30.21.37,9.09,1.51,18.15,3.54,27.02,2.45,10.79,6.11,30.41,21.51,27.53,9.09-1.7,9.26-13.2,6.03-20.03-2.78-5.9-6.28-10.48-7.71-17.01-1.31-6.05-1.53-12.31-1.3-18.5.37-9.61,1.41-19.7,3.25-28.9,3.67-18.54,10.53-33.48,21.48-33.81,7.06-.21,11.64,5.06,14.28,11.06,1.72,3.87,2.8,8.02,3.63,12.16.7,3.44.73,7,1.53,10.42.06.25.12.5.19.73l28.47.39c0-2.42-1.47-5.66-1.89-7.58Z"/>
      </g>
    </mask>
    <radialGradient id="radial-gradient-6" cx="360.51" cy="60.88" fx="360.51" fy="60.88" r="64.05" gradientUnits="userSpaceOnUse">
      <stop offset="0" stop-color="#6125e5"/>
      <stop offset=".92" stop-color="#cf8aff"/>
    </radialGradient>
    <filter id="luminosity-noclip-5" x="285.74" y="-8587.95" width="95.06" height="32766" color-interpolation-filters="sRGB" filterUnits="userSpaceOnUse">
      <feFlood flood-color="#fff" result="bg"/>
      <feBlend in="SourceGraphic" in2="bg"/>
    </filter>
    <mask id="mask-9" x="285.74" y="-8587.95" width="95.06" height="32766" maskUnits="userSpaceOnUse"/>
    <radialGradient id="radial-gradient-7" cx="332.73" cy="-.89" fx="332.73" fy="-.89" r="64.05" gradientUnits="userSpaceOnUse">
      <stop offset="0" stop-color="#fff"/>
      <stop offset="1" stop-color="#000"/>
    </radialGradient>
    <mask id="mask-8" x="285.74" y="0" width="95.06" height="144.41" maskUnits="userSpaceOnUse">
      <g class="cls-81">
        <path class="cls-51" d="m378.91,53.06c-.7-3.19-1.49-6.36-2.42-9.49-1.7-5.78-3.81-11.46-6.49-16.88-4.47-8.95-10.75-17.53-19.62-22.5-5.61-3.13-12-4.5-18.4-4.14-24.57,1.41-39.96,26.04-44.67,59.3-1.35,9.47-1.84,19.66-1.41,30.21.37,9.09,1.51,18.15,3.54,27.02,2.45,10.79,6.11,30.41,21.51,27.53,9.09-1.7,9.26-13.2,6.03-20.03-2.78-5.9-6.28-10.48-7.71-17.01-1.31-6.05-1.53-12.31-1.3-18.5.37-9.61,1.41-19.7,3.25-28.9,3.67-18.54,10.53-33.48,21.48-33.81,7.06-.21,11.64,5.06,14.28,11.06,1.72,3.87,2.8,8.02,3.63,12.16.7,3.44.73,7,1.53,10.42.06.25.12.5.19.73l28.47.39c0-2.42-1.47-5.66-1.89-7.58Z"/>
      </g>
    </mask>
    <radialGradient id="radial-gradient-8" cx="332.73" cy="-.89" fx="332.73" fy="-.89" r="64.05" gradientUnits="userSpaceOnUse">
      <stop offset="0" stop-color="#a389f0"/>
      <stop offset="1" stop-color="#6945a9"/>
    </radialGradient>
    <filter id="luminosity-noclip-6" x="495.14" y="-8587.95" width="84.7" height="32766" color-interpolation-filters="sRGB" filterUnits="userSpaceOnUse">
      <feFlood flood-color="#fff" result="bg"/>
      <feBlend in="SourceGraphic" in2="bg"/>
    </filter>
    <mask id="mask-11" x="495.14" y="-8587.95" width="84.7" height="32766" maskUnits="userSpaceOnUse"/>
    <radialGradient id="radial-gradient-9" cx="300.11" cy="23.51" fx="300.11" fy="23.51" r="109.18" xlink:href="#radial-gradient-2"/>
    <mask id="mask-10" x="495.14" y="52.37" width="84.7" height="92.76" maskUnits="userSpaceOnUse">
      <g class="cls-18">
        <path class="cls-52" d="m543.6,76.37c2.84-4.11,5.27-8.55,8.01-13.02,1.02-1.67,2.05-3.35,2.69-5.2.38-1.11.63-2.29,1.29-3.27,1.75-2.62,5.52-2.71,8.65-2.37,12.49,1.34,16.08,8.34,15.58,20.25-.86,20.65-8.95,40.5-23.69,54.9-11.77,11.49-26.32,17.65-42.81,17.47-3.11-.03-6.3-.29-9.13-1.56-5.69-2.55-9.02-8.99-9.02-15.22,0-22.46,24.51-30.62,39.01-41.73,3.87-2.97,6.83-6.46,9.45-10.24Z"/>
      </g>
    </mask>
    <radialGradient id="radial-gradient-10" cx="300.11" cy="23.51" fx="300.11" fy="23.51" r="109.18" xlink:href="#radial-gradient-3"/>
    <radialGradient id="radial-gradient-11" cx="671.6" cy="83.6" fx="671.6" fy="83.6" r="204.82" xlink:href="#radial-gradient-4"/>
    <filter id="luminosity-noclip-7" x="484.98" y="-8587.95" width="95.06" height="32766" color-interpolation-filters="sRGB" filterUnits="userSpaceOnUse">
      <feFlood flood-color="#fff" result="bg"/>
      <feBlend in="SourceGraphic" in2="bg"/>
    </filter>
    <mask id="mask-13" x="484.98" y="-8587.95" width="95.06" height="32766" maskUnits="userSpaceOnUse"/>
    <radialGradient id="radial-gradient-12" cx="559.75" cy="63.3" fx="559.75" fy="63.3" r="64.05" xlink:href="#radial-gradient-5"/>
    <mask id="mask-12" x="484.98" y="2.43" width="95.06" height="144.41" maskUnits="userSpaceOnUse">
      <g class="cls-13">
        <path class="cls-65" d="m578.14,55.49c-.7-3.19-1.49-6.36-2.42-9.49-1.7-5.78-3.81-11.46-6.49-16.88-4.47-8.95-10.75-17.53-19.62-22.5-5.61-3.13-12-4.5-18.4-4.14-24.57,1.41-39.96,26.04-44.67,59.3-1.35,9.47-1.84,19.66-1.41,30.21.37,9.09,1.51,18.15,3.54,27.02,2.45,10.79,6.11,30.41,21.51,27.53,9.09-1.7,9.26-13.2,6.03-20.03-2.78-5.9-6.28-10.48-7.71-17.01-1.31-6.05-1.53-12.31-1.3-18.5.37-9.61,1.41-19.7,3.25-28.9,3.67-18.54,10.53-33.48,21.48-33.81,7.06-.21,11.64,5.06,14.28,11.06,1.72,3.87,2.8,8.02,3.63,12.16.7,3.44.73,7,1.53,10.42.06.25.12.5.19.73l28.47.39c0-2.42-1.47-5.66-1.89-7.58Z"/>
      </g>
    </mask>
    <radialGradient id="radial-gradient-13" cx="559.75" cy="63.3" fx="559.75" fy="63.3" r="64.05" xlink:href="#radial-gradient-6"/>
    <filter id="luminosity-noclip-8" x="484.98" y="-8587.95" width="95.06" height="32766" color-interpolation-filters="sRGB" filterUnits="userSpaceOnUse">
      <feFlood flood-color="#fff" result="bg"/>
      <feBlend in="SourceGraphic" in2="bg"/>
    </filter>
    <mask id="mask-15" x="484.98" y="-8587.95" width="95.06" height="32766" maskUnits="userSpaceOnUse"/>
    <radialGradient id="radial-gradient-14" cx="531.97" cy="1.54" fx="531.97" fy="1.54" r="64.05" xlink:href="#radial-gradient-7"/>
    <mask id="mask-14" x="484.98" y="2.43" width="95.06" height="144.41" maskUnits="userSpaceOnUse">
      <g class="cls-9">
        <path class="cls-64" d="m578.14,55.49c-.7-3.19-1.49-6.36-2.42-9.49-1.7-5.78-3.81-11.46-6.49-16.88-4.47-8.95-10.75-17.53-19.62-22.5-5.61-3.13-12-4.5-18.4-4.14-24.57,1.41-39.96,26.04-44.67,59.3-1.35,9.47-1.84,19.66-1.41,30.21.37,9.09,1.51,18.15,3.54,27.02,2.45,10.79,6.11,30.41,21.51,27.53,9.09-1.7,9.26-13.2,6.03-20.03-2.78-5.9-6.28-10.48-7.71-17.01-1.31-6.05-1.53-12.31-1.3-18.5.37-9.61,1.41-19.7,3.25-28.9,3.67-18.54,10.53-33.48,21.48-33.81,7.06-.21,11.64,5.06,14.28,11.06,1.72,3.87,2.8,8.02,3.63,12.16.7,3.44.73,7,1.53,10.42.06.25.12.5.19.73l28.47.39c0-2.42-1.47-5.66-1.89-7.58Z"/>
      </g>
    </mask>
    <radialGradient id="radial-gradient-15" cx="531.97" cy="1.54" fx="531.97" fy="1.54" r="64.05" xlink:href="#radial-gradient-8"/>
    <filter id="luminosity-noclip-9" x="694.38" y="-8587.95" width="84.7" height="32766" color-interpolation-filters="sRGB" filterUnits="userSpaceOnUse">
      <feFlood flood-color="#fff" result="bg"/>
      <feBlend in="SourceGraphic" in2="bg"/>
    </filter>
    <mask id="mask-17" x="694.38" y="-8587.95" width="84.7" height="32766" maskUnits="userSpaceOnUse"/>
    <radialGradient id="radial-gradient-16" cx="491.7" cy="-3.41" fx="491.7" fy="-3.41" r="109.18" xlink:href="#radial-gradient-2"/>
    <mask id="mask-16" x="694.38" y="54.8" width="84.7" height="92.76" maskUnits="userSpaceOnUse">
      <g class="cls-10">
        <path class="cls-66" d="m742.84,78.8c2.84-4.11,5.27-8.55,8.01-13.02,1.02-1.67,2.05-3.35,2.69-5.2.38-1.11.63-2.29,1.29-3.27,1.75-2.62,5.52-2.71,8.65-2.37,12.49,1.34,16.08,8.34,15.58,20.25-.86,20.64-8.95,40.5-23.69,54.9-11.77,11.49-26.32,17.65-42.81,17.47-3.11-.03-6.3-.29-9.13-1.56-5.69-2.55-9.02-8.99-9.02-15.22,0-22.46,24.51-30.62,39.01-41.73,3.87-2.97,6.83-6.46,9.45-10.24Z"/>
      </g>
    </mask>
    <radialGradient id="radial-gradient-17" cx="491.7" cy="-3.41" fx="491.7" fy="-3.41" r="109.18" xlink:href="#radial-gradient-3"/>
    <radialGradient id="radial-gradient-18" cx="870.84" cy="86.03" fx="870.84" fy="86.03" r="204.82" xlink:href="#radial-gradient-4"/>
    <filter id="luminosity-noclip-10" x="684.22" y="-8587.95" width="95.06" height="32766" color-interpolation-filters="sRGB" filterUnits="userSpaceOnUse">
      <feFlood flood-color="#fff" result="bg"/>
      <feBlend in="SourceGraphic" in2="bg"/>
    </filter>
    <mask id="mask-19" x="684.22" y="-8587.95" width="95.06" height="32766" maskUnits="userSpaceOnUse"/>
    <radialGradient id="radial-gradient-19" cx="758.99" cy="65.73" fx="758.99" fy="65.73" r="64.05" xlink:href="#radial-gradient-5"/>
    <mask id="mask-18" x="684.22" y="4.85" width="95.06" height="144.41" maskUnits="userSpaceOnUse">
      <g class="cls-14">
        <path class="cls-67" d="m777.38,57.92c-.7-3.19-1.49-6.36-2.42-9.49-1.7-5.78-3.81-11.46-6.49-16.88-4.47-8.95-10.75-17.53-19.62-22.5-5.61-3.13-12-4.5-18.4-4.14-24.57,1.41-39.96,26.04-44.67,59.3-1.35,9.47-1.84,19.66-1.41,30.21.37,9.09,1.51,18.15,3.54,27.02,2.45,10.79,6.11,30.41,21.51,27.53,9.09-1.7,9.26-13.2,6.03-20.03-2.78-5.9-6.28-10.48-7.71-17.01-1.31-6.05-1.53-12.31-1.3-18.5.37-9.61,1.41-19.7,3.25-28.9,3.67-18.54,10.53-33.48,21.48-33.81,7.06-.21,11.64,5.06,14.28,11.06,1.72,3.87,2.8,8.02,3.63,12.16.7,3.44.73,7,1.53,10.42.06.25.12.5.19.73l28.47.39c0-2.42-1.47-5.66-1.89-7.58Z"/>
      </g>
    </mask>
    <radialGradient id="radial-gradient-20" cx="758.99" cy="65.73" fx="758.99" fy="65.73" r="64.05" xlink:href="#radial-gradient-6"/>
    <filter id="luminosity-noclip-11" x="684.22" y="-8587.95" width="95.06" height="32766" color-interpolation-filters="sRGB" filterUnits="userSpaceOnUse">
      <feFlood flood-color="#fff" result="bg"/>
      <feBlend in="SourceGraphic" in2="bg"/>
    </filter>
    <mask id="mask-21" x="684.22" y="-8587.95" width="95.06" height="32766" maskUnits="userSpaceOnUse"/>
    <radialGradient id="radial-gradient-21" cx="731.21" cy="3.97" fx="731.21" fy="3.97" r="64.05" xlink:href="#radial-gradient-7"/>
    <mask id="mask-20" x="684.22" y="4.85" width="95.06" height="144.41" maskUnits="userSpaceOnUse">
      <g class="cls-17">
        <path class="cls-63" d="m777.38,57.92c-.7-3.19-1.49-6.36-2.42-9.49-1.7-5.78-3.81-11.46-6.49-16.88-4.47-8.95-10.75-17.53-19.62-22.5-5.61-3.13-12-4.5-18.4-4.14-24.57,1.41-39.96,26.04-44.67,59.3-1.35,9.47-1.84,19.66-1.41,30.21.37,9.09,1.51,18.15,3.54,27.02,2.45,10.79,6.11,30.41,21.51,27.53,9.09-1.7,9.26-13.2,6.03-20.03-2.78-5.9-6.28-10.48-7.71-17.01-1.31-6.05-1.53-12.31-1.3-18.5.37-9.61,1.41-19.7,3.25-28.9,3.67-18.54,10.53-33.48,21.48-33.81,7.06-.21,11.64,5.06,14.28,11.06,1.72,3.87,2.8,8.02,3.63,12.16.7,3.44.73,7,1.53,10.42.06.25.12.5.19.73l28.47.39c0-2.42-1.47-5.66-1.89-7.58Z"/>
      </g>
    </mask>
    <radialGradient id="radial-gradient-22" cx="731.21" cy="3.97" fx="731.21" fy="3.97" r="64.05" xlink:href="#radial-gradient-8"/>
    <filter id="luminosity-noclip-12" x="893.62" y="-8587.95" width="84.7" height="32766" color-interpolation-filters="sRGB" filterUnits="userSpaceOnUse">
      <feFlood flood-color="#fff" result="bg"/>
      <feBlend in="SourceGraphic" in2="bg"/>
    </filter>
    <mask id="mask-23" x="893.62" y="-8587.95" width="84.7" height="32766" maskUnits="userSpaceOnUse"/>
    <radialGradient id="radial-gradient-23" cx="683.37" cy="-29.81" fx="683.37" fy="-29.81" r="109.18" xlink:href="#radial-gradient-2"/>
    <mask id="mask-22" x="893.62" y="57.76" width="84.7" height="92.76" maskUnits="userSpaceOnUse">
      <g class="cls-6">
        <path class="cls-69" d="m942.07,81.76c2.84-4.11,5.27-8.55,8.01-13.02,1.02-1.67,2.05-3.35,2.69-5.2.38-1.11.63-2.29,1.29-3.27,1.75-2.62,5.52-2.71,8.65-2.37,12.49,1.34,16.08,8.34,15.58,20.25-.86,20.65-8.95,40.5-23.69,54.9-11.77,11.49-26.32,17.65-42.81,17.47-3.11-.04-6.3-.29-9.13-1.56-5.69-2.55-9.02-8.99-9.02-15.22,0-22.46,24.51-30.62,39.01-41.73,3.87-2.97,6.83-6.46,9.45-10.24Z"/>
      </g>
    </mask>
    <radialGradient id="radial-gradient-24" cx="683.37" cy="-29.81" fx="683.37" fy="-29.81" r="109.18" xlink:href="#radial-gradient-3"/>
    <radialGradient id="radial-gradient-25" cx="1070.08" cy="88.99" fx="1070.08" fy="88.99" r="204.82" xlink:href="#radial-gradient-4"/>
    <filter id="luminosity-noclip-13" x="883.45" y="-8587.95" width="95.06" height="32766" color-interpolation-filters="sRGB" filterUnits="userSpaceOnUse">
      <feFlood flood-color="#fff" result="bg"/>
      <feBlend in="SourceGraphic" in2="bg"/>
    </filter>
    <mask id="mask-25" x="883.45" y="-8587.95" width="95.06" height="32766" maskUnits="userSpaceOnUse"/>
    <radialGradient id="radial-gradient-26" cx="958.23" cy="68.7" fx="958.23" fy="68.7" r="64.05" xlink:href="#radial-gradient-5"/>
    <mask id="mask-24" x="883.45" y="7.82" width="95.06" height="144.41" maskUnits="userSpaceOnUse">
      <g class="cls-8">
        <path class="cls-60" d="m976.62,60.88c-.7-3.19-1.49-6.36-2.42-9.49-1.7-5.78-3.81-11.46-6.49-16.88-4.47-8.95-10.75-17.53-19.62-22.5-5.61-3.13-12-4.5-18.4-4.14-24.57,1.41-39.96,26.04-44.67,59.3-1.35,9.47-1.84,19.66-1.41,30.21.37,9.09,1.51,18.15,3.54,27.02,2.45,10.79,6.11,30.41,21.51,27.53,9.09-1.7,9.26-13.2,6.03-20.03-2.78-5.9-6.28-10.48-7.71-17.01-1.31-6.05-1.53-12.31-1.3-18.5.37-9.61,1.41-19.7,3.25-28.9,3.67-18.54,10.53-33.48,21.48-33.81,7.06-.21,11.64,5.06,14.28,11.06,1.72,3.87,2.8,8.02,3.63,12.16.7,3.44.73,7,1.53,10.42.06.25.12.5.19.73l28.47.39c0-2.42-1.47-5.66-1.89-7.58Z"/>
      </g>
    </mask>
    <radialGradient id="radial-gradient-27" cx="958.23" cy="68.7" fx="958.23" fy="68.7" r="64.05" xlink:href="#radial-gradient-6"/>
    <filter id="luminosity-noclip-14" x="883.45" y="-8587.95" width="95.06" height="32766" color-interpolation-filters="sRGB" filterUnits="userSpaceOnUse">
      <feFlood flood-color="#fff" result="bg"/>
      <feBlend in="SourceGraphic" in2="bg"/>
    </filter>
    <mask id="mask-27" x="883.45" y="-8587.95" width="95.06" height="32766" maskUnits="userSpaceOnUse"/>
    <radialGradient id="radial-gradient-28" cx="930.44" cy="6.93" fx="930.44" fy="6.93" r="64.05" xlink:href="#radial-gradient-7"/>
    <mask id="mask-26" x="883.45" y="7.82" width="95.06" height="144.41" maskUnits="userSpaceOnUse">
      <g class="cls-21">
        <path class="cls-70" d="m976.62,60.88c-.7-3.19-1.49-6.36-2.42-9.49-1.7-5.78-3.81-11.46-6.49-16.88-4.47-8.95-10.75-17.53-19.62-22.5-5.61-3.13-12-4.5-18.4-4.14-24.57,1.41-39.96,26.04-44.67,59.3-1.35,9.47-1.84,19.66-1.41,30.21.37,9.09,1.51,18.15,3.54,27.02,2.45,10.79,6.11,30.41,21.51,27.53,9.09-1.7,9.26-13.2,6.03-20.03-2.78-5.9-6.28-10.48-7.71-17.01-1.31-6.05-1.53-12.31-1.3-18.5.37-9.61,1.41-19.7,3.25-28.9,3.67-18.54,10.53-33.48,21.48-33.81,7.06-.21,11.64,5.06,14.28,11.06,1.72,3.87,2.8,8.02,3.63,12.16.7,3.44.73,7,1.53,10.42.06.25.12.5.19.73l28.47.39c0-2.42-1.47-5.66-1.89-7.58Z"/>
      </g>
    </mask>
    <radialGradient id="radial-gradient-29" cx="930.44" cy="6.93" fx="930.44" fy="6.93" r="64.05" xlink:href="#radial-gradient-8"/>
    <filter id="luminosity-noclip-15" x="1092.86" y="-8587.95" width="84.7" height="32766" color-interpolation-filters="sRGB" filterUnits="userSpaceOnUse">
      <feFlood flood-color="#fff" result="bg"/>
      <feBlend in="SourceGraphic" in2="bg"/>
    </filter>
    <mask id="mask-29" x="1092.86" y="-8587.95" width="84.7" height="32766" maskUnits="userSpaceOnUse"/>
    <radialGradient id="radial-gradient-30" cx="875.06" cy="-56.03" fx="875.06" fy="-56.03" r="109.18" xlink:href="#radial-gradient-2"/>
    <mask id="mask-28" x="1092.86" y="60.91" width="84.7" height="92.76" maskUnits="userSpaceOnUse">
      <g class="cls-23">
        <path class="cls-61" d="m1141.31,84.91c2.84-4.11,5.27-8.55,8.01-13.02,1.02-1.67,2.05-3.35,2.69-5.2.38-1.11.63-2.29,1.29-3.27,1.75-2.62,5.52-2.71,8.65-2.37,12.49,1.34,16.08,8.34,15.58,20.25-.86,20.65-8.95,40.5-23.69,54.9-11.77,11.49-26.32,17.65-42.81,17.47-3.11-.03-6.3-.29-9.13-1.56-5.69-2.55-9.02-8.99-9.02-15.22,0-22.46,24.51-30.62,39.01-41.73,3.87-2.97,6.83-6.46,9.45-10.24Z"/>
      </g>
    </mask>
    <radialGradient id="radial-gradient-31" cx="875.06" cy="-56.03" fx="875.06" fy="-56.03" r="109.18" xlink:href="#radial-gradient-3"/>
    <radialGradient id="radial-gradient-32" cx="1269.31" cy="92.14" fx="1269.31" fy="92.14" r="204.82" xlink:href="#radial-gradient-4"/>
    <filter id="luminosity-noclip-16" x="1082.69" y="-8587.95" width="95.06" height="32766" color-interpolation-filters="sRGB" filterUnits="userSpaceOnUse">
      <feFlood flood-color="#fff" result="bg"/>
      <feBlend in="SourceGraphic" in2="bg"/>
    </filter>
    <mask id="mask-31" x="1082.69" y="-8587.95" width="95.06" height="32766" maskUnits="userSpaceOnUse"/>
    <radialGradient id="radial-gradient-33" cx="1157.46" cy="71.84" fx="1157.46" fy="71.84" r="64.05" xlink:href="#radial-gradient-5"/>
    <mask id="mask-30" x="1082.69" y="10.97" width="95.06" height="144.41" maskUnits="userSpaceOnUse">
      <g class="cls-1">
        <path class="cls-62" d="m1175.86,64.03c-.7-3.19-1.49-6.36-2.42-9.49-1.7-5.78-3.81-11.46-6.49-16.88-4.47-8.95-10.75-17.53-19.62-22.5-5.61-3.13-12-4.5-18.4-4.14-24.57,1.41-39.96,26.04-44.67,59.3-1.35,9.47-1.84,19.66-1.41,30.21.37,9.09,1.51,18.15,3.54,27.02,2.45,10.79,6.11,30.41,21.51,27.53,9.09-1.7,9.26-13.2,6.03-20.03-2.78-5.9-6.28-10.48-7.71-17.01-1.31-6.05-1.53-12.31-1.3-18.5.37-9.61,1.41-19.7,3.25-28.9,3.67-18.54,10.53-33.48,21.48-33.81,7.06-.21,11.64,5.06,14.28,11.06,1.72,3.87,2.8,8.02,3.63,12.16.7,3.44.73,7,1.53,10.42.06.25.12.5.19.73l28.47.39c0-2.42-1.47-5.66-1.89-7.58Z"/>
      </g>
    </mask>
    <radialGradient id="radial-gradient-34" cx="1157.46" cy="71.84" fx="1157.46" fy="71.84" r="64.05" xlink:href="#radial-gradient-6"/>
    <filter id="luminosity-noclip-17" x="1082.69" y="-8587.95" width="95.06" height="32766" color-interpolation-filters="sRGB" filterUnits="userSpaceOnUse">
      <feFlood flood-color="#fff" result="bg"/>
      <feBlend in="SourceGraphic" in2="bg"/>
    </filter>
    <mask id="mask-33" x="1082.69" y="-8587.95" width="95.06" height="32766" maskUnits="userSpaceOnUse"/>
    <radialGradient id="radial-gradient-35" cx="1129.68" cy="10.08" fx="1129.68" fy="10.08" r="64.05" xlink:href="#radial-gradient-7"/>
    <mask id="mask-32" x="1082.69" y="10.97" width="95.06" height="144.41" maskUnits="userSpaceOnUse">
      <g class="cls-4">
        <path class="cls-68" d="m1175.86,64.03c-.7-3.19-1.49-6.36-2.42-9.49-1.7-5.78-3.81-11.46-6.49-16.88-4.47-8.95-10.75-17.53-19.62-22.5-5.61-3.13-12-4.5-18.4-4.14-24.57,1.41-39.96,26.04-44.67,59.3-1.35,9.47-1.84,19.66-1.41,30.21.37,9.09,1.51,18.15,3.54,27.02,2.45,10.79,6.11,30.41,21.51,27.53,9.09-1.7,9.26-13.2,6.03-20.03-2.78-5.9-6.28-10.48-7.71-17.01-1.31-6.05-1.53-12.31-1.3-18.5.37-9.61,1.41-19.7,3.25-28.9,3.67-18.54,10.53-33.48,21.48-33.81,7.06-.21,11.64,5.06,14.28,11.06,1.72,3.87,2.8,8.02,3.63,12.16.7,3.44.73,7,1.53,10.42.06.25.12.5.19.73l28.47.39c0-2.42-1.47-5.66-1.89-7.58Z"/>
      </g>
    </mask>
    <radialGradient id="radial-gradient-36" cx="1129.68" cy="10.08" fx="1129.68" fy="10.08" r="64.05" xlink:href="#radial-gradient-8"/>
    <linearGradient id="linear-gradient-9" x1="584.31" y1="56.18" x2="571.84" y2="490.72" gradientUnits="userSpaceOnUse">
      <stop offset=".36" stop-color="#f29e50"/>
      <stop offset=".39" stop-color="#f68c47"/>
      <stop offset=".44" stop-color="#f97d41"/>
      <stop offset=".48" stop-color="#fb793f"/>
      <stop offset=".53" stop-color="#f9753c"/>
      <stop offset=".57" stop-color="#f66a35"/>
      <stop offset=".61" stop-color="#f0592a"/>
      <stop offset=".62" stop-color="#f05c2b"/>
      <stop offset=".7" stop-color="#f18944"/>
      <stop offset=".74" stop-color="#f29b4e"/>
      <stop offset=".74" stop-color="#f29a4d"/>
      <stop offset=".78" stop-color="#f78845"/>
      <stop offset=".81" stop-color="#fa7c40"/>
      <stop offset=".85" stop-color="#fb793f"/>
      <stop offset=".9" stop-color="#f9733b"/>
      <stop offset=".97" stop-color="#f46432"/>
      <stop offset="1" stop-color="#f15b2c"/>
    </linearGradient>
  </defs>
  <g id="Layer_1-2" data-name="Layer 1">
    <g id="calendar">
      <path class="cls-28" d="m1491.03,888.85l-1146.74-63.41c-20.87-1.1-40.28-17.03-43.36-35.59L239.13,125.2c-3.14-18.7,10.81-33.96,31.17-34.08l1070.72-.24c20.45.1,40.17,16.76,44.04,37.2l137.04,726.42c3.81,20.29-10.1,35.66-31.06,34.35Z"/>
      <path class="cls-54" d="m1151.9,990.58L31.96,919.09c-20.4-1.24-33.08-19.2-28.32-40.12L222.79,129.58c4.77-21.09,25.17-38.3,45.57-38.42l1070.82-.27c20.4.12,33.08,18.9,28.32,41.94l-170.03,819.04c-4.77,22.88-25.17,40.21-45.57,38.73Z"/>
      <path class="cls-55" d="m1094.8,889.64l-1003-62.15c-19.11-1.08-30.99-16.69-26.52-34.88L224.53,141.12c4.46-18.33,23.58-33.29,42.69-33.4l1003-.24c19.11.1,30.99,16.43,26.52,36.46l-159.26,712.03c-4.46,19.89-23.58,34.96-42.69,33.67Z"/>
      <g class="cls-72">
        <path class="cls-59" d="m1094.8,889.64l-1003-62.15c-19.11-1.08-30.99-16.69-26.52-34.88L224.53,141.12c4.46-18.33,23.58-33.29,42.69-33.4l1003-.24c19.11.1,30.99,16.43,26.52,36.46l-159.26,712.03c-4.46,19.89-23.58,34.96-42.69,33.67Z"/>
      </g>
      <g class="cls-71">
        <path class="cls-29" d="m1050.08,806.32L31.63,758.94c-24.22-1.69-38.9-27.52-27.95-49.19.86-1.71,1.49-2.95,1.81-3.52,52.6-95.02,96.32-196.63,129.41-299.92,32.44-101.28,62.64-206.74,63.49-314.04.15-18.89,15.72-34.01,34.6-33.65l985.55,13.46c19.7.38,34.97,17.37,33.19,37-9.3,102.39-25.24,208.2-48.88,308.3-22.55,95.5-55.14,188.27-86.13,281.25-9.71,29.15-21.06,58.13-32.86,86.71-5.59,13.53-19.18,22-33.79,20.98Z"/>
        <g class="cls-74">
          <path class="cls-58" d="m1050.08,806.32L31.63,758.94c-24.22-1.69-38.9-27.52-27.95-49.19.86-1.71,1.49-2.95,1.81-3.52,52.6-95.02,96.32-196.63,129.41-299.92,32.44-101.28,62.64-206.74,63.49-314.04.15-18.89,15.72-34.01,34.6-33.65l985.55,13.46c19.7.38,34.97,17.37,33.19,37-9.3,102.39-25.24,208.2-48.88,308.3-22.55,95.5-55.14,188.27-86.13,281.25-9.71,29.15-21.06,58.13-32.86,86.71-5.59,13.53-19.18,22-33.79,20.98Z"/>
        </g>
      </g>
      <path class="cls-56" d="m419.26,321.84c-26.87-.86-53.75-1.73-80.62-2.59-12.83-.41-21.37-9.93-19.28-21.25,4.39-23.7,8.13-47.35,11.22-70.94,1.48-11.27,12.95-20.05,25.82-19.64,26.95.86,53.9,1.72,80.84,2.57,12.87.41,22.24,9.86,20.72,21.13-3.17,23.6-6.99,47.26-11.45,70.96-2.13,11.32-14.42,20.17-27.25,19.75Zm231.92-13.18c4.58-23.71,8.51-47.38,11.8-70.99,1.57-11.27-7.75-20.73-20.61-21.14-26.94-.86-53.89-1.72-80.83-2.58-12.87-.41-24.38,8.38-25.92,19.65-3.22,23.6-7.08,47.27-11.58,70.97-2.15,11.32,6.34,20.84,19.18,21.25,26.87.86,53.74,1.73,80.61,2.59,12.83.41,25.17-8.44,27.35-19.76Zm204.63,6.57c4.7-23.72,8.75-47.39,12.16-71.02,1.63-11.28-7.64-20.74-20.5-21.15-26.94-.86-53.88-1.72-80.82-2.58-12.87-.41-24.42,8.38-26.02,19.66-3.33,23.62-7.31,47.29-11.94,71-2.21,11.32,6.24,20.85,19.07,21.26,26.87.86,53.73,1.73,80.6,2.59,12.82.41,25.21-8.44,27.45-19.77Zm204.6,6.58c4.82-23.72,8.99-47.41,12.52-71.04,1.69-11.28-7.54-20.75-20.4-21.16-26.93-.86-53.87-1.72-80.81-2.58-12.87-.41-24.46,8.39-26.12,19.67-3.45,23.63-7.55,47.31-12.3,71.03-2.26,11.32,6.13,20.85,18.96,21.26,26.86.86,53.72,1.73,80.58,2.59,12.82.41,25.25-8.44,27.55-19.77Zm-685.55,162.47c-26.78-.86-53.56-1.73-80.34-2.59-12.79-.41-20.29-9.93-16.97-21.25,6.97-23.7,13.29-47.35,18.96-70.94,2.71-11.27,15.13-20.05,27.96-19.64,26.86.86,53.71,1.72,80.56,2.57,12.82.41,21.16,9.86,18.41,21.13-5.74,23.6-12.14,47.26-19.19,70.96-3.36,11.32-16.62,20.17-29.41,19.75Zm233.36-13.18c7.17-23.71,13.68-47.38,19.55-70.99,2.8-11.27-5.49-20.73-18.31-21.14-26.85-.86-53.7-1.72-80.55-2.58-12.83-.41-25.29,8.38-28.06,19.65-5.79,23.6-12.23,47.27-19.32,70.97-3.38,11.32,4.07,20.84,16.86,21.25,26.78.86,53.55,1.73,80.33,2.59,12.78.41,26.09-8.44,29.51-19.76Zm203.92,6.57c7.29-23.72,13.92-47.39,19.91-71.02,2.86-11.28-5.38-20.74-18.2-21.15-26.84-.86-53.69-1.72-80.54-2.58-12.82-.41-25.34,8.38-28.16,19.66-5.91,23.62-12.47,47.29-19.68,71-3.44,11.32,3.96,20.85,16.75,21.26,26.77.86,53.54,1.73,80.31,2.59,12.78.41,26.13-8.44,29.61-19.77Zm203.88,6.58c7.41-23.72,14.16-47.41,20.27-71.04,2.92-11.28-5.27-20.75-18.09-21.16-26.84-.86-53.68-1.72-80.52-2.58-12.82-.41-25.38,8.39-28.26,19.67-6.03,23.63-12.71,47.31-20.05,71.03-3.5,11.32,3.86,20.85,16.64,21.26,26.77.86,53.53,1.73,80.3,2.59,12.78.41,26.17-8.44,29.71-19.77Zm-700.38,159.85c-26.69-.86-53.38-1.73-80.07-2.59-12.75-.41-19.25-9.93-14.75-21.25,9.45-23.7,18.24-47.35,26.38-70.94,3.89-11.27,17.23-20.05,30.01-19.64,26.77.86,53.53,1.72,80.29,2.57,12.78.41,20.13,9.86,16.21,21.13-8.21,23.6-17.08,47.26-26.6,70.96-4.55,11.32-18.73,20.17-31.47,19.75Zm234.73-13.18c9.64-23.71,18.63-47.38,26.97-70.99,3.98-11.27-3.32-20.73-16.1-21.14-26.76-.86-53.52-1.72-80.28-2.58-12.78-.41-26.17,8.38-30.11,19.65-8.26,23.6-17.17,47.27-26.74,70.97-4.56,11.32,1.89,20.84,14.64,21.25,26.69.86,53.37,1.73,80.06,2.59,12.74.41,26.97-8.44,31.57-19.76Zm203.23,6.57c9.76-23.72,18.88-47.39,27.33-71.02,4.04-11.28-3.21-20.74-15.99-21.15-26.76-.86-53.51-1.72-80.27-2.58-12.78-.41-26.21,8.38-30.21,19.66-8.38,23.62-17.41,47.29-27.1,71-4.62,11.32,1.79,20.85,14.53,21.26,26.68.86,53.36,1.73,80.04,2.59,12.74.41,27.01-8.44,31.67-19.77Zm203.2,6.58c9.89-23.72,19.12-47.41,27.69-71.04,4.1-11.28-3.11-20.75-15.88-21.16-26.75-.86-53.5-1.72-80.25-2.58-12.78-.41-26.26,8.39-30.32,19.67-8.5,23.63-17.66,47.31-27.47,71.03-4.68,11.32,1.68,20.85,14.42,21.26,26.68.86,53.35,1.73,80.03,2.59,12.73.41,27.05-8.44,31.77-19.77Z"/>
      <g>
        <g class="cls-76">
          <path class="cls-46" d="m344.36,73.94c2.84-4.11,5.27-8.55,8.01-13.02,1.02-1.67,2.05-3.35,2.69-5.2.38-1.11.63-2.29,1.29-3.27,1.75-2.62,5.52-2.71,8.65-2.37,12.49,1.34,16.08,8.34,15.58,20.25-.86,20.65-8.95,40.5-23.69,54.9-11.77,11.49-26.32,17.65-42.81,17.47-3.11-.03-6.3-.29-9.13-1.56-5.69-2.55-9.02-8.99-9.02-15.22,0-22.46,24.51-30.62,39.01-41.73,3.87-2.97,6.83-6.46,9.45-10.24Z"/>
        </g>
        <path class="cls-47" d="m378.91,53.06c-.7-3.19-1.49-6.36-2.42-9.49-1.7-5.78-3.81-11.46-6.49-16.88-4.47-8.95-10.75-17.53-19.62-22.5-5.61-3.13-12-4.5-18.4-4.14-24.57,1.41-39.96,26.04-44.67,59.3-1.35,9.47-1.84,19.66-1.41,30.21.37,9.09,1.51,18.15,3.54,27.02,2.45,10.79,6.11,30.41,21.51,27.53,9.09-1.7,9.26-13.2,6.03-20.03-2.78-5.9-6.28-10.48-7.71-17.01-1.31-6.05-1.53-12.31-1.3-18.5.37-9.61,1.41-19.7,3.25-28.9,3.67-18.54,10.53-33.48,21.48-33.81,7.06-.21,11.64,5.06,14.28,11.06,1.72,3.87,2.8,8.02,3.63,12.16.7,3.44.73,7,1.53,10.42.06.25.12.5.19.73l28.47.39c0-2.42-1.47-5.66-1.89-7.58Z"/>
        <g class="cls-79">
          <path class="cls-48" d="m378.91,53.06c-.7-3.19-1.49-6.36-2.42-9.49-1.7-5.78-3.81-11.46-6.49-16.88-4.47-8.95-10.75-17.53-19.62-22.5-5.61-3.13-12-4.5-18.4-4.14-24.57,1.41-39.96,26.04-44.67,59.3-1.35,9.47-1.84,19.66-1.41,30.21.37,9.09,1.51,18.15,3.54,27.02,2.45,10.79,6.11,30.41,21.51,27.53,9.09-1.7,9.26-13.2,6.03-20.03-2.78-5.9-6.28-10.48-7.71-17.01-1.31-6.05-1.53-12.31-1.3-18.5.37-9.61,1.41-19.7,3.25-28.9,3.67-18.54,10.53-33.48,21.48-33.81,7.06-.21,11.64,5.06,14.28,11.06,1.72,3.87,2.8,8.02,3.63,12.16.7,3.44.73,7,1.53,10.42.06.25.12.5.19.73l28.47.39c0-2.42-1.47-5.66-1.89-7.58Z"/>
        </g>
        <g class="cls-80">
          <path class="cls-49" d="m378.91,53.06c-.7-3.19-1.49-6.36-2.42-9.49-1.7-5.78-3.81-11.46-6.49-16.88-4.47-8.95-10.75-17.53-19.62-22.5-5.61-3.13-12-4.5-18.4-4.14-24.57,1.41-39.96,26.04-44.67,59.3-1.35,9.47-1.84,19.66-1.41,30.21.37,9.09,1.51,18.15,3.54,27.02,2.45,10.79,6.11,30.41,21.51,27.53,9.09-1.7,9.26-13.2,6.03-20.03-2.78-5.9-6.28-10.48-7.71-17.01-1.31-6.05-1.53-12.31-1.3-18.5.37-9.61,1.41-19.7,3.25-28.9,3.67-18.54,10.53-33.48,21.48-33.81,7.06-.21,11.64,5.06,14.28,11.06,1.72,3.87,2.8,8.02,3.63,12.16.7,3.44.73,7,1.53,10.42.06.25.12.5.19.73l28.47.39c0-2.42-1.47-5.66-1.89-7.58Z"/>
        </g>
      </g>
      <g>
        <g class="cls-20">
          <path class="cls-45" d="m543.6,76.37c2.84-4.11,5.27-8.55,8.01-13.02,1.02-1.67,2.05-3.35,2.69-5.2.38-1.11.63-2.29,1.29-3.27,1.75-2.62,5.52-2.71,8.65-2.37,12.49,1.34,16.08,8.34,15.58,20.25-.86,20.65-8.95,40.5-23.69,54.9-11.77,11.49-26.32,17.65-42.81,17.47-3.11-.03-6.3-.29-9.13-1.56-5.69-2.55-9.02-8.99-9.02-15.22,0-22.46,24.51-30.62,39.01-41.73,3.87-2.97,6.83-6.46,9.45-10.24Z"/>
        </g>
        <path class="cls-42" d="m578.14,55.49c-.7-3.19-1.49-6.36-2.42-9.49-1.7-5.78-3.81-11.46-6.49-16.88-4.47-8.95-10.75-17.53-19.62-22.5-5.61-3.13-12-4.5-18.4-4.14-24.57,1.41-39.96,26.04-44.67,59.3-1.35,9.47-1.84,19.66-1.41,30.21.37,9.09,1.51,18.15,3.54,27.02,2.45,10.79,6.11,30.41,21.51,27.53,9.09-1.7,9.26-13.2,6.03-20.03-2.78-5.9-6.28-10.48-7.71-17.01-1.31-6.05-1.53-12.31-1.3-18.5.37-9.61,1.41-19.7,3.25-28.9,3.67-18.54,10.53-33.48,21.48-33.81,7.06-.21,11.64,5.06,14.28,11.06,1.72,3.87,2.8,8.02,3.63,12.16.7,3.44.73,7,1.53,10.42.06.25.12.5.19.73l28.47.39c0-2.42-1.47-5.66-1.89-7.58Z"/>
        <g class="cls-15">
          <path class="cls-40" d="m578.14,55.49c-.7-3.19-1.49-6.36-2.42-9.49-1.7-5.78-3.81-11.46-6.49-16.88-4.47-8.95-10.75-17.53-19.62-22.5-5.61-3.13-12-4.5-18.4-4.14-24.57,1.41-39.96,26.04-44.67,59.3-1.35,9.47-1.84,19.66-1.41,30.21.37,9.09,1.51,18.15,3.54,27.02,2.45,10.79,6.11,30.41,21.51,27.53,9.09-1.7,9.26-13.2,6.03-20.03-2.78-5.9-6.28-10.48-7.71-17.01-1.31-6.05-1.53-12.31-1.3-18.5.37-9.61,1.41-19.7,3.25-28.9,3.67-18.54,10.53-33.48,21.48-33.81,7.06-.21,11.64,5.06,14.28,11.06,1.72,3.87,2.8,8.02,3.63,12.16.7,3.44.73,7,1.53,10.42.06.25.12.5.19.73l28.47.39c0-2.42-1.47-5.66-1.89-7.58Z"/>
        </g>
        <g class="cls-12">
          <path class="cls-41" d="m578.14,55.49c-.7-3.19-1.49-6.36-2.42-9.49-1.7-5.78-3.81-11.46-6.49-16.88-4.47-8.95-10.75-17.53-19.62-22.5-5.61-3.13-12-4.5-18.4-4.14-24.57,1.41-39.96,26.04-44.67,59.3-1.35,9.47-1.84,19.66-1.41,30.21.37,9.09,1.51,18.15,3.54,27.02,2.45,10.79,6.11,30.41,21.51,27.53,9.09-1.7,9.26-13.2,6.03-20.03-2.78-5.9-6.28-10.48-7.71-17.01-1.31-6.05-1.53-12.31-1.3-18.5.37-9.61,1.41-19.7,3.25-28.9,3.67-18.54,10.53-33.48,21.48-33.81,7.06-.21,11.64,5.06,14.28,11.06,1.72,3.87,2.8,8.02,3.63,12.16.7,3.44.73,7,1.53,10.42.06.25.12.5.19.73l28.47.39c0-2.42-1.47-5.66-1.89-7.58Z"/>
        </g>
      </g>
      <g>
        <g class="cls-19">
          <path class="cls-44" d="m742.84,78.8c2.84-4.11,5.27-8.55,8.01-13.02,1.02-1.67,2.05-3.35,2.69-5.2.38-1.11.63-2.29,1.29-3.27,1.75-2.62,5.52-2.71,8.65-2.37,12.49,1.34,16.08,8.34,15.58,20.25-.86,20.64-8.95,40.5-23.69,54.9-11.77,11.49-26.32,17.65-42.81,17.47-3.11-.03-6.3-.29-9.13-1.56-5.69-2.55-9.02-8.99-9.02-15.22,0-22.46,24.51-30.62,39.01-41.73,3.87-2.97,6.83-6.46,9.45-10.24Z"/>
        </g>
        <path class="cls-43" d="m777.38,57.92c-.7-3.19-1.49-6.36-2.42-9.49-1.7-5.78-3.81-11.46-6.49-16.88-4.47-8.95-10.75-17.53-19.62-22.5-5.61-3.13-12-4.5-18.4-4.14-24.57,1.41-39.96,26.04-44.67,59.3-1.35,9.47-1.84,19.66-1.41,30.21.37,9.09,1.51,18.15,3.54,27.02,2.45,10.79,6.11,30.41,21.51,27.53,9.09-1.7,9.26-13.2,6.03-20.03-2.78-5.9-6.28-10.48-7.71-17.01-1.31-6.05-1.53-12.31-1.3-18.5.37-9.61,1.41-19.7,3.25-28.9,3.67-18.54,10.53-33.48,21.48-33.81,7.06-.21,11.64,5.06,14.28,11.06,1.72,3.87,2.8,8.02,3.63,12.16.7,3.44.73,7,1.53,10.42.06.25.12.5.19.73l28.47.39c0-2.42-1.47-5.66-1.89-7.58Z"/>
        <g class="cls-11">
          <path class="cls-39" d="m777.38,57.92c-.7-3.19-1.49-6.36-2.42-9.49-1.7-5.78-3.81-11.46-6.49-16.88-4.47-8.95-10.75-17.53-19.62-22.5-5.61-3.13-12-4.5-18.4-4.14-24.57,1.41-39.96,26.04-44.67,59.3-1.35,9.47-1.84,19.66-1.41,30.21.37,9.09,1.51,18.15,3.54,27.02,2.45,10.79,6.11,30.41,21.51,27.53,9.09-1.7,9.26-13.2,6.03-20.03-2.78-5.9-6.28-10.48-7.71-17.01-1.31-6.05-1.53-12.31-1.3-18.5.37-9.61,1.41-19.7,3.25-28.9,3.67-18.54,10.53-33.48,21.48-33.81,7.06-.21,11.64,5.06,14.28,11.06,1.72,3.87,2.8,8.02,3.63,12.16.7,3.44.73,7,1.53,10.42.06.25.12.5.19.73l28.47.39c0-2.42-1.47-5.66-1.89-7.58Z"/>
        </g>
        <g class="cls-16">
          <path class="cls-35" d="m777.38,57.92c-.7-3.19-1.49-6.36-2.42-9.49-1.7-5.78-3.81-11.46-6.49-16.88-4.47-8.95-10.75-17.53-19.62-22.5-5.61-3.13-12-4.5-18.4-4.14-24.57,1.41-39.96,26.04-44.67,59.3-1.35,9.47-1.84,19.66-1.41,30.21.37,9.09,1.51,18.15,3.54,27.02,2.45,10.79,6.11,30.41,21.51,27.53,9.09-1.7,9.26-13.2,6.03-20.03-2.78-5.9-6.28-10.48-7.71-17.01-1.31-6.05-1.53-12.31-1.3-18.5.37-9.61,1.41-19.7,3.25-28.9,3.67-18.54,10.53-33.48,21.48-33.81,7.06-.21,11.64,5.06,14.28,11.06,1.72,3.87,2.8,8.02,3.63,12.16.7,3.44.73,7,1.53,10.42.06.25.12.5.19.73l28.47.39c0-2.42-1.47-5.66-1.89-7.58Z"/>
        </g>
      </g>
      <g>
        <g class="cls-5">
          <path class="cls-31" d="m942.07,81.76c2.84-4.11,5.27-8.55,8.01-13.02,1.02-1.67,2.05-3.35,2.69-5.2.38-1.11.63-2.29,1.29-3.27,1.75-2.62,5.52-2.71,8.65-2.37,12.49,1.34,16.08,8.34,15.58,20.25-.86,20.65-8.95,40.5-23.69,54.9-11.77,11.49-26.32,17.65-42.81,17.47-3.11-.04-6.3-.29-9.13-1.56-5.69-2.55-9.02-8.99-9.02-15.22,0-22.46,24.51-30.62,39.01-41.73,3.87-2.97,6.83-6.46,9.45-10.24Z"/>
        </g>
        <path class="cls-38" d="m976.62,60.88c-.7-3.19-1.49-6.36-2.42-9.49-1.7-5.78-3.81-11.46-6.49-16.88-4.47-8.95-10.75-17.53-19.62-22.5-5.61-3.13-12-4.5-18.4-4.14-24.57,1.41-39.96,26.04-44.67,59.3-1.35,9.47-1.84,19.66-1.41,30.21.37,9.09,1.51,18.15,3.54,27.02,2.45,10.79,6.11,30.41,21.51,27.53,9.09-1.7,9.26-13.2,6.03-20.03-2.78-5.9-6.28-10.48-7.71-17.01-1.31-6.05-1.53-12.31-1.3-18.5.37-9.61,1.41-19.7,3.25-28.9,3.67-18.54,10.53-33.48,21.48-33.81,7.06-.21,11.64,5.06,14.28,11.06,1.72,3.87,2.8,8.02,3.63,12.16.7,3.44.73,7,1.53,10.42.06.25.12.5.19.73l28.47.39c0-2.42-1.47-5.66-1.89-7.58Z"/>
        <g class="cls-7">
          <path class="cls-34" d="m976.62,60.88c-.7-3.19-1.49-6.36-2.42-9.49-1.7-5.78-3.81-11.46-6.49-16.88-4.47-8.95-10.75-17.53-19.62-22.5-5.61-3.13-12-4.5-18.4-4.14-24.57,1.41-39.96,26.04-44.67,59.3-1.35,9.47-1.84,19.66-1.41,30.21.37,9.09,1.51,18.15,3.54,27.02,2.45,10.79,6.11,30.41,21.51,27.53,9.09-1.7,9.26-13.2,6.03-20.03-2.78-5.9-6.28-10.48-7.71-17.01-1.31-6.05-1.53-12.31-1.3-18.5.37-9.61,1.41-19.7,3.25-28.9,3.67-18.54,10.53-33.48,21.48-33.81,7.06-.21,11.64,5.06,14.28,11.06,1.72,3.87,2.8,8.02,3.63,12.16.7,3.44.73,7,1.53,10.42.06.25.12.5.19.73l28.47.39c0-2.42-1.47-5.66-1.89-7.58Z"/>
        </g>
        <g class="cls-24">
          <path class="cls-32" d="m976.62,60.88c-.7-3.19-1.49-6.36-2.42-9.49-1.7-5.78-3.81-11.46-6.49-16.88-4.47-8.95-10.75-17.53-19.62-22.5-5.61-3.13-12-4.5-18.4-4.14-24.57,1.41-39.96,26.04-44.67,59.3-1.35,9.47-1.84,19.66-1.41,30.21.37,9.09,1.51,18.15,3.54,27.02,2.45,10.79,6.11,30.41,21.51,27.53,9.09-1.7,9.26-13.2,6.03-20.03-2.78-5.9-6.28-10.48-7.71-17.01-1.31-6.05-1.53-12.31-1.3-18.5.37-9.61,1.41-19.7,3.25-28.9,3.67-18.54,10.53-33.48,21.48-33.81,7.06-.21,11.64,5.06,14.28,11.06,1.72,3.87,2.8,8.02,3.63,12.16.7,3.44.73,7,1.53,10.42.06.25.12.5.19.73l28.47.39c0-2.42-1.47-5.66-1.89-7.58Z"/>
        </g>
      </g>
      <g>
        <g class="cls-22">
          <path class="cls-37" d="m1141.31,84.91c2.84-4.11,5.27-8.55,8.01-13.02,1.02-1.67,2.05-3.35,2.69-5.2.38-1.11.63-2.29,1.29-3.27,1.75-2.62,5.52-2.71,8.65-2.37,12.49,1.34,16.08,8.34,15.58,20.25-.86,20.65-8.95,40.5-23.69,54.9-11.77,11.49-26.32,17.65-42.81,17.47-3.11-.03-6.3-.29-9.13-1.56-5.69-2.55-9.02-8.99-9.02-15.22,0-22.46,24.51-30.62,39.01-41.73,3.87-2.97,6.83-6.46,9.45-10.24Z"/>
        </g>
        <path class="cls-36" d="m1175.86,64.03c-.7-3.19-1.49-6.36-2.42-9.49-1.7-5.78-3.81-11.46-6.49-16.88-4.47-8.95-10.75-17.53-19.62-22.5-5.61-3.13-12-4.5-18.4-4.14-24.57,1.41-39.96,26.04-44.67,59.3-1.35,9.47-1.84,19.66-1.41,30.21.37,9.09,1.51,18.15,3.54,27.02,2.45,10.79,6.11,30.41,21.51,27.53,9.09-1.7,9.26-13.2,6.03-20.03-2.78-5.9-6.28-10.48-7.71-17.01-1.31-6.05-1.53-12.31-1.3-18.5.37-9.61,1.41-19.7,3.25-28.9,3.67-18.54,10.53-33.48,21.48-33.81,7.06-.21,11.64,5.06,14.28,11.06,1.72,3.87,2.8,8.02,3.63,12.16.7,3.44.73,7,1.53,10.42.06.25.12.5.19.73l28.47.39c0-2.42-1.47-5.66-1.89-7.58Z"/>
        <g class="cls-2">
          <path class="cls-30" d="m1175.86,64.03c-.7-3.19-1.49-6.36-2.42-9.49-1.7-5.78-3.81-11.46-6.49-16.88-4.47-8.95-10.75-17.53-19.62-22.5-5.61-3.13-12-4.5-18.4-4.14-24.57,1.41-39.96,26.04-44.67,59.3-1.35,9.47-1.84,19.66-1.41,30.21.37,9.09,1.51,18.15,3.54,27.02,2.45,10.79,6.11,30.41,21.51,27.53,9.09-1.7,9.26-13.2,6.03-20.03-2.78-5.9-6.28-10.48-7.71-17.01-1.31-6.05-1.53-12.31-1.3-18.5.37-9.61,1.41-19.7,3.25-28.9,3.67-18.54,10.53-33.48,21.48-33.81,7.06-.21,11.64,5.06,14.28,11.06,1.72,3.87,2.8,8.02,3.63,12.16.7,3.44.73,7,1.53,10.42.06.25.12.5.19.73l28.47.39c0-2.42-1.47-5.66-1.89-7.58Z"/>
        </g>
        <g class="cls-3">
          <path class="cls-33" d="m1175.86,64.03c-.7-3.19-1.49-6.36-2.42-9.49-1.7-5.78-3.81-11.46-6.49-16.88-4.47-8.95-10.75-17.53-19.62-22.5-5.61-3.13-12-4.5-18.4-4.14-24.57,1.41-39.96,26.04-44.67,59.3-1.35,9.47-1.84,19.66-1.41,30.21.37,9.09,1.51,18.15,3.54,27.02,2.45,10.79,6.11,30.41,21.51,27.53,9.09-1.7,9.26-13.2,6.03-20.03-2.78-5.9-6.28-10.48-7.71-17.01-1.31-6.05-1.53-12.31-1.3-18.5.37-9.61,1.41-19.7,3.25-28.9,3.67-18.54,10.53-33.48,21.48-33.81,7.06-.21,11.64,5.06,14.28,11.06,1.72,3.87,2.8,8.02,3.63,12.16.7,3.44.73,7,1.53,10.42.06.25.12.5.19.73l28.47.39c0-2.42-1.47-5.66-1.89-7.58Z"/>
        </g>
      </g>
      <path class="cls-57" d="m419.26,321.84c-26.87-.86-53.75-1.73-80.62-2.59-12.83-.41-21.37-9.93-19.28-21.25,4.39-23.7,8.13-47.35,11.22-70.94,1.48-11.27,12.95-20.05,25.82-19.64,26.95.86,53.9,1.72,80.84,2.57,12.87.41,22.24,9.86,20.72,21.13-3.17,23.6-6.99,47.26-11.45,70.96-2.13,11.32-14.42,20.17-27.25,19.75Zm392.88,155.83c7.29-23.72,13.92-47.39,19.91-71.02,2.86-11.28-5.38-20.74-18.2-21.15-26.84-.86-53.69-1.72-80.54-2.58-12.82-.41-25.34,8.38-28.16,19.66-5.91,23.62-12.47,47.29-19.68,71-3.44,11.32,3.96,20.85,16.75,21.26,26.77.86,53.54,1.73,80.31,2.59,12.78.41,26.13-8.44,29.61-19.77Z"/>
    </g>
  </g>
</svg>