<?xml version="1.0" encoding="UTF-8"?>
<svg id="Layer_2" data-name="Layer 2" xmlns="http://www.w3.org/2000/svg" xmlns:xlink="http://www.w3.org/1999/xlink" viewBox="0 0 1492.87 1609.88">
  <defs>
    <style>
      .cls-1 {
        mask: url(#mask-15);
      }

      .cls-2 {
        mask: url(#mask-14);
      }

      .cls-3 {
        mask: url(#mask-13);
      }

      .cls-4 {
        mask: url(#mask-12);
      }

      .cls-5 {
        mask: url(#mask-11);
      }

      .cls-6 {
        mask: url(#mask-10);
      }

      .cls-7 {
        fill: url(#linear-gradient-5);
      }

      .cls-7, .cls-8, .cls-9, .cls-10, .cls-11, .cls-12, .cls-13, .cls-14, .cls-15, .cls-16, .cls-17, .cls-18, .cls-19, .cls-20, .cls-21, .cls-22, .cls-23, .cls-24, .cls-25, .cls-26, .cls-27, .cls-28, .cls-29, .cls-30, .cls-31, .cls-32, .cls-33, .cls-34, .cls-35, .cls-36, .cls-37, .cls-38, .cls-39, .cls-40 {
        stroke-width: 0px;
      }

      .cls-7, .cls-8, .cls-9, .cls-10, .cls-11, .cls-33, .cls-34, .cls-35 {
        mix-blend-mode: multiply;
      }

      .cls-8 {
        fill: url(#linear-gradient-8);
      }

      .cls-9 {
        fill: url(#linear-gradient-2);
      }

      .cls-10 {
        fill: url(#linear-gradient-12);
      }

      .cls-11 {
        fill: url(#linear-gradient-15);
      }

      .cls-41 {
        clip-path: url(#clippath);
      }

      .cls-12 {
        fill: none;
      }

      .cls-42 {
        mask: url(#mask);
      }

      .cls-13 {
        fill: url(#linear-gradient);
      }

      .cls-14 {
        fill: url(#radial-gradient);
      }

      .cls-15 {
        fill: url(#linear-gradient-11);
      }

      .cls-16 {
        fill: url(#linear-gradient-13);
      }

      .cls-17 {
        fill: url(#linear-gradient-10);
      }

      .cls-18 {
        fill: url(#linear-gradient-17);
      }

      .cls-19 {
        fill: url(#linear-gradient-16);
      }

      .cls-20 {
        fill: url(#linear-gradient-19);
      }

      .cls-21 {
        fill: url(#linear-gradient-23);
      }

      .cls-22 {
        fill: url(#linear-gradient-21);
      }

      .cls-23 {
        fill: url(#linear-gradient-18);
      }

      .cls-24 {
        fill: url(#linear-gradient-14);
      }

      .cls-25 {
        fill: url(#linear-gradient-22);
      }

      .cls-26 {
        fill: url(#linear-gradient-20);
      }

      .cls-27 {
        fill: url(#linear-gradient-24);
      }

      .cls-28 {
        fill: url(#radial-gradient-3);
      }

      .cls-29 {
        fill: url(#radial-gradient-5);
      }

      .cls-30 {
        fill: url(#radial-gradient-7);
      }

      .cls-31 {
        fill: #729eb1;
      }

      .cls-31, .cls-32 {
        opacity: .5;
      }

      .cls-32 {
        fill: #9ec9d8;
      }

      .cls-33 {
        fill: url(#radial-gradient-6);
      }

      .cls-34 {
        fill: url(#radial-gradient-4);
      }

      .cls-35 {
        fill: url(#radial-gradient-2);
      }

      .cls-36 {
        fill: url(#linear-gradient-4);
      }

      .cls-37 {
        fill: url(#linear-gradient-3);
      }

      .cls-38 {
        fill: url(#linear-gradient-9);
      }

      .cls-39 {
        fill: url(#linear-gradient-7);
      }

      .cls-40 {
        fill: url(#linear-gradient-6);
      }

      .cls-43 {
        mask: url(#mask-3);
      }

      .cls-44 {
        mask: url(#mask-2);
      }

      .cls-45 {
        mask: url(#mask-5);
      }

      .cls-46 {
        mask: url(#mask-4);
      }

      .cls-47 {
        mask: url(#mask-1);
      }

      .cls-48 {
        mask: url(#mask-7);
      }

      .cls-49 {
        mask: url(#mask-6);
      }

      .cls-50 {
        mask: url(#mask-8);
      }

      .cls-51 {
        mask: url(#mask-9);
      }
    </style>
    <linearGradient id="linear-gradient" x1="29.57" y1="999.07" x2="1428.02" y2="999.07" gradientUnits="userSpaceOnUse">
      <stop offset="0" stop-color="#5a87f6"/>
      <stop offset=".06" stop-color="#456bf8"/>
      <stop offset=".13" stop-color="#3453fa"/>
      <stop offset=".16" stop-color="#395bf9"/>
      <stop offset=".29" stop-color="#4a75f7"/>
      <stop offset=".42" stop-color="#5788f6"/>
      <stop offset=".56" stop-color="#5e94f5"/>
      <stop offset=".7" stop-color="#6198f5"/>
      <stop offset=".81" stop-color="#5f95f5"/>
      <stop offset=".88" stop-color="#5a8bf6"/>
      <stop offset=".95" stop-color="#517bf8"/>
      <stop offset="1" stop-color="#496cfb"/>
    </linearGradient>
    <filter id="luminosity-noclip" x="29.58" y="-9039.97" width="1398.45" height="32766" color-interpolation-filters="sRGB" filterUnits="userSpaceOnUse">
      <feFlood flood-color="#fff" result="bg"/>
      <feBlend in="SourceGraphic" in2="bg"/>
    </filter>
    <mask id="mask-1" x="29.58" y="-9039.97" width="1398.45" height="32766" maskUnits="userSpaceOnUse"/>
    <linearGradient id="linear-gradient-2" x1="754.44" y1="406.1" x2="739.16" y2="757.37" gradientUnits="userSpaceOnUse">
      <stop offset=".02" stop-color="#fff"/>
      <stop offset=".02" stop-color="#f6f6f6"/>
      <stop offset=".05" stop-color="#b6b6b6"/>
      <stop offset=".08" stop-color="#7e7e7e"/>
      <stop offset=".11" stop-color="#515151"/>
      <stop offset=".13" stop-color="#2d2d2d"/>
      <stop offset=".16" stop-color="#141414"/>
      <stop offset=".18" stop-color="#050505"/>
      <stop offset=".2" stop-color="#000"/>
    </linearGradient>
    <mask id="mask" x="29.58" y="388.26" width="1398.45" height="1221.62" maskUnits="userSpaceOnUse">
      <g class="cls-47">
        <path class="cls-9" d="m1427.97,1355.64c.57,37.56-3.47,76.58-10.93,113.51-6.43,31.78-18.55,60.55-37.48,90.44-11.01,17.41-30.64,35.58-59.41,46.15-11.23,4.15-35.01,4.37-46.59,4.04-1.44-.05-9.79-1.14-23.97-3.15-164.25-23.1-1109.41-165.93-1109.41-165.93L29.58,617.87s45.07-.03,88.1-8.49c52.12-10.22,86.42-39.62,86.42-128.07,0-6.83-1.11-20.12-1.68-44.74-.24-11.36,1.08-23.27,7.35-33.35,11.66-18.77,25.11-14.94,46.56-13.97,26.6,1.19,1106.32,50.19,1113.53,50.52.79.03,1.65.11,2.63.24,1.33.16,2.93.43,4.96.81,21.88,3.96,36.53,22.72,37.04,40.32l13.48,874.49Z"/>
      </g>
    </mask>
    <linearGradient id="linear-gradient-3" x1="754.44" y1="406.1" x2="739.16" y2="757.37" gradientUnits="userSpaceOnUse">
      <stop offset=".02" stop-color="#83bcfa"/>
      <stop offset=".2" stop-color="#83bcfa"/>
    </linearGradient>
    <linearGradient id="linear-gradient-4" x1="741.74" y1="696.02" x2="1217.64" y2="726.39" gradientUnits="userSpaceOnUse">
      <stop offset=".69" stop-color="#729eb1"/>
      <stop offset=".84" stop-color="#91bccc"/>
      <stop offset="1" stop-color="#b7dfed"/>
    </linearGradient>
    <filter id="luminosity-noclip-2" x="204.23" y="-9039.97" width="1255.28" height="32766" color-interpolation-filters="sRGB" filterUnits="userSpaceOnUse">
      <feFlood flood-color="#fff" result="bg"/>
      <feBlend in="SourceGraphic" in2="bg"/>
    </filter>
    <mask id="mask-3" x="204.23" y="-9039.97" width="1255.28" height="32766" maskUnits="userSpaceOnUse"/>
    <linearGradient id="linear-gradient-5" x1="853.72" y1="192.78" x2="853.72" y2="1339.85" gradientTransform="translate(35.28 -127.2) rotate(4.12)" gradientUnits="userSpaceOnUse">
      <stop offset=".03" stop-color="gray"/>
      <stop offset=".15" stop-color="#4e4e4e"/>
      <stop offset=".3" stop-color="#161616"/>
      <stop offset=".37" stop-color="#000"/>
      <stop offset=".4" stop-color="#0b0b0b"/>
      <stop offset=".44" stop-color="#292929"/>
      <stop offset=".5" stop-color="#595959"/>
      <stop offset=".57" stop-color="#9c9c9c"/>
      <stop offset=".66" stop-color="#f1f1f1"/>
      <stop offset=".67" stop-color="#fff"/>
    </linearGradient>
    <mask id="mask-2" x="204.23" y="160.55" width="1255.28" height="1124.75" maskUnits="userSpaceOnUse">
      <g class="cls-43">
        <path class="cls-7" d="m1259.59,430.49c29.98-83.04,75.36-174.79,150.64-226.87,15.21-10.52,36.08-23.71,49.28-34.87-33.71-1.55-73.33-.76-107.09-1.11-81.45-.84-421.84-4.37-510.59-5.29-57.62-.6-115.23-1.19-172.85-1.79-67.27-.69-126.33,69.26-159.82,120.44-37.77,57.73-61.84,123.55-79.52,189.9-23.97,89.93-75.43,531.47-82.95,572.15-13.3,72.01-50.24,186.11-142.46,180.25,36.99,2.66,732.61,57.85,786.8,61.7,63.22,4.5,104.05-42.85,129.04-95.25,30.62-64.22,58.04-349.49,66.85-423.32,8.83-73.98,59.13-298.49,72.66-335.95Z"/>
      </g>
    </mask>
    <linearGradient id="linear-gradient-6" x1="853.72" y1="192.78" x2="853.72" y2="1339.85" gradientTransform="translate(35.28 -127.2) rotate(4.12)" gradientUnits="userSpaceOnUse">
      <stop offset=".03" stop-color="#cfebfe"/>
      <stop offset=".2" stop-color="#b4d8e9"/>
      <stop offset=".37" stop-color="#9ec9d8"/>
      <stop offset=".54" stop-color="#94becc"/>
      <stop offset=".67" stop-color="#8ab3c1"/>
    </linearGradient>
    <linearGradient id="linear-gradient-7" x1="1665.69" y1="251.45" x2="904.39" y2="1299.74" gradientTransform="translate(35.28 -127.2) rotate(4.12)" gradientUnits="userSpaceOnUse">
      <stop offset="0" stop-color="#f3f8fb"/>
      <stop offset=".03" stop-color="#e6f3fc"/>
      <stop offset=".09" stop-color="#d8eefd"/>
      <stop offset=".16" stop-color="#d1ebfd"/>
      <stop offset=".3" stop-color="#cfebfe"/>
      <stop offset=".45" stop-color="#bbdbec"/>
      <stop offset=".76" stop-color="#8ab3c1"/>
    </linearGradient>
    <radialGradient id="radial-gradient" cx="-1707.41" cy="571.16" fx="-1707.41" fy="571.16" r="3172.4" gradientTransform="translate(35.28 -127.2) rotate(4.12)" gradientUnits="userSpaceOnUse">
      <stop offset=".63" stop-color="#b7dfed"/>
      <stop offset=".63" stop-color="#c0e3ef"/>
      <stop offset=".65" stop-color="#d7ecf4"/>
      <stop offset=".67" stop-color="#e6f2f8"/>
      <stop offset=".7" stop-color="#f0f6fa"/>
      <stop offset=".73" stop-color="#f3f8fb"/>
      <stop offset=".82" stop-color="#f3f8fb"/>
      <stop offset=".82" stop-color="#f3f8fb"/>
      <stop offset=".85" stop-color="#eaf4f8"/>
      <stop offset=".88" stop-color="#d1eaf3"/>
      <stop offset=".92" stop-color="#b7dfed"/>
      <stop offset=".95" stop-color="#b1d9e8"/>
      <stop offset=".99" stop-color="#a0cbd9"/>
      <stop offset="1" stop-color="#9ec9d8"/>
    </radialGradient>
    <filter id="luminosity-noclip-3" x="87.46" y="-9039.97" width="1255.28" height="32766" color-interpolation-filters="sRGB" filterUnits="userSpaceOnUse">
      <feFlood flood-color="#fff" result="bg"/>
      <feBlend in="SourceGraphic" in2="bg"/>
    </filter>
    <mask id="mask-5" x="87.46" y="-9039.97" width="1255.28" height="32766" maskUnits="userSpaceOnUse"/>
    <linearGradient id="linear-gradient-8" x1="725.71" y1="41.04" x2="725.71" y2="1188.1" gradientTransform="translate(35.28 -127.2) rotate(4.12)" gradientUnits="userSpaceOnUse">
      <stop offset="0" stop-color="#fff"/>
      <stop offset=".21" stop-color="#000"/>
      <stop offset=".82" stop-color="gray"/>
      <stop offset=".85" stop-color="#8e8e8e"/>
      <stop offset=".9" stop-color="#b3b3b3"/>
      <stop offset=".97" stop-color="#eee"/>
      <stop offset=".99" stop-color="#fff"/>
    </linearGradient>
    <mask id="mask-4" x="87.46" y="0" width="1255.28" height="1124.75" maskUnits="userSpaceOnUse">
      <g class="cls-45">
        <path class="cls-8" d="m1142.82,269.93c29.98-83.04,75.36-174.79,150.64-226.87,15.21-10.52,36.08-23.71,49.28-34.87-33.71-1.55-73.33-.76-107.09-1.11-81.44-.84-421.84-4.37-510.59-5.29-57.62-.6-115.23-1.19-172.85-1.79-67.27-.69-126.33,69.26-159.82,120.44-37.77,57.73-61.84,123.55-79.52,189.9-23.97,89.93-75.43,531.47-82.95,572.15-13.3,72.01-50.24,186.11-142.46,180.25,36.99,2.66,732.61,57.85,786.8,61.7,63.22,4.5,104.05-42.85,129.04-95.25,30.62-64.22,58.04-349.49,66.85-423.32,8.83-73.98,59.13-298.49,72.66-335.95Z"/>
      </g>
    </mask>
    <linearGradient id="linear-gradient-9" x1="725.71" y1="41.04" x2="725.71" y2="1188.1" gradientTransform="translate(35.28 -127.2) rotate(4.12)" gradientUnits="userSpaceOnUse">
      <stop offset="0" stop-color="#b7dfed"/>
      <stop offset=".21" stop-color="#f3f8fb"/>
      <stop offset=".82" stop-color="#9ec9d8"/>
      <stop offset=".93" stop-color="#91bbc9"/>
      <stop offset=".99" stop-color="#8ab3c1"/>
    </linearGradient>
    <linearGradient id="linear-gradient-10" x1="1537.66" y1="99.72" x2="776.59" y2="1147.71" xlink:href="#linear-gradient-7"/>
    <linearGradient id="linear-gradient-11" x1="0" y1="1113.79" x2="1273.58" y2="1113.79" gradientUnits="userSpaceOnUse">
      <stop offset="0" stop-color="#6198f5"/>
      <stop offset=".05" stop-color="#72aaf7"/>
      <stop offset=".1" stop-color="#7eb7f9"/>
      <stop offset=".14" stop-color="#83bcfa"/>
      <stop offset=".32" stop-color="#6ea5f6"/>
      <stop offset=".47" stop-color="#6198f5"/>
      <stop offset=".63" stop-color="#5d90f5"/>
      <stop offset=".75" stop-color="#5a87f6"/>
    </linearGradient>
    <filter id="luminosity-noclip-4" x="0" y="-9039.97" width="1271.74" height="32766" color-interpolation-filters="sRGB" filterUnits="userSpaceOnUse">
      <feFlood flood-color="#fff" result="bg"/>
      <feBlend in="SourceGraphic" in2="bg"/>
    </filter>
    <mask id="mask-7" x="0" y="-9039.97" width="1271.74" height="32766" maskUnits="userSpaceOnUse"/>
    <linearGradient id="linear-gradient-12" x1="678.08" y1="557.48" x2="600.89" y2="1615.42" gradientUnits="userSpaceOnUse">
      <stop offset=".11" stop-color="#fff"/>
      <stop offset=".14" stop-color="#fff"/>
      <stop offset=".32" stop-color="#fff"/>
      <stop offset=".34" stop-color="#f6f6f6"/>
      <stop offset=".58" stop-color="#737373"/>
      <stop offset=".74" stop-color="#202020"/>
      <stop offset=".82" stop-color="#000"/>
      <stop offset=".84" stop-color="#040404"/>
      <stop offset=".85" stop-color="#101010"/>
      <stop offset=".87" stop-color="#252525"/>
      <stop offset=".89" stop-color="#424242"/>
      <stop offset=".91" stop-color="#676767"/>
      <stop offset=".92" stop-color="gray"/>
      <stop offset=".94" stop-color="#a5a5a5"/>
      <stop offset=".97" stop-color="#d5d5d5"/>
      <stop offset=".99" stop-color="#f3f3f3"/>
      <stop offset="1" stop-color="#fff"/>
    </linearGradient>
    <mask id="mask-6" x="0" y="617.81" width="1271.74" height="991.82" maskUnits="userSpaceOnUse">
      <g class="cls-48">
        <path class="cls-10" d="m1271.74,1609.63s-15.92-1.17-23.86-1.71c-27.63-2.03-55.24-4.04-82.87-6.05-42.28-3.06-84.55-6.16-126.83-9.22-52.15-3.8-104.29-7.59-156.44-11.39-57.22-4.15-114.46-8.32-171.71-12.47-57.54-4.17-115.08-8.38-172.63-12.56-53.1-3.88-106.16-7.73-159.26-11.58-43.82-3.2-87.67-6.37-131.49-9.57-29.83-2.17-59.63-4.34-89.46-6.51-11.01-.79-22.02-1.6-33.03-2.41-22.13-1.57-42.17-14.24-56.02-29.04-12.15-12.94-21.21-28.12-28.31-43.77-16.05-35.39-22.45-73.87-23.4-111.91L.03,667.69v-.16c-.3-10.55,1.41-21.34,6.07-31.1,4.01-8.38,11.12-19.14,22.83-18.6.16,0,278.92,14.24,339.91,17.36,7.48.38,11.69.6,11.69.6,24.24,1.25,45.58,14.78,55.1,34.93l78.07,165.52c9.49,20.15,30.86,33.71,55.07,34.93l1.55.08,617.67,31.56,83.74,706.83Z"/>
      </g>
    </mask>
    <linearGradient id="linear-gradient-13" x1="678.08" y1="557.48" x2="600.89" y2="1615.42" gradientUnits="userSpaceOnUse">
      <stop offset=".11" stop-color="#83bcfa"/>
      <stop offset=".13" stop-color="#74acf7"/>
      <stop offset=".16" stop-color="#69a0f6"/>
      <stop offset=".2" stop-color="#6299f5"/>
      <stop offset=".32" stop-color="#6198f5"/>
      <stop offset=".42" stop-color="#5c8ff6"/>
      <stop offset=".82" stop-color="#4c6ffa"/>
      <stop offset=".92" stop-color="#496cfb"/>
      <stop offset="1" stop-color="#496cfb"/>
    </linearGradient>
    <linearGradient id="linear-gradient-14" x1="1111.78" y1="1027.76" x2="1444" y2="1023.43" gradientUnits="userSpaceOnUse">
      <stop offset=".15" stop-color="#5a87f6"/>
      <stop offset=".54" stop-color="#496cfb"/>
      <stop offset=".66" stop-color="#4b70fa"/>
      <stop offset=".8" stop-color="#537ef8"/>
      <stop offset=".94" stop-color="#5f96f5"/>
      <stop offset=".95" stop-color="#6198f5"/>
    </linearGradient>
    <filter id="luminosity-noclip-5" x="1160.15" y="-9039.97" width="267.87" height="32766" color-interpolation-filters="sRGB" filterUnits="userSpaceOnUse">
      <feFlood flood-color="#fff" result="bg"/>
      <feBlend in="SourceGraphic" in2="bg"/>
    </filter>
    <mask id="mask-9" x="1160.15" y="-9039.97" width="267.87" height="32766" maskUnits="userSpaceOnUse"/>
    <radialGradient id="radial-gradient-2" cx="1219.9" cy="450.19" fx="1219.9" fy="450.19" r="1160.22" gradientUnits="userSpaceOnUse">
      <stop offset=".02" stop-color="#fff"/>
      <stop offset=".4" stop-color="#fff"/>
      <stop offset=".42" stop-color="#e5e5e5"/>
      <stop offset=".48" stop-color="#959595"/>
      <stop offset=".54" stop-color="#555"/>
      <stop offset=".59" stop-color="#272727"/>
      <stop offset=".63" stop-color="#0a0a0a"/>
      <stop offset=".65" stop-color="#000"/>
      <stop offset=".87" stop-color="#000"/>
      <stop offset=".89" stop-color="#030303"/>
      <stop offset=".91" stop-color="#0d0d0d"/>
      <stop offset=".93" stop-color="#1d1d1d"/>
      <stop offset=".94" stop-color="#353535"/>
      <stop offset=".95" stop-color="#545454"/>
      <stop offset=".97" stop-color="#797979"/>
      <stop offset=".98" stop-color="#a6a6a6"/>
      <stop offset=".99" stop-color="#d8d8d8"/>
      <stop offset="1" stop-color="#fff"/>
    </radialGradient>
    <mask id="mask-8" x="1160.15" y="440.01" width="267.87" height="1169.87" maskUnits="userSpaceOnUse">
      <g class="cls-51">
        <path class="cls-35" d="m1427.97,1355.64c.57,37.56-3.47,76.58-10.93,113.51-6.43,31.78-18.55,60.55-37.48,90.44-11.01,17.41-30.64,35.58-59.41,46.15-11.23,4.15-35.01,4.37-46.59,4.04-1.44-.05-8.29.45-21.7-4.6-7.19-2.7-14.99-8.58-23.37-16.34-24.76-22.97-37.37-54.13-45.53-84.74-7.21-26.98-11.06-55.78-11.06-83.55l-11.71-466.38c-.24-14.35-.03-52.8,24.19-51.06,24.87,1.79,71.29,12.5,117.25-22.32,46.91-35.58,50.82-211.49,50.33-245.6l-2.28-143.96c-.22-14.51,2.58-50.33,22.81-51.22,1.33.16,2.93.43,4.96.81,21.88,3.96,36.53,22.72,37.04,40.32l13.48,874.49Z"/>
      </g>
    </mask>
    <radialGradient id="radial-gradient-3" cx="1219.9" cy="450.19" fx="1219.9" fy="450.19" r="1160.22" gradientUnits="userSpaceOnUse">
      <stop offset=".02" stop-color="#6198f5"/>
      <stop offset=".4" stop-color="#6198f5"/>
      <stop offset=".65" stop-color="#6198f5"/>
      <stop offset=".87" stop-color="#4c6ffa"/>
      <stop offset=".99" stop-color="#4c6ffa"/>
      <stop offset="1" stop-color="#4c6ffa"/>
    </radialGradient>
    <clipPath id="clippath">
      <path class="cls-12" d="m1183.64,903.07l-614.85-31.9c-24.23-1.24-45.58-14.78-55.09-34.94l-78.06-165.52c-9.51-20.16-30.86-33.7-55.09-34.94,0,0-351.43-17.95-351.6-17.96-11.71-.54-18.84,10.23-22.85,18.62-4.65,9.74-6.35,20.53-6.07,31.09,0,.05,0,.11,0,.16l16.42,673.74c.94,38.07,7.33,76.54,23.4,111.93,7.1,15.64,16.16,30.82,28.29,43.77,13.86,14.79,33.91,27.46,56.03,29.05,11.01.8,22.03,1.6,33.04,2.4,29.81,2.17,59.63,4.34,89.44,6.51,43.84,3.19,87.67,6.38,131.51,9.57,53.08,3.86,106.16,7.72,159.24,11.58,57.55,4.19,115.09,8.37,172.64,12.56,57.23,4.16,114.47,8.33,171.7,12.49,52.14,3.79,104.29,7.59,156.43,11.38,42.27,3.07,84.55,6.15,126.82,9.22,27.63,2.01,55.25,4.02,82.88,6.03,8.57.62,25.71,1.87,25.71,1.87l-89.94-706.71Z"/>
    </clipPath>
    <filter id="luminosity-noclip-6" x="-244.32" y="-9039.97" width="568.45" height="32766" color-interpolation-filters="sRGB" filterUnits="userSpaceOnUse">
      <feFlood flood-color="#fff" result="bg"/>
      <feBlend in="SourceGraphic" in2="bg"/>
    </filter>
    <mask id="mask-11" x="-244.32" y="-9039.97" width="568.45" height="32766" maskUnits="userSpaceOnUse"/>
    <radialGradient id="radial-gradient-4" cx="-974.17" cy="1882.97" fx="-974.17" fy="1882.97" r="440.71" gradientTransform="translate(2921.42 1336.12) rotate(90) scale(.64 1.53)" gradientUnits="userSpaceOnUse">
      <stop offset="0" stop-color="#666"/>
      <stop offset=".33" stop-color="#404040"/>
      <stop offset=".77" stop-color="#111"/>
      <stop offset="1" stop-color="#000"/>
    </radialGradient>
    <mask id="mask-10" x="-244.32" y="34.61" width="568.45" height="1348.47" maskUnits="userSpaceOnUse">
      <g class="cls-5">
        <ellipse class="cls-34" cx="39.91" cy="708.84" rx="674.42" ry="283.79" transform="translate(-669.72 730.58) rotate(-88.53)"/>
      </g>
    </mask>
    <radialGradient id="radial-gradient-5" cx="-974.17" cy="1882.97" fx="-974.17" fy="1882.97" r="440.71" gradientTransform="translate(2921.42 1336.12) rotate(90) scale(.64 1.53)" gradientUnits="userSpaceOnUse">
      <stop offset="0" stop-color="#fff"/>
      <stop offset="0" stop-color="#fff"/>
      <stop offset=".85" stop-color="#fff"/>
    </radialGradient>
    <filter id="luminosity-noclip-7" x="368.85" y="-9039.97" width="199.93" height="32766" color-interpolation-filters="sRGB" filterUnits="userSpaceOnUse">
      <feFlood flood-color="#fff" result="bg"/>
      <feBlend in="SourceGraphic" in2="bg"/>
    </filter>
    <mask id="mask-13" x="368.85" y="-9039.97" width="199.93" height="32766" maskUnits="userSpaceOnUse"/>
    <linearGradient id="linear-gradient-15" x1="515.26" y1="731.25" x2="423.88" y2="774.38" gradientUnits="userSpaceOnUse">
      <stop offset=".31" stop-color="#fff"/>
      <stop offset=".69" stop-color="#515151"/>
      <stop offset=".87" stop-color="#000"/>
    </linearGradient>
    <mask id="mask-12" x="368.85" y="635.18" width="199.93" height="235.97" maskUnits="userSpaceOnUse">
      <g class="cls-3">
        <path class="cls-11" d="m539.63,870.15c-26.95-1.19-65.27-12.07-77.91-38.78l-92.88-196.19c7.48.38,11.69.6,11.69.6,24.24,1.25,45.58,14.78,55.1,34.93l78.07,165.52c9.49,20.15,30.86,33.71,55.07,34.93,0,0-12.28-.27-29.15-1Z"/>
      </g>
    </mask>
    <linearGradient id="linear-gradient-16" x1="515.26" y1="731.25" x2="423.88" y2="774.38" gradientUnits="userSpaceOnUse">
      <stop offset=".31" stop-color="#496cfb"/>
      <stop offset=".87" stop-color="#496cfb"/>
    </linearGradient>
    <linearGradient id="linear-gradient-17" x1="469.86" y1="239.23" x2="618.38" y2="533.61" gradientTransform="translate(-8.03 -42.3) rotate(1.73) scale(1.03 .97) skewX(-5.67)" gradientUnits="userSpaceOnUse">
      <stop offset=".01" stop-color="#3ec7cf"/>
      <stop offset=".51" stop-color="#27a0a9"/>
      <stop offset=".7" stop-color="#2298a2"/>
      <stop offset=".99" stop-color="#15848e"/>
      <stop offset="1" stop-color="#15838e"/>
    </linearGradient>
    <filter id="luminosity-noclip-8" x="396.07" y="-9039.97" width="218.24" height="32766" color-interpolation-filters="sRGB" filterUnits="userSpaceOnUse">
      <feFlood flood-color="#fff" result="bg"/>
      <feBlend in="SourceGraphic" in2="bg"/>
    </filter>
    <mask id="mask-15" x="396.07" y="-9039.97" width="218.24" height="32766" maskUnits="userSpaceOnUse"/>
    <radialGradient id="radial-gradient-6" cx="500.23" cy="229.97" fx="500.23" fy="229.97" r="232.47" gradientUnits="userSpaceOnUse">
      <stop offset="0" stop-color="gray"/>
      <stop offset=".14" stop-color="#787878"/>
      <stop offset=".35" stop-color="#636363"/>
      <stop offset=".61" stop-color="#404040"/>
      <stop offset=".91" stop-color="#101010"/>
      <stop offset="1" stop-color="#000"/>
    </radialGradient>
    <mask id="mask-14" x="396.07" y="179.09" width="218.24" height="305.18" maskUnits="userSpaceOnUse">
      <g class="cls-1">
        <path class="cls-33" d="m591.8,198.34c-.12-.13-.24-.25-.36-.38-29.66-30.99-104.35-23.07-126.96,18.31-5.84,10.69-7.79,22.35-8.08,33.77-.07,2.65,1.15,8.01-.85,10.34-1.62,1.86-4.99,1.08-6.99,1.68-11.15,3.33-12.09,17.71-11.29,26.57.96,10.22,4.03,20.78,9.64,28.62,2.13,2.98,7.13,7.98,11.67,4.32.8-.64,2.23-3.26,3.53-2.3,2.01,1.49,2.36,5.13,3.24,7.47,2.83,7.46,7.01,14.29,12.73,19.63,2.14,1.98,1.79,5.71-.75,7.92-7.07,6.1-17.1,13.41-30.08,19.51-12.99,6.05-24.65,8.94-33.4,10.39-2.64.44-4.92,2.63-5.4,5.21-3.13,17.03-7.91,40.45-12,64.45-2.6,15.34,9.02,25.16,22.08,25.56,53.47,1.62,106.67,3.23,160.11,4.85,13.06.4,27.23-8.65,28.78-24.02,2.4-24.05,3.96-47.57,5.44-64.65.22-2.59-1.45-4.9-3.95-5.5-8.28-1.96-19.07-5.54-30.33-12.32-11.23-6.83-19.21-14.69-24.58-21.17-1.93-2.34-1.27-6.06,1.39-7.9,7.74-5.36,14.46-12.7,19.15-20.47,1.08-1.79,2.18-5.15,4.62-5.71,2.72-.62,4.26,4.68,7.81,3.86,5.94-1.38,10.13-7.21,13.34-11.7,4.44-6.22,8.06-12.83,10.7-19.76,3.32-8.73,7.03-25.82-4.58-28.58-1.79-.43-4.13.43-5.57-1.09-2.04-2.17.21-6.09.99-8.57,6.54-20.86,4.4-42.59-10.03-58.34Z"/>
      </g>
    </mask>
    <radialGradient id="radial-gradient-7" cx="500.23" cy="229.97" fx="500.23" fy="229.97" r="232.47" gradientUnits="userSpaceOnUse">
      <stop offset="0" stop-color="#64d0d6"/>
      <stop offset="1" stop-color="#64d0d6"/>
    </radialGradient>
    <linearGradient id="linear-gradient-18" x1="897.93" y1="244.57" x2="897.93" y2="334.76" gradientTransform="translate(-23.3 -46.44) rotate(2.23) scale(1.07 .94) skewX(-10.96)" gradientUnits="userSpaceOnUse">
      <stop offset="0" stop-color="#9a6cf0"/>
      <stop offset=".05" stop-color="#ae77f5"/>
      <stop offset=".12" stop-color="#c081fa"/>
      <stop offset=".2" stop-color="#cb87fd"/>
      <stop offset=".28" stop-color="#cf8aff"/>
      <stop offset=".37" stop-color="#bf7ff1"/>
      <stop offset=".57" stop-color="#9764cf"/>
      <stop offset=".76" stop-color="#6945a8"/>
      <stop offset=".82" stop-color="#6b47ac"/>
      <stop offset=".87" stop-color="#744db8"/>
      <stop offset=".93" stop-color="#8259cd"/>
      <stop offset=".99" stop-color="#9568e9"/>
      <stop offset="1" stop-color="#9a6cf0"/>
    </linearGradient>
    <linearGradient id="linear-gradient-19" x1="906.6" y1="323.36" x2="906.6" y2="416.24" xlink:href="#linear-gradient-18"/>
    <linearGradient id="linear-gradient-20" x1="913.54" y1="413.04" x2="913.54" y2="505.92" xlink:href="#linear-gradient-18"/>
    <linearGradient id="linear-gradient-21" x1="818.73" y1="494.65" x2="817.02" y2="537.78" gradientUnits="userSpaceOnUse">
      <stop offset="0" stop-color="#9ec9d8"/>
      <stop offset=".08" stop-color="#aad3e2"/>
      <stop offset=".19" stop-color="#b3dcea"/>
      <stop offset=".33" stop-color="#b7dfed"/>
      <stop offset=".49" stop-color="#abd4e3"/>
      <stop offset=".78" stop-color="#8db7c8"/>
      <stop offset="1" stop-color="#729eb1"/>
    </linearGradient>
    <linearGradient id="linear-gradient-22" x1="810.12" y1="569.32" x2="808.93" y2="610.87" xlink:href="#linear-gradient-21"/>
    <linearGradient id="linear-gradient-23" x1="803.03" y1="641.05" x2="801.33" y2="687.59" xlink:href="#linear-gradient-21"/>
    <linearGradient id="linear-gradient-24" x1="800.45" y1="712.53" x2="798.75" y2="759.07" xlink:href="#linear-gradient-21"/>
  </defs>
  <g id="Layer_1-2" data-name="Layer 1">
    <g>
      <g>
        <path class="cls-13" d="m1414.5,481.14c-.53-17.6-15.17-36.36-37.05-40.32-3.53-.64-5.72-.97-7.58-1.05-7.23-.33-1086.94-49.33-1113.54-50.53-21.43-.97-34.9-4.8-46.55,13.97-6.26,10.08-7.6,22-7.37,33.36.57,24.61,1.7,37.92,1.7,44.74,0,88.45-34.3,117.86-86.43,128.08-43.05,8.45-88.12,8.47-88.12,8.47l110.62,822.84s1115.39,168.57,1133.39,169.08c11.57.33,35.34.12,46.59-4.03,28.76-10.59,48.38-28.75,59.41-46.16,18.92-29.89,31.03-58.65,37.46-90.43,7.47-36.94,11.51-75.96,10.93-113.53,0,0-13.47-874.48-13.47-874.49Z"/>
        <g class="cls-42">
          <path class="cls-37" d="m1427.97,1355.64c.57,37.56-3.47,76.58-10.93,113.51-6.43,31.78-18.55,60.55-37.48,90.44-11.01,17.41-30.64,35.58-59.41,46.15-11.23,4.15-35.01,4.37-46.59,4.04-1.44-.05-9.79-1.14-23.97-3.15-164.25-23.1-1109.41-165.93-1109.41-165.93L29.58,617.87s45.07-.03,88.1-8.49c52.12-10.22,86.42-39.62,86.42-128.07,0-6.83-1.11-20.12-1.68-44.74-.24-11.36,1.08-23.27,7.35-33.35,11.66-18.77,25.11-14.94,46.56-13.97,26.6,1.19,1106.32,50.19,1113.53,50.52.79.03,1.65.11,2.63.24,1.33.16,2.93.43,4.96.81,21.88,3.96,36.53,22.72,37.04,40.32l13.48,874.49Z"/>
        </g>
        <path class="cls-36" d="m1259.59,430.49c29.98-83.04,75.36-174.79,150.64-226.87,15.21-10.52,36.08-23.71,49.28-34.87-33.71-1.55-73.33-.76-107.09-1.11-81.45-.84-421.84-4.37-510.59-5.29-57.62-.6-115.23-1.19-172.85-1.79-67.27-.69-126.33,69.26-159.82,120.44-37.77,57.73-61.84,123.55-79.52,189.9-23.97,89.93-75.43,531.47-82.95,572.15-13.3,72.01-50.24,186.11-142.46,180.25,36.99,2.66,732.61,57.85,786.8,61.7,63.22,4.5,104.05-42.85,129.04-95.25,30.62-64.22,58.04-349.49,66.85-423.32,8.83-73.98,59.13-298.49,72.66-335.95Z"/>
        <g class="cls-44">
          <path class="cls-40" d="m1259.59,430.49c29.98-83.04,75.36-174.79,150.64-226.87,15.21-10.52,36.08-23.71,49.28-34.87-33.71-1.55-73.33-.76-107.09-1.11-81.45-.84-421.84-4.37-510.59-5.29-57.62-.6-115.23-1.19-172.85-1.79-67.27-.69-126.33,69.26-159.82,120.44-37.77,57.73-61.84,123.55-79.52,189.9-23.97,89.93-75.43,531.47-82.95,572.15-13.3,72.01-50.24,186.11-142.46,180.25,36.99,2.66,732.61,57.85,786.8,61.7,63.22,4.5,104.05-42.85,129.04-95.25,30.62-64.22,58.04-349.49,66.85-423.32,8.83-73.98,59.13-298.49,72.66-335.95Z"/>
        </g>
        <path class="cls-39" d="m1106.58,1303.97c23.94-20.75,43.32-47.2,57.79-74.93,20.64-39.55,33.12-84.47,41.37-128.15,17.91-94.78,23.53-191.66,33.88-287.45,5.48-50.74,11.64-101.46,19.85-151.83,10.67-65.46,24.83-130.84,44.8-194.12,20.47-64.86,49.46-135.41,97.23-185.13,21.15-22.01,45.12-38.66,72.41-48.51,17.77-6.41,22.19-25.82,16.82-41.8-5.34-15.9-21.83-27.82-38.75-21.75-30.15,10.85-57.79,30.24-82.88,56.02-56.87,58.43-93.42,137.98-119.79,214.13-23.42,67.63-39.39,138.75-50.94,209.33-8.44,51.6-14.79,103.61-20.41,155.59-7.9,73.13-14.41,146.45-23.5,219.44-6.95,55.83-16.56,116.83-41.81,167.67-10.09,20.32-28.79,42.9-50.73,59.96l44.65,51.53Z"/>
        <path class="cls-14" d="m1142.82,269.93c29.98-83.04,75.36-174.79,150.64-226.87,15.21-10.52,36.08-23.71,49.28-34.87-33.71-1.55-73.33-.76-107.09-1.11-81.44-.84-421.84-4.37-510.59-5.29-57.62-.6-115.23-1.19-172.85-1.79-67.27-.69-126.33,69.26-159.82,120.44-37.77,57.73-61.84,123.55-79.52,189.9-23.97,89.93-75.43,531.47-82.95,572.15-13.3,72.01-50.24,186.11-142.46,180.25,36.99,2.66,732.61,57.85,786.8,61.7,63.22,4.5,104.05-42.85,129.04-95.25,30.62-64.22,58.04-349.49,66.85-423.32,8.83-73.98,59.13-298.49,72.66-335.95Z"/>
        <g class="cls-46">
          <path class="cls-38" d="m1142.82,269.93c29.98-83.04,75.36-174.79,150.64-226.87,15.21-10.52,36.08-23.71,49.28-34.87-33.71-1.55-73.33-.76-107.09-1.11-81.44-.84-421.84-4.37-510.59-5.29-57.62-.6-115.23-1.19-172.85-1.79-67.27-.69-126.33,69.26-159.82,120.44-37.77,57.73-61.84,123.55-79.52,189.9-23.97,89.93-75.43,531.47-82.95,572.15-13.3,72.01-50.24,186.11-142.46,180.25,36.99,2.66,732.61,57.85,786.8,61.7,63.22,4.5,104.05-42.85,129.04-95.25,30.62-64.22,58.04-349.49,66.85-423.32,8.83-73.98,59.13-298.49,72.66-335.95Z"/>
        </g>
        <path class="cls-17" d="m990.05,1143.21c23.82-20.72,43.13-47.09,57.55-74.72,20.64-39.55,33.12-84.47,41.37-128.15,17.91-94.78,23.54-191.66,33.88-287.45,5.48-50.74,11.64-101.46,19.85-151.83,10.67-65.46,24.83-130.84,44.8-194.12,20.47-64.86,49.46-135.41,97.23-185.13,21.15-22.01,45.12-38.66,72.41-48.51,17.77-6.41,22.19-25.82,16.82-41.8-5.34-15.9-21.83-27.82-38.75-21.75-30.15,10.85-57.79,30.24-82.88,56.02-56.87,58.43-93.42,137.98-119.79,214.13-23.42,67.63-39.39,138.75-50.94,209.33-8.44,51.6-14.79,103.61-20.41,155.59-7.9,73.13-14.41,146.45-23.5,219.44-6.95,55.83-16.56,116.83-41.81,167.67-9.81,19.75-27.75,41.64-48.89,58.51l43.06,52.77Z"/>
        <path class="cls-15" d="m1183.64,903.07l-614.85-31.9c-24.23-1.24-45.58-14.78-55.09-34.94l-78.06-165.52c-9.51-20.16-30.86-33.7-55.09-34.94,0,0-351.43-17.95-351.6-17.96-11.71-.54-18.84,10.23-22.85,18.62-4.65,9.74-6.35,20.53-6.07,31.09,0,.05,0,.11,0,.16l16.42,673.74c.94,38.07,7.33,76.54,23.4,111.93,7.1,15.64,16.16,30.82,28.29,43.77,13.86,14.79,33.91,27.46,56.03,29.05,11.01.8,22.03,1.6,33.04,2.4,29.81,2.17,59.63,4.34,89.44,6.51,43.84,3.19,87.67,6.38,131.51,9.57,53.08,3.86,106.16,7.72,159.24,11.58,57.55,4.19,115.09,8.37,172.64,12.56,57.23,4.16,114.47,8.33,171.7,12.49,52.14,3.79,104.29,7.59,156.43,11.38,42.27,3.07,84.55,6.15,126.82,9.22,27.63,2.01,55.25,4.02,82.88,6.03,8.57.62,25.71,1.87,25.71,1.87l-89.94-706.71Z"/>
        <g class="cls-49">
          <path class="cls-16" d="m1271.74,1609.63s-15.92-1.17-23.86-1.71c-27.63-2.03-55.24-4.04-82.87-6.05-42.28-3.06-84.55-6.16-126.83-9.22-52.15-3.8-104.29-7.59-156.44-11.39-57.22-4.15-114.46-8.32-171.71-12.47-57.54-4.17-115.08-8.38-172.63-12.56-53.1-3.88-106.16-7.73-159.26-11.58-43.82-3.2-87.67-6.37-131.49-9.57-29.83-2.17-59.63-4.34-89.46-6.51-11.01-.79-22.02-1.6-33.03-2.41-22.13-1.57-42.17-14.24-56.02-29.04-12.15-12.94-21.21-28.12-28.31-43.77-16.05-35.39-22.45-73.87-23.4-111.91L.03,667.69v-.16c-.3-10.55,1.41-21.34,6.07-31.1,4.01-8.38,11.12-19.14,22.83-18.6.16,0,278.92,14.24,339.91,17.36,7.48.38,11.69.6,11.69.6,24.24,1.25,45.58,14.78,55.1,34.93l78.07,165.52c9.49,20.15,30.86,33.71,55.07,34.93l1.55.08,614.05,31.87,87.36,706.52Z"/>
        </g>
        <path class="cls-24" d="m1427.97,1355.64c.57,37.56-3.47,76.58-10.93,113.51-6.43,31.78-18.55,60.55-37.48,90.44-11.01,17.41-30.64,35.58-59.41,46.15-11.23,4.15-35.01,4.37-46.59,4.04-1.44-.05-8.29.45-21.7-4.6-7.19-2.7-14.99-8.58-23.37-16.34-24.76-22.97-37.37-54.13-45.53-84.74-7.21-26.98-11.06-55.78-11.06-83.55l-11.71-466.38c-.24-14.35-.03-52.8,24.19-51.06,24.87,1.79,71.29,12.5,117.25-22.32,46.91-35.58,50.82-211.49,50.33-245.6l-2.28-143.96c-.22-14.51,2.58-50.33,22.81-51.22,1.33.16,2.93.43,4.96.81,21.88,3.96,36.53,22.72,37.04,40.32l13.48,874.49Z"/>
        <g class="cls-50">
          <path class="cls-28" d="m1427.97,1355.64c.57,37.56-3.47,76.58-10.93,113.51-6.43,31.78-18.55,60.55-37.48,90.44-11.01,17.41-30.64,35.58-59.41,46.15-11.23,4.15-35.01,4.37-46.59,4.04-1.44-.05-8.29.45-21.7-4.6-7.19-2.7-14.99-8.58-23.37-16.34-24.76-22.97-37.37-54.13-45.53-84.74-7.21-26.98-11.06-55.78-11.06-83.55l-11.71-466.38c-.24-14.35-.03-52.8,24.19-51.06,24.87,1.79,71.29,12.5,117.25-22.32,46.91-35.58,50.82-211.49,50.33-245.6l-2.28-143.96c-.22-14.51,2.58-50.33,22.81-51.22,1.33.16,2.93.43,4.96.81,21.88,3.96,36.53,22.72,37.04,40.32l13.48,874.49Z"/>
        </g>
        <g class="cls-41">
          <g class="cls-6">
            <ellipse class="cls-29" cx="39.91" cy="708.84" rx="674.42" ry="283.79" transform="translate(-669.72 730.58) rotate(-88.53)"/>
          </g>
        </g>
        <g class="cls-4">
          <path class="cls-19" d="m539.63,870.15c-26.95-1.19-65.27-12.07-77.91-38.78l-92.88-196.19c7.48.38,11.69.6,11.69.6,24.24,1.25,45.58,14.78,55.1,34.93l78.07,165.52c9.49,20.15,30.86,33.71,55.07,34.93,0,0-12.28-.27-29.15-1Z"/>
        </g>
      </g>
      <path class="cls-32" d="m597.5,204.66c-.12-.13-.24-.25-.36-.38-29.66-30.99-104.35-23.07-126.96,18.31-5.84,10.69-7.79,22.35-8.08,33.77-.07,2.65,1.15,8.01-.85,10.34-1.62,1.86-4.99,1.08-6.99,1.68-11.15,3.33-12.09,17.71-11.29,26.57.96,10.22,4.03,20.78,9.64,28.62,2.13,2.98,7.13,7.98,11.67,4.32.8-.64,2.23-3.26,3.53-2.3,2.01,1.49,2.36,5.13,3.24,7.47,2.83,7.46,7.01,14.29,12.73,19.63,2.14,1.98,1.79,5.71-.75,7.92-7.07,6.1-17.1,13.41-30.08,19.51-12.99,6.05-24.65,8.94-33.4,10.39-2.64.44-4.92,2.63-5.4,5.21-3.13,17.03-7.91,40.45-12,64.45-2.6,15.34,9.02,25.16,22.08,25.56,53.47,1.62,106.67,3.23,160.11,4.85,13.06.4,27.23-8.65,28.78-24.02,2.4-24.05,3.96-47.57,5.44-64.65.22-2.59-1.45-4.9-3.95-5.5-8.28-1.96-19.07-5.54-30.33-12.32-11.23-6.83-19.21-14.69-24.58-21.17-1.93-2.34-1.27-6.06,1.39-7.9,7.74-5.36,14.46-12.7,19.15-20.47,1.08-1.79,2.18-5.15,4.62-5.71,2.72-.62,4.26,4.68,7.81,3.86,5.94-1.38,10.13-7.21,13.34-11.7,4.44-6.22,8.06-12.83,10.7-19.76,3.32-8.73,7.03-25.82-4.58-28.58-1.79-.43-4.13.43-5.57-1.09-2.04-2.17.21-6.09.99-8.57,6.54-20.86,4.4-42.59-10.03-58.34Z"/>
      <path class="cls-18" d="m591.8,198.34c-.12-.13-.24-.25-.36-.38-29.66-30.99-104.35-23.07-126.96,18.31-5.84,10.69-7.79,22.35-8.08,33.77-.07,2.65,1.15,8.01-.85,10.34-1.62,1.86-4.99,1.08-6.99,1.68-11.15,3.33-12.09,17.71-11.29,26.57.96,10.22,4.03,20.78,9.64,28.62,2.13,2.98,7.13,7.98,11.67,4.32.8-.64,2.23-3.26,3.53-2.3,2.01,1.49,2.36,5.13,3.24,7.47,2.83,7.46,7.01,14.29,12.73,19.63,2.14,1.98,1.79,5.71-.75,7.92-7.07,6.1-17.1,13.41-30.08,19.51-12.99,6.05-24.65,8.94-33.4,10.39-2.64.44-4.92,2.63-5.4,5.21-3.13,17.03-7.91,40.45-12,64.45-2.6,15.34,9.02,25.16,22.08,25.56,53.47,1.62,106.67,3.23,160.11,4.85,13.06.4,27.23-8.65,28.78-24.02,2.4-24.05,3.96-47.57,5.44-64.65.22-2.59-1.45-4.9-3.95-5.5-8.28-1.96-19.07-5.54-30.33-12.32-11.23-6.83-19.21-14.69-24.58-21.17-1.93-2.34-1.27-6.06,1.39-7.9,7.74-5.36,14.46-12.7,19.15-20.47,1.08-1.79,2.18-5.15,4.62-5.71,2.72-.62,4.26,4.68,7.81,3.86,5.94-1.38,10.13-7.21,13.34-11.7,4.44-6.22,8.06-12.83,10.7-19.76,3.32-8.73,7.03-25.82-4.58-28.58-1.79-.43-4.13.43-5.57-1.09-2.04-2.17.21-6.09.99-8.57,6.54-20.86,4.4-42.59-10.03-58.34Z"/>
      <g class="cls-2">
        <path class="cls-30" d="m591.8,198.34c-.12-.13-.24-.25-.36-.38-29.66-30.99-104.35-23.07-126.96,18.31-5.84,10.69-7.79,22.35-8.08,33.77-.07,2.65,1.15,8.01-.85,10.34-1.62,1.86-4.99,1.08-6.99,1.68-11.15,3.33-12.09,17.71-11.29,26.57.96,10.22,4.03,20.78,9.64,28.62,2.13,2.98,7.13,7.98,11.67,4.32.8-.64,2.23-3.26,3.53-2.3,2.01,1.49,2.36,5.13,3.24,7.47,2.83,7.46,7.01,14.29,12.73,19.63,2.14,1.98,1.79,5.71-.75,7.92-7.07,6.1-17.1,13.41-30.08,19.51-12.99,6.05-24.65,8.94-33.4,10.39-2.64.44-4.92,2.63-5.4,5.21-3.13,17.03-7.91,40.45-12,64.45-2.6,15.34,9.02,25.16,22.08,25.56,53.47,1.62,106.67,3.23,160.11,4.85,13.06.4,27.23-8.65,28.78-24.02,2.4-24.05,3.96-47.57,5.44-64.65.22-2.59-1.45-4.9-3.95-5.5-8.28-1.96-19.07-5.54-30.33-12.32-11.23-6.83-19.21-14.69-24.58-21.17-1.93-2.34-1.27-6.06,1.39-7.9,7.74-5.36,14.46-12.7,19.15-20.47,1.08-1.79,2.18-5.15,4.62-5.71,2.72-.62,4.26,4.68,7.81,3.86,5.94-1.38,10.13-7.21,13.34-11.7,4.44-6.22,8.06-12.83,10.7-19.76,3.32-8.73,7.03-25.82-4.58-28.58-1.79-.43-4.13.43-5.57-1.09-2.04-2.17.21-6.09.99-8.57,6.54-20.86,4.4-42.59-10.03-58.34Z"/>
      </g>
      <path class="cls-31" d="m938.59,297.19l-154.18-4.67c-14.36-.43-24.51-11.67-22.68-25.1h0c1.83-13.43,14.96-23.96,29.32-23.53l154.18,4.67c14.36.43,24.51,11.67,22.68,25.1h0c-1.83,13.43-14.96,23.96-29.32,23.53Z"/>
      <path class="cls-31" d="m1015,374.88l-327.52-9.91c-14.36-.43-24.51-11.67-22.68-25.1h0c1.83-13.43,14.96-23.96,29.32-23.53l327.52,9.91c14.36.43,24.51,11.67,22.68,25.1h0c-1.83,13.43-14.96,23.96-29.32,23.53Z"/>
      <path class="cls-32" d="m957.41,546.02l-274.01-8.29c-11.24-.34-19.19-9.14-17.76-19.65h0c1.44-10.51,11.72-18.76,22.96-18.42l274.01,8.29c11.24.34,19.19,9.14,17.76,19.65h0c-1.44,10.51-11.72,18.76-22.96,18.42Z"/>
      <path class="cls-32" d="m949.06,620.14l-274.01-8.29c-11.24-.34-19.19-9.14-17.76-19.65h0c1.44-10.51,11.72-18.76,22.96-18.42l274.01,8.29c11.24.34,19.19,9.14,17.76,19.65h0c-1.44,10.51-11.72,18.76-22.96,18.42Z"/>
      <path class="cls-32" d="m941.77,692.6l-274.01-8.29c-11.24-.34-19.19-9.14-17.76-19.65h0c1.44-10.51,11.72-18.76,22.96-18.42l274.01,8.29c11.24.34,19.19,9.14,17.76,19.65h0c-1.44,10.51-11.72,18.76-22.96,18.42Z"/>
      <path class="cls-23" d="m934.31,292.45l-154.18-4.67c-14.36-.43-24.51-11.67-22.68-25.1h0c1.83-13.43,14.96-23.96,29.32-23.53l154.18,4.67c14.36.43,24.51,11.67,22.68,25.1h0c-1.83,13.43-14.96,23.96-29.32,23.53Z"/>
      <path class="cls-20" d="m1010.72,370.15l-327.52-9.91c-14.36-.43-24.51-11.67-22.68-25.1h0c1.83-13.43,14.96-23.96,29.32-23.53l327.52,9.91c14.36.43,24.51,11.67,22.68,25.1h0c-1.83,13.43-14.96,23.96-29.32,23.53Z"/>
      <path class="cls-31" d="m1000.62,458.59l-327.52-9.91c-14.36-.43-24.51-11.67-22.68-25.1h0c1.83-13.43,14.96-23.96,29.32-23.53l327.52,9.91c14.36.43,24.51,11.67,22.68,25.1h0c-1.83,13.43-14.96,23.96-29.32,23.53Z"/>
      <path class="cls-26" d="m996.34,453.85l-327.52-9.91c-14.36-.43-24.51-11.67-22.68-25.1h0c1.83-13.43,14.96-23.96,29.32-23.53l327.52,9.91c14.36.43,24.51,11.67,22.68,25.1h0c-1.83,13.43-14.96,23.96-29.32,23.53Z"/>
      <path class="cls-22" d="m952.25,540.31l-274.01-8.29c-11.24-.34-19.19-9.14-17.76-19.65h0c1.44-10.51,11.72-18.76,22.96-18.42l274.01,8.29c11.24.34,19.19,9.14,17.76,19.65h0c-1.44,10.51-11.72,18.76-22.96,18.42Z"/>
      <path class="cls-25" d="m943.9,614.43l-274.01-8.29c-11.24-.34-19.19-9.14-17.76-19.65h0c1.44-10.51,11.72-18.76,22.96-18.42l274.01,8.29c11.24.34,19.19,9.14,17.76,19.65h0c-1.44,10.51-11.72,18.76-22.96,18.42Z"/>
      <path class="cls-21" d="m936.61,686.89l-274.01-8.29c-11.24-.34-19.19-9.14-17.76-19.65h0c1.44-10.51,11.72-18.76,22.96-18.42l274.01,8.29c11.24.34,19.19,9.14,17.76,19.65h0c-1.44,10.51-11.72,18.76-22.96,18.42Z"/>
      <path class="cls-32" d="m939.19,764.07l-274.01-8.29c-11.24-.34-19.19-9.14-17.76-19.65h0c1.44-10.51,11.72-18.76,22.96-18.42l274.01,8.29c11.24.34,19.19,9.14,17.76,19.65h0c-1.44,10.51-11.72,18.76-22.96,18.42Z"/>
      <path class="cls-27" d="m934.03,758.36l-274.01-8.29c-11.24-.34-19.19-9.14-17.76-19.65h0c1.44-10.51,11.72-18.76,22.96-18.42l274.01,8.29c11.24.34,19.19,9.14,17.76,19.65h0c-1.44,10.51-11.72,18.76-22.96,18.42Z"/>
    </g>
  </g>
</svg>